<svg width="138" height="56" viewBox="0 0 138 56" fill="none" xmlns="http://www.w3.org/2000/svg">
<path d="M72.7346 27.3406C72.4327 29.3505 72.2802 31.6197 72.2802 34.1512L72.0728 34.3586L57.07 34.2335C54.566 34.2335 52.7971 34.2762 51.7662 34.3586L51.5588 34.1512V33.5747L51.6625 33.3277C52.6812 32.6811 53.2301 32.2754 53.3125 32.1107C53.4375 31.8485 53.5107 30.9335 53.5382 29.3658L53.5992 24.7421V14.2777C53.5992 11.002 53.5107 8.8701 53.3308 7.87886C53.2606 7.47932 53.0289 7.22617 52.6293 7.11637C52.4219 7.06147 51.6167 6.99132 50.2137 6.90897L50.0063 6.70157V5.29859L50.2137 5.11255C51.6045 5.1949 53.7486 5.2376 56.6522 5.2376C59.2386 5.2376 64.1581 5.19795 71.4079 5.11255L71.6336 5.27725L71.3652 7.56776C71.2828 8.2967 71.2218 8.91584 71.1791 9.42518L71.0358 11.3436L70.8284 11.5693H69.6328L69.4254 11.3619C69.4102 9.49229 69.3004 8.4248 69.096 8.1625C68.9435 7.97036 68.2054 7.81785 66.8787 7.70805C65.552 7.59826 64.3838 7.54336 63.3804 7.54336C62.1848 7.54336 60.974 7.59216 59.7479 7.68671C59.5954 9.13239 59.5222 11.1332 59.5222 13.6921V17.9651C60.608 18.0352 61.4894 18.0688 62.1635 18.0688L64.8657 18.0474C66.1315 18.0352 66.8482 17.9315 67.0129 17.7394C67.2325 17.4923 67.3758 16.5621 67.446 14.9548L67.6534 14.7474H68.9344L69.1418 14.9548C69.0869 16.495 69.0594 17.9071 69.0594 19.185C69.0594 20.5758 69.0869 22.0947 69.1418 23.7447L68.9344 23.9308H67.5527L67.3453 23.7234C67.3453 22.1404 67.2355 21.2011 67.0159 20.9052C66.7963 20.6094 66.1284 20.4142 65.0152 20.3166C64.1764 20.2464 63.2828 20.2129 62.3312 20.2129C61.3278 20.2129 60.3914 20.2464 59.5253 20.3166V26.6117C59.5253 28.4142 59.5588 30.1618 59.629 31.8546H62.4349C66.4517 31.8546 68.9161 31.6959 69.8219 31.3788C69.9744 31.3239 70.0842 31.2476 70.1513 31.1531C70.2885 30.9609 70.4197 30.5492 70.5447 29.9148L71.0388 27.3559L71.2462 27.1271H72.5059L72.7316 27.3345L72.7346 27.3406Z" fill="#317B3C"/>
<path d="M107.488 23.8119L107.281 24.0376C106.427 24.245 105.933 24.5287 105.796 24.8947C105.658 25.2607 105.588 26.6514 105.588 29.0731C105.588 30.2412 105.643 31.3972 105.753 32.5409C101.157 34.2733 96.9873 35.1425 93.248 35.1425C88.3224 35.1425 84.3361 33.7639 81.2892 31.0037C78.2423 28.2465 76.7173 24.486 76.7173 19.725C76.7173 13.5214 79.4073 9.09588 84.7875 6.45462C87.2488 5.24379 90.3811 4.63989 94.1783 4.63989C96.3803 4.63989 98.6068 4.88085 100.864 5.36274C102.721 5.76228 104.185 6.21673 105.259 6.72607L105.445 7.09816C105.088 8.30899 104.792 10.4135 104.557 13.4146L104.332 13.622H103.093L102.886 13.4146C102.886 13.1523 102.858 12.6125 102.804 11.7951C102.749 10.9777 102.678 10.4013 102.596 10.0719C101.989 9.24532 100.958 8.54384 99.5004 7.9674C97.9328 7.3635 96.24 7.05851 94.4223 7.05851C89.5515 7.05851 86.1874 9.02574 84.33 12.9602C83.476 14.7749 83.052 16.8824 83.052 19.2766C83.052 23.1013 84.0707 26.2732 86.105 28.7894C88.2248 31.4032 90.9819 32.7117 94.3796 32.7117C96.1821 32.7117 97.9236 32.3274 99.6011 31.5557C99.6956 30.592 99.7444 29.2713 99.7444 27.5939C99.7444 26.2305 99.6956 25.407 99.6011 25.1173C99.5187 24.8977 99.2565 24.7391 98.8173 24.6415C98.4452 24.5592 97.2831 24.4555 95.3281 24.3335L95.1024 24.1261V22.8268L95.3281 22.6194C97.3228 22.6743 99.4151 22.6956 101.602 22.6804C102.868 22.6682 104.759 22.6468 107.278 22.6194L107.485 22.8268V23.818L107.488 23.8119Z" fill="#317B3C"/>
<path d="M137.351 6.0824C135.176 9.04086 132.797 12.6642 130.211 16.9585C128.753 19.3802 127.948 20.9265 127.795 21.6006C127.713 21.9574 127.67 22.4759 127.67 23.15V25.1934C127.67 29.2255 127.795 31.4672 128.042 31.9216C128.152 32.1138 128.311 32.2388 128.518 32.2937C128.863 32.3913 129.707 32.4798 131.056 32.5621L131.263 32.7695V34.1511L131.056 34.3585C129.692 34.2762 127.576 34.2335 124.699 34.2335C121.823 34.2335 119.637 34.2762 118.343 34.3585L118.157 34.1725V32.7695L118.365 32.5621C119.713 32.4798 120.558 32.3913 120.902 32.2937C121.11 32.2388 121.265 32.1138 121.378 31.9216C121.625 31.4672 121.75 29.2255 121.75 25.1934V22.7596C121.75 22.238 120.67 20.1458 118.511 16.4858C116.309 12.7588 114.555 10.2273 113.25 8.89141C112.616 8.24482 112.192 7.87577 111.969 7.78733C111.749 7.69888 111.234 7.65313 110.42 7.65313L110.194 7.42743V6.2715L110.401 6.0458C113.759 5.38396 115.913 4.91732 116.861 4.64282C117.578 4.98747 118.215 5.43276 118.779 5.9848C119.948 7.12548 121.518 9.6722 123.486 13.6219L126.188 19.0295C126.999 17.721 128.548 15.095 130.83 11.1453L133.12 7.03704C133.367 6.5826 133.706 5.95735 134.133 5.15827H137.146L137.354 5.36566V6.0885L137.351 6.0824Z" fill="#317B3C"/>
<path d="M48.9636 37.1707L49.0368 37.1067C50.5526 37.1555 51.4249 37.1799 51.6567 37.1799C51.8641 37.1799 52.7395 37.1555 54.2858 37.1067L54.359 37.1707V37.6282L54.2858 37.6923C53.8649 37.7045 53.5386 37.7228 53.3098 37.7472C53.0811 37.7716 52.9133 37.8173 52.8096 37.8844C52.7059 37.9515 52.6358 38.1101 52.6022 38.3572C52.5687 38.6042 52.5504 38.9489 52.5504 39.388L52.5321 41.4956V45.5459C52.5321 46.5585 52.5382 47.2691 52.5504 47.6717L52.5961 49.2577H54.4657C55.9572 49.2577 56.8844 49.2394 57.2564 49.2028C57.6255 49.1662 57.9823 49.0778 58.3239 48.9375C58.391 48.785 58.4886 48.4342 58.6137 47.8822C58.7387 47.3332 58.8058 47.016 58.8119 46.9306L58.8943 46.8574H59.3426L59.4067 46.9306C59.3579 47.1746 59.306 47.6473 59.2542 48.3519C59.2023 49.0534 59.1749 49.6237 59.1749 50.0568L59.1017 50.13C57.9427 50.0934 56.4177 50.0751 54.5298 50.0751L51.855 50.0568C51.245 50.0568 50.6197 50.0812 49.9854 50.13L49.9122 50.0568V49.7548L49.9854 49.6633C50.3635 49.4682 50.5709 49.3492 50.6075 49.3065C50.6441 49.2638 50.6807 48.8704 50.7234 48.1231C50.7631 47.3789 50.7844 46.4792 50.7844 45.43V41.5017L50.7661 39.7144C50.76 39.019 50.7448 38.5707 50.7143 38.3663C50.6868 38.165 50.6441 38.0308 50.5862 37.9637C50.5282 37.8966 50.4154 37.8417 50.2507 37.799C50.086 37.7563 49.6804 37.7228 49.0307 37.6984L48.9575 37.6343V37.1768L48.9636 37.1707Z" fill="#9DAF4C"/>
<path d="M62.0264 43.841L61.6696 43.7496L61.5964 43.658V42.5235C62.6821 41.7183 63.7405 41.3157 64.7653 41.3157C65.4667 41.3157 66.0493 41.4468 66.5159 41.7091C66.9795 41.9714 67.315 42.3008 67.5224 42.6943C67.7298 43.0877 67.8335 43.5483 67.8335 44.0728L67.7878 45.915V48.6447C67.7878 49.0168 67.8122 49.2425 67.8671 49.3218C67.9189 49.4011 67.9799 49.456 68.047 49.4835C68.1141 49.5109 68.2392 49.5353 68.4222 49.5506L68.9437 49.5963L69.0169 49.6786V50.0446L68.9437 50.1178C68.4984 50.0812 68.0836 50.0629 67.6993 50.0629C67.315 50.0629 66.8941 50.0812 66.3787 50.1178L66.2414 49.9897L66.278 48.5136L64.2803 50.0721C63.9448 50.2124 63.5788 50.2825 63.1823 50.2825C62.6943 50.2825 62.2734 50.1941 61.9227 50.0172C61.572 49.8403 61.3036 49.5933 61.1175 49.2761C60.9315 48.9589 60.8369 48.5746 60.8369 48.1201C60.8369 47.2234 61.1175 46.5219 61.6787 46.0187C62.2399 45.5155 63.774 45.0854 66.278 44.7316C66.278 43.8288 66.0767 43.1914 65.6741 42.8224C65.2715 42.4533 64.7317 42.2673 64.0516 42.2673C63.6978 42.2673 63.3745 42.3191 63.0847 42.4228C62.795 42.5265 62.6272 42.6119 62.5845 42.676C62.5418 42.74 62.3771 43.1152 62.0904 43.7983L62.0264 43.8441V43.841ZM66.278 45.2898C64.567 45.5765 63.5026 45.8845 63.0817 46.2139C62.6608 46.5433 62.4503 47.0526 62.4503 47.745C62.4503 48.6966 62.9231 49.1754 63.8716 49.1754C64.6829 49.1754 65.4881 48.7057 66.2811 47.7663V45.2928L66.278 45.2898Z" fill="#9DAF4C"/>
<path d="M72.5978 41.3221L72.7717 41.4411C72.7351 41.8498 72.7107 42.3866 72.6985 43.0545C73.1865 42.6519 73.6501 42.2432 74.0923 41.8284C74.2204 41.7125 74.3424 41.6271 74.4552 41.5722C74.5681 41.5173 74.7572 41.4594 75.0195 41.3984C75.2818 41.3374 75.5502 41.3069 75.8247 41.3069C76.2883 41.3069 76.7397 41.4014 77.1758 41.5905C77.6119 41.7796 77.9413 42.0053 78.164 42.2646C78.3866 42.5238 78.5422 42.8319 78.6276 43.1856C78.713 43.5394 78.7557 43.9756 78.7557 44.4941V46.1075C78.7557 46.2112 78.7709 46.9706 78.8014 48.3889C78.8136 48.9684 78.8777 49.313 78.9936 49.4228C79.1095 49.5326 79.4877 49.5875 80.1282 49.5875L80.2014 49.6607V50.0542L80.1282 50.1273C79.3535 50.0786 78.8258 50.0542 78.5513 50.0542C78.3927 50.0542 77.9474 50.0786 77.2124 50.1273L77.1026 50.0267C77.1819 49.2337 77.2216 48.1967 77.2216 46.9218V45.7232C77.2216 45.0034 77.2033 44.4819 77.1697 44.1647C77.1362 43.8475 77.0325 43.5577 76.8617 43.2985C76.6909 43.0392 76.4621 42.838 76.1754 42.6946C75.8887 42.5513 75.5471 42.4781 75.1506 42.4781C74.8334 42.4781 74.562 42.5086 74.3363 42.5757C74.1106 42.6397 73.8575 42.7708 73.5769 42.9691C73.2963 43.1673 73.0889 43.3534 72.9547 43.5272C72.8205 43.7011 72.7381 43.8627 72.7107 44.0122C72.6832 44.1616 72.668 44.4819 72.668 44.9699V46.565C72.668 46.6992 72.6802 47.1323 72.7046 47.8612C72.729 48.5902 72.7564 49.0172 72.7839 49.1392C72.8113 49.2612 72.854 49.3496 72.9089 49.4045C72.9638 49.4594 73.0309 49.496 73.1102 49.5113C73.1895 49.5265 73.5189 49.5509 74.0984 49.5875L74.1807 49.6607V50.045L74.1075 50.1273C73.3451 50.0786 72.607 50.0542 71.8994 50.0542C71.1918 50.0542 70.4629 50.0786 69.7004 50.1273L69.618 50.045V49.6607L69.7004 49.5875C70.2921 49.5509 70.6276 49.5235 70.7038 49.5052C70.78 49.4869 70.8471 49.4472 70.9051 49.3893C70.963 49.3313 71.0027 49.2429 71.024 49.1239C71.0454 49.005 71.0698 48.6115 71.0972 47.9405C71.1247 47.2726 71.1399 46.7663 71.1399 46.4247V44.6191C71.1399 44.3751 71.1277 44.0427 71.1033 43.6218C71.0789 43.2009 71.0576 42.9417 71.0423 42.8441C71.0271 42.7465 70.9783 42.6733 70.899 42.6275C70.8197 42.5818 70.6611 42.5574 70.4232 42.5574L69.6546 42.5482L69.5723 42.475V42.0816L69.6455 42.0084C70.8105 41.8681 71.7957 41.6393 72.5948 41.3221H72.5978Z" fill="#9DAF4C"/>
<path d="M86.551 37.6284V37.2441L86.6242 37.1617C87.7893 37.0275 88.7744 36.8018 89.5735 36.4846L89.7474 36.5944C89.6803 37.2959 89.6467 38.705 89.6467 40.8186V46.8179C89.6467 47.434 89.6559 47.9738 89.6772 48.4343C89.6986 48.8949 89.7382 49.1694 89.7931 49.2548C89.848 49.3402 89.9395 49.4103 90.0646 49.4652C90.1896 49.5201 90.5465 49.572 91.132 49.6208L91.2144 49.694V50.0417L91.132 50.124C90.4733 50.0813 89.9609 50.06 89.5918 50.06C89.2624 50.06 88.7927 50.0813 88.1797 50.124L88.079 50.0234C88.0973 49.4256 88.1065 49.0077 88.1065 48.7668C88.1065 48.7363 88.1065 48.6204 88.1156 48.4191C87.7801 48.6631 87.4446 48.9345 87.1092 49.2334C86.6151 49.6726 86.2918 49.9471 86.1393 50.0569C85.8587 50.1972 85.4591 50.2674 84.9406 50.2674C84.0988 50.2674 83.3821 50.06 82.7935 49.6452C82.2048 49.2304 81.7839 48.6997 81.5338 48.0561C81.2837 47.4126 81.1587 46.7508 81.1587 46.0737C81.1587 45.3966 81.2898 44.7195 81.5491 44.082C81.8083 43.4446 82.1774 42.978 82.6562 42.6852C83.1351 42.3924 83.6566 42.0874 84.2239 41.7732C84.7881 41.4591 85.3493 41.3005 85.9044 41.3005C86.6791 41.3005 87.4202 41.4926 88.1217 41.8769L88.0851 39.8335C88.0729 39.1259 88.0546 38.6318 88.0302 38.3542C88.0058 38.0767 87.9753 37.912 87.9387 37.8601C87.9021 37.8083 87.8381 37.7717 87.7496 37.7443C87.6612 37.7199 87.2891 37.7076 86.6364 37.7076L86.5541 37.6253L86.551 37.6284ZM88.1156 43.4477C87.7374 43.0207 87.3165 42.6943 86.856 42.4686C86.3955 42.2429 85.9319 42.1301 85.4683 42.1301C84.9559 42.1301 84.477 42.2704 84.0348 42.5479C83.5926 42.8255 83.2723 43.2372 83.0771 43.7862C82.8819 44.3322 82.7843 44.9269 82.7843 45.5674C82.7843 46.6349 83.0558 47.4949 83.5956 48.1415C84.1354 48.7881 84.8156 49.1114 85.633 49.1114C86.0783 49.1114 86.4748 49.0108 86.8194 48.8034C87.1641 48.596 87.4477 48.3215 87.6703 47.9738C87.893 47.6261 88.0241 47.2784 88.0607 46.9307C88.0973 46.583 88.1156 45.9456 88.1156 45.0153V43.4477Z" fill="#9DAF4C"/>
<path d="M92.7704 47.3582H93.1638L93.2462 47.4406C93.2584 47.9529 93.2889 48.3921 93.3377 48.7612C93.5267 49.0479 93.8531 49.2827 94.3167 49.4627C94.7803 49.6426 95.2378 49.7341 95.6922 49.7341C96.3388 49.7341 96.8573 49.5603 97.2446 49.2126C97.632 48.8649 97.8272 48.4501 97.8272 47.9682C97.8272 47.7059 97.757 47.4772 97.6167 47.285C97.4764 47.0929 97.2629 46.9343 96.9793 46.8092C96.6957 46.6842 96.1863 46.5347 95.4543 46.3639C94.826 46.2175 94.3868 46.1016 94.1337 46.0193C93.8836 45.9369 93.6426 45.7966 93.4109 45.6014C93.1791 45.4062 93.0022 45.1653 92.8802 44.8816C92.7582 44.598 92.6972 44.2838 92.6972 43.9422C92.6972 43.1249 93.0235 42.4691 93.6731 41.9781C94.3228 41.487 95.1341 41.24 96.104 41.24C96.5127 41.24 96.958 41.2979 97.4429 41.4108C97.9248 41.5236 98.2908 41.6334 98.5409 41.7371L98.6232 41.8652C98.5744 42.1092 98.5439 42.7497 98.5317 43.7897L98.4494 43.8721H98.0834L98.001 43.7897C97.9766 43.4177 97.9431 43.1554 97.9004 43.0059C97.8577 42.8565 97.7479 42.6948 97.571 42.521C97.3941 42.3471 97.144 42.2007 96.8207 42.0818C96.4974 41.9628 96.1558 41.9018 95.7959 41.9018C95.436 41.9018 95.1097 41.9567 94.8565 42.0665C94.6034 42.1763 94.399 42.3441 94.2435 42.5667C94.0879 42.7894 94.0086 43.0608 94.0086 43.378C94.0086 43.6098 94.0544 43.8172 94.152 44.0002C94.2465 44.1832 94.3929 44.3326 94.5881 44.4455C94.7833 44.5583 94.9877 44.6407 95.2012 44.6895L96.1985 44.9457C97.0525 45.1531 97.6655 45.333 98.0346 45.4855C98.4036 45.638 98.6903 45.8698 98.8916 46.1779C99.0929 46.4859 99.1936 46.8611 99.1936 47.3002C99.1936 48.142 98.8459 48.8679 98.1505 49.4718C97.4551 50.0757 96.5584 50.3777 95.4665 50.3777C95.0822 50.3777 94.6034 50.335 94.033 50.2496C93.4627 50.1642 92.9747 50.0696 92.5721 49.9659L92.5264 49.847L92.6179 49.2339C92.6484 49.0448 92.6667 48.8527 92.6728 48.6605C92.6789 48.4684 92.685 48.0628 92.6911 47.4467L92.7734 47.3643L92.7704 47.3582Z" fill="#9DAF4C"/>
<path d="M107.748 49.0723L107.382 49.6853C106.596 50.1184 105.714 50.335 104.744 50.335C103.399 50.335 102.362 49.9354 101.63 49.1363C100.898 48.3372 100.532 47.3033 100.532 46.0406C100.532 45.4672 100.596 44.9548 100.721 44.5065C100.846 44.0582 101.005 43.6861 101.197 43.3933C101.389 43.1005 101.603 42.8687 101.835 42.6979C102.066 42.5271 102.46 42.2892 103.012 41.9842C103.564 41.6792 103.982 41.4779 104.262 41.3833C104.543 41.2888 104.93 41.24 105.424 41.24C106.37 41.24 107.148 41.4199 107.751 41.7798C107.636 42.4691 107.547 43.2408 107.486 44.0887L107.404 44.1619H107.029L106.946 44.0795C106.922 43.5671 106.888 43.2225 106.846 43.0456C106.803 42.8687 106.559 42.6796 106.117 42.4783C105.674 42.277 105.202 42.1763 104.702 42.1763C104.201 42.1763 103.756 42.28 103.363 42.4935C102.972 42.704 102.676 43.0486 102.478 43.5275C102.28 44.0063 102.179 44.5797 102.179 45.2446C102.179 45.8058 102.258 46.3548 102.417 46.8885C102.576 47.4223 102.786 47.8645 103.045 48.2183C103.305 48.569 103.649 48.8527 104.076 49.0662C104.503 49.2797 104.979 49.3864 105.507 49.3864C105.836 49.3864 106.159 49.3437 106.474 49.2583C106.788 49.1729 107.151 49.0326 107.559 48.8374L107.751 49.0753L107.748 49.0723Z" fill="#9DAF4C"/>
<path d="M110.066 43.841L109.709 43.7496L109.636 43.658V42.5235C110.722 41.7183 111.78 41.3157 112.805 41.3157C113.506 41.3157 114.089 41.4468 114.555 41.7091C115.019 41.9714 115.355 42.3008 115.562 42.6943C115.769 43.0877 115.873 43.5483 115.873 44.0728L115.827 45.915V48.6447C115.827 49.0168 115.852 49.2425 115.907 49.3218C115.958 49.4011 116.019 49.456 116.087 49.4835C116.154 49.5109 116.279 49.5353 116.462 49.5506L116.983 49.5963L117.056 49.6786V50.0446L116.983 50.1178C116.538 50.0812 116.123 50.0629 115.739 50.0629C115.355 50.0629 114.934 50.0812 114.418 50.1178L114.281 49.9897L114.318 48.5136L112.32 50.0721C111.984 50.2124 111.618 50.2825 111.222 50.2825C110.734 50.2825 110.313 50.1941 109.962 50.0172C109.612 49.8403 109.343 49.5933 109.157 49.2761C108.971 48.9589 108.876 48.5746 108.876 48.1201C108.876 47.2234 109.157 46.5219 109.718 46.0187C110.279 45.5155 111.814 45.0854 114.318 44.7316C114.318 43.8288 114.116 43.1914 113.714 42.8224C113.311 42.4533 112.771 42.2673 112.091 42.2673C111.737 42.2673 111.414 42.3191 111.124 42.4228C110.835 42.5265 110.667 42.6119 110.624 42.676C110.581 42.74 110.417 43.1152 110.13 43.7983L110.066 43.8441V43.841ZM114.318 45.2898C112.607 45.5765 111.542 45.8845 111.121 46.2139C110.7 46.5433 110.49 47.0526 110.49 47.745C110.49 48.6966 110.963 49.1754 111.911 49.1754C112.722 49.1754 113.528 48.7057 114.321 47.7663V45.2928L114.318 45.2898Z" fill="#9DAF4C"/>
<path d="M120.897 41.2122L121.071 41.322C121.01 42.0173 120.977 42.6365 120.97 43.1733C121.8 42.4169 122.38 41.9167 122.706 41.6697C123.032 41.4257 123.596 41.3037 124.396 41.3037C124.896 41.3037 125.35 41.3707 125.762 41.511C126.171 41.6483 126.549 41.874 126.897 42.1881C127.244 42.5023 127.519 42.8957 127.72 43.3685C127.921 43.8412 128.022 44.3902 128.022 45.0124C128.022 45.4516 127.952 45.8969 127.812 46.3513C127.671 46.8027 127.485 47.2206 127.256 47.6079C127.028 47.9952 126.845 48.2484 126.707 48.3734C126.57 48.4985 126.287 48.6876 125.86 48.9377C125.475 49.1695 125.094 49.4196 124.716 49.688C124.454 49.8771 124.271 49.9991 124.167 50.054C124.063 50.1089 123.889 50.1638 123.645 50.2187C123.401 50.2736 123.142 50.301 122.868 50.301C122.233 50.301 121.599 50.1394 120.97 49.8161V51.768C120.97 51.9022 120.983 52.3353 121.007 53.0643C121.031 53.7932 121.059 54.2202 121.086 54.3422C121.114 54.4642 121.157 54.5527 121.211 54.6076C121.266 54.6625 121.333 54.699 121.413 54.7143C121.492 54.7295 121.821 54.757 122.401 54.7936L122.483 54.8668V55.2511L122.41 55.3334C121.648 55.2846 120.913 55.2602 120.211 55.2602C119.51 55.2602 118.774 55.2846 118.012 55.3334L117.93 55.2511V54.8668L118.012 54.7936C118.598 54.757 118.93 54.7295 119.009 54.7112C119.089 54.6929 119.159 54.6533 119.217 54.5954C119.275 54.5374 119.314 54.4429 119.336 54.3148C119.357 54.1867 119.381 53.778 119.409 53.0887C119.436 52.3994 119.452 51.8809 119.452 51.5301V44.5122C119.452 44.195 119.439 43.826 119.409 43.4081C119.381 42.9903 119.357 42.7463 119.339 42.6792C119.32 42.6121 119.275 42.5572 119.205 42.5145C119.134 42.4718 118.976 42.4504 118.732 42.4504L117.963 42.4413L117.881 42.3681V41.9746L117.954 41.9014C119.119 41.7611 120.101 41.5324 120.894 41.2152L120.897 41.2122ZM120.97 48.2392C121.251 48.5259 121.599 48.776 122.014 48.9865C122.428 49.1969 122.886 49.3037 123.389 49.3037C123.981 49.3037 124.505 49.1542 124.96 48.8553C125.414 48.5564 125.768 48.1173 126.018 47.5408C126.268 46.9644 126.393 46.3239 126.393 45.6224C126.393 45.0551 126.28 44.5274 126.058 44.0364C125.835 43.5484 125.49 43.1641 125.024 42.8835C124.557 42.6029 124.06 42.4626 123.535 42.4626C123.212 42.4626 122.898 42.5206 122.593 42.6334C122.288 42.7463 122.001 42.914 121.736 43.1336C121.471 43.3532 121.279 43.5637 121.163 43.7619C121.047 43.9602 120.986 44.1249 120.98 44.256C120.974 44.3872 120.97 44.5336 120.97 44.6921V48.2454V48.2392Z" fill="#9DAF4C"/>
<path d="M136.881 48.7061L136.589 49.3648C135.954 49.7735 135.387 50.0389 134.89 50.1609C134.393 50.2829 133.947 50.3439 133.557 50.3439C132.825 50.3439 132.13 50.2005 131.474 49.9138C130.818 49.6271 130.284 49.1422 129.87 48.456C129.458 47.7728 129.25 46.9462 129.25 45.9824C129.25 45.3419 129.33 44.7625 129.488 44.247C129.647 43.7316 129.815 43.3473 129.989 43.0972C130.162 42.8471 130.458 42.5695 130.873 42.2645C131.288 41.9595 131.727 41.7156 132.194 41.5326C132.657 41.3496 133.157 41.2581 133.697 41.2581C134.429 41.2581 135.076 41.4319 135.634 41.7766C136.192 42.1212 136.586 42.5634 136.811 43.1002C137.037 43.637 137.15 44.2074 137.15 44.8143C137.15 45.0034 137.141 45.1864 137.122 45.3633L137.022 45.464C136.607 45.5555 136.049 45.6164 135.344 45.6469C134.643 45.6774 134.176 45.6927 133.95 45.6927H131.01C131.023 46.9584 131.34 47.8887 131.962 48.4865C132.584 49.0842 133.35 49.3831 134.252 49.3831C134.679 49.3831 135.091 49.31 135.485 49.1636C135.878 49.0172 136.296 48.8128 136.735 48.5505L136.881 48.7061ZM131.01 44.9577C131.12 44.976 131.544 44.9973 132.279 45.0217C133.014 45.0461 133.56 45.0583 133.914 45.0583C134.762 45.0583 135.28 45.0431 135.463 45.0126C135.469 44.8662 135.472 44.7533 135.472 44.674C135.472 43.7285 135.28 43.024 134.896 42.5634C134.512 42.1029 133.987 41.8711 133.319 41.8711C132.593 41.8711 132.026 42.1303 131.62 42.6488C131.215 43.1673 131.01 43.939 131.01 44.9577Z" fill="#9DAF4C"/>
<path d="M34.6407 24.8135C34.4164 23.0267 34.2947 22.0745 34.2725 21.9581C34.1678 21.3879 34.0027 20.8357 33.7774 20.3036C33.5097 19.6773 33.1003 19.5344 32.3587 19.4562C30.2619 19.1589 28.1037 18.9621 25.88 18.8701L25.205 23.4773L23.5822 34.1846C23.5726 34.2407 23.5398 34.2714 23.4827 34.2756C23.4668 34.2756 23.451 34.2756 23.4362 34.2714C23.3854 34.2544 23.36 34.2206 23.36 34.1666L23.3134 24.7902L23.3833 19.2361L23.3536 14.7251L23.3663 13.007L23.4467 10.8563L23.6171 8.43151C23.5769 7.83378 23.6425 7.3757 23.8149 7.05726C24.7924 6.76104 25.6197 6.25958 26.2968 5.55395C26.4417 5.4069 26.5602 5.33496 26.5623 5.10433C26.5676 3.96706 26.5623 2.32833 26.5507 0.18709C26.5507 0.102456 26.4819 0.0347489 26.3973 0.033691L24.5269 0.0199379L19.8477 0.00512695L19.2859 0.0146483L17.5604 0.0104166C17.4536 0.00830073 17.4007 0.061197 17.4018 0.169105C17.4145 1.75388 17.4145 3.35981 17.4018 4.98584C17.3996 5.17944 17.461 5.34025 17.5848 5.46931C18.2999 6.21621 19.1156 6.73988 20.0349 7.03928C20.1354 7.07313 20.2 7.11968 20.2285 7.17892C20.2624 7.25298 20.274 7.3429 20.2634 7.44869L20.3322 8.33312C20.3322 8.33312 20.3322 8.34476 20.3354 8.36592C20.3354 8.37121 20.3354 8.3765 20.3375 8.38284L20.3407 8.42728C20.3407 8.43574 20.3407 8.4442 20.3428 8.45372C20.3925 9.02606 20.5925 11.4805 20.5925 12.9626C20.5925 13.0578 20.5893 13.1456 20.5808 13.226C20.6115 15.0234 20.5787 16.823 20.4846 18.6236C20.4793 18.7093 20.4105 18.777 20.3259 18.7812L17.4906 18.8976L12.7585 19.2858C12.1862 19.3535 11.6128 19.4234 11.0394 19.4932C10.466 19.5619 10.2237 20.0465 10.0767 20.5998C9.36998 23.2287 9.14782 25.9328 9.40913 28.713L11.0151 27.8656C11.123 27.8085 11.1558 27.8381 11.1156 27.9534C10.2375 30.4343 10.3179 32.932 11.3578 35.4478L11.9778 36.786C12.0042 36.8696 12.037 36.9215 12.0772 36.9447C12.1185 36.9669 12.1714 36.9511 12.1946 36.9088C12.5554 36.2465 12.9701 35.6371 13.4377 35.0828C13.571 34.9241 13.6228 34.9484 13.5943 35.1515C13.2399 37.6176 14.2618 40.1143 16.0042 41.8979C16.1259 42.0217 16.4115 42.2873 16.8633 42.6935C16.9648 42.813 17.0505 42.8416 17.1193 42.7792L17.425 41.4991C17.4822 41.2568 17.5414 41.2568 17.6017 41.497C17.9413 42.8691 19.0807 44.0297 20.1767 44.9088L21.8228 46.0313C21.9254 46.1021 22.0609 46.1032 22.1656 46.0344L23.414 45.2145C24.0878 44.7258 24.7036 44.1672 25.26 43.5377C25.8112 42.9157 26.1836 42.2016 26.3761 41.3975C26.3973 41.3076 26.4269 41.3044 26.4671 41.388C26.6978 41.8757 26.7834 42.4396 26.8977 42.7887C26.8998 42.7951 26.9019 42.8003 26.9072 42.8046C26.9231 42.8236 26.9517 42.8257 26.9707 42.8099C27.743 42.1677 28.4074 41.4621 28.9617 40.693C30.1667 38.9717 30.6375 37.132 30.3762 35.1706C30.3444 34.9336 30.4079 34.905 30.5645 35.086C31.0289 35.6213 31.4246 36.2095 31.7525 36.8537C31.762 36.8749 31.779 36.8908 31.798 36.9003C31.8499 36.9267 31.9144 36.9077 31.9398 36.8559C32.4158 35.963 32.7872 35.0288 33.0506 34.0524L33.3405 32.2105C33.4769 30.7157 33.3013 29.3086 32.8126 27.9883C32.7554 27.836 32.7978 27.8 32.9395 27.8815L34.4217 28.7384C34.4365 28.7469 34.4545 28.7522 34.4725 28.7532C34.537 28.7564 34.592 28.7077 34.5952 28.6421L34.6777 26.9272L34.6735 26.5707C34.6936 25.7053 34.683 25.1182 34.6438 24.8082L34.6407 24.8135ZM19.8085 4.33099C19.763 4.29819 19.7398 4.2527 19.7398 4.19663V2.42249C19.7398 2.36007 19.7705 2.32939 19.8329 2.32833L21.0643 2.3167L24.1492 2.31352C24.2021 2.31352 24.2444 2.3569 24.2444 2.40873C24.2423 2.95991 24.2444 3.51956 24.2497 4.08872C24.2497 4.3733 24.1048 4.41668 23.8519 4.57008C23.507 4.7806 23.1368 4.92131 22.7432 4.99325C21.6567 5.19743 20.6771 4.97632 19.8085 4.32993V4.33099Z" fill="#307A3B"/>
<path d="M29.1141 9.88721C30.2387 10.285 31.3178 10.7536 32.3514 11.2911C33.8081 12.0761 35.1697 13.007 36.435 14.0851L36.7936 14.4077C37.6706 15.235 38.4387 16.0507 39.0988 16.8568C40.6413 18.741 41.8251 20.8558 42.6524 23.2023C42.8841 23.8592 43.0967 24.5247 43.2903 25.1986L43.6913 27.1388C44.5503 32.4422 43.3305 37.9688 40.4583 42.4787L38.6355 44.8697L37.7944 45.7657C36.5037 47.1061 35.0406 48.2846 33.4072 49.2992C33.2919 49.424 33.1311 49.2706 32.9269 48.84L32.1229 47.4997C32.088 47.4404 32.1059 47.3653 32.1631 47.3272L33.2136 46.6491L34.9306 45.315C37.2813 43.2711 39.0512 40.785 40.2403 37.8577L41.1385 35.0532C41.7278 32.5141 41.8092 29.9762 41.3808 27.4371L40.946 25.4969C40.6921 24.5226 40.3853 23.6487 40.0256 22.8733C39.3527 21.3763 38.4863 19.9153 37.4284 18.4892C36.5164 17.261 35.4871 16.2157 34.3424 15.3546C33.0517 14.3347 31.6606 13.4831 30.1689 12.7997L29.2263 12.4104C28.0731 11.9258 26.8607 11.5778 25.5923 11.3662L25.7891 9.1456C25.7943 9.08953 25.825 9.0652 25.88 9.07366C26.9993 9.24822 28.0784 9.51905 29.1173 9.88721H29.1141Z" fill="#9DAD4A"/>
<path d="M20.3311 8.33521L20.3342 8.36763C20.3321 8.34671 20.3311 8.33521 20.3311 8.33521Z" fill="#307A3B"/>
<path d="M20.334 8.36816C20.3361 8.38948 20.3382 8.41931 20.3414 8.45768L20.334 8.36816Z" fill="#307A3B"/>
<path d="M20.3415 8.45679C20.3478 8.5319 20.3563 8.63663 20.3679 8.76782L20.2886 8.77734C20.3394 8.76782 20.3637 8.73714 20.3584 8.68318L20.3415 8.45679Z" fill="#307A3B"/>
<path d="M20.4668 11.0859C20.4869 11.0837 20.507 11.0827 20.5282 11.0806C20.5652 11.746 20.5916 12.422 20.5916 12.9658C20.5916 13.061 20.5885 13.1488 20.58 13.2292C20.5758 12.9108 20.5684 12.5923 20.5588 12.2739L20.5282 11.1514C20.526 11.1165 20.4996 11.088 20.4668 11.0859Z" fill="#307A3B"/>
<path d="M21.1754 11.0159C21.0654 11.0297 20.7819 11.0561 20.5269 11.0804C20.4762 10.1685 20.4084 9.27668 20.3672 8.76782L21.2728 8.65039C21.2728 8.65039 21.3934 10.9884 21.1754 11.0159Z" fill="#307A3B"/>
<path d="M20.5278 11.0804C20.5066 11.0826 20.4865 11.0836 20.4664 11.0857H20.4537C20.3892 11.091 20.3246 11.0963 20.2601 11.1027C20.2199 11.1058 20.1797 11.1111 20.1395 11.1154C20.1183 11.1175 20.1014 11.1185 20.0887 11.1196C20.0803 11.1196 20.0729 11.1196 20.0676 11.1217C20.0612 11.1217 20.058 11.1217 20.058 11.1217C19.7015 11.1587 19.3482 11.2042 18.9959 11.2603C17.537 11.4888 16.1109 11.8802 14.7176 12.4346C13.8385 12.7636 12.99 13.1656 12.1744 13.6406C9.06936 15.4201 6.63719 17.8618 4.87574 20.9657C3.71837 23.0033 2.93974 25.1868 2.53984 27.5174C1.94635 31.4529 2.49329 35.2414 4.17963 38.8838C5.24602 41.1911 6.73875 43.2181 8.65783 44.9658C9.40684 45.7191 10.2553 46.3866 11.2032 46.9674L12.5944 47.7693C12.6885 47.8243 12.7234 47.9428 12.6748 48.0391L11.8369 49.6598C11.8284 49.6863 11.8147 49.7127 11.7967 49.736C11.7343 49.8471 11.6391 49.8661 11.5142 49.7963C10.8075 49.4017 10.1157 48.9828 9.43858 48.5406C8.96145 48.2274 8.48327 47.8635 8.00615 47.4488C7.55335 47.0563 7.10479 46.6574 6.66046 46.2533L5.76123 45.3647C2.37481 41.6196 0.472655 37.2356 0.0568903 32.2083C-0.222402 28.167 0.52661 24.3743 2.30498 20.8303C4.03681 17.3772 6.51659 14.5737 9.74432 12.4208L10.7314 11.802C13.0398 10.4383 15.5259 9.52107 18.1887 9.05029L18.6648 8.98787L19.3968 8.89372L19.5058 8.8789L20.2813 8.77946C20.2813 8.77946 20.2866 8.77946 20.2897 8.77734L20.3691 8.76782C20.4103 9.27668 20.4791 10.1685 20.5288 11.0804H20.5278Z" fill="#9DAD4A"/>
<path d="M20.2803 8.78044L19.5049 8.87988L20.2877 8.77832C20.2877 8.77832 20.2825 8.78044 20.2793 8.78044H20.2803Z" fill="#307A3B"/>
<path d="M20.4667 11.0857C20.2742 11.1037 20.1102 11.1185 20.0679 11.1217C20.1969 11.1079 20.3249 11.0963 20.454 11.0857H20.4667Z" fill="#307A3B"/>
</svg>
