<svg width="297" height="80" viewBox="0 0 297 80" fill="none" xmlns="http://www.w3.org/2000/svg">
<path d="M175.944 46.8859C175.351 48.1136 174.566 49.1771 173.574 50.0693C172.582 50.9615 171.411 51.6396 170.062 52.1107C168.713 52.5818 167.286 52.8173 165.772 52.8173C164.595 52.8173 163.41 52.6389 162.211 52.2891C161.012 51.9394 159.941 51.3969 158.977 50.676C158.021 49.9551 157.243 49.0772 156.658 48.0493C156.072 47.0215 155.772 45.8866 155.772 44.6446C155.772 43.6025 155.994 42.6461 156.429 41.7681C156.865 40.8902 157.443 40.0765 158.142 39.3199C158.849 38.5633 159.634 37.8638 160.491 37.2285C161.347 36.5861 162.196 35.9865 163.039 35.4084C162.161 34.8017 161.311 34.1664 160.491 33.4883C159.663 32.8174 158.934 32.0822 158.292 31.2899C157.65 30.4976 157.136 29.6197 156.75 28.6418C156.365 27.6639 156.172 26.5719 156.172 25.3585C156.172 24.0166 156.458 22.7675 157.029 21.6254C157.6 20.4834 158.356 19.4912 159.299 18.649C160.241 17.8067 161.318 17.1429 162.532 16.6576C163.745 16.1722 164.973 15.9224 166.215 15.9224C167.792 15.9224 169.213 16.1294 170.455 16.5505C171.697 16.9716 172.753 17.5355 173.61 18.2421C174.466 18.9488 175.13 19.7839 175.608 20.7403C176.079 21.6968 176.315 22.7175 176.315 23.7953C176.315 24.8017 176.108 25.7368 175.68 26.5933C175.258 27.4498 174.695 28.2564 173.988 29.013C173.281 29.7696 172.468 30.4762 171.54 31.1329C170.612 31.7896 169.663 32.4177 168.692 33.0244C169.398 33.4241 170.219 33.9095 171.161 34.4591C172.104 35.0158 172.989 35.6939 173.81 36.5005C174.63 37.307 175.337 38.2349 175.929 39.277C176.515 40.3192 176.815 41.5183 176.815 42.8602C176.815 44.3092 176.522 45.6439 175.929 46.8716L175.944 46.8859ZM172.054 42.5176C171.633 41.6111 171.047 40.7617 170.291 39.9694C169.534 39.1771 168.613 38.4491 167.543 37.771C166.465 37.1 165.251 36.4434 163.909 35.801C163.139 36.2364 162.475 36.8003 161.918 37.4926C161.361 38.185 160.897 38.9202 160.533 39.7124C160.162 40.5047 159.884 41.3042 159.698 42.1107C159.513 42.9173 159.42 43.6739 159.42 44.3805C159.42 46.8002 160.091 48.6846 161.44 50.0336C162.789 51.3826 164.502 52.0536 166.586 52.0536C167.7 52.0536 168.649 51.8609 169.441 51.4754C170.234 51.09 170.862 50.5904 171.333 49.9837C171.804 49.3769 172.146 48.6989 172.368 47.9423C172.589 47.1857 172.696 46.4219 172.696 45.6439C172.696 44.4662 172.482 43.4241 172.061 42.5176H172.054ZM172.46 21.0901C172.175 20.2336 171.754 19.4841 171.197 18.8417C170.64 18.1993 169.948 17.6997 169.127 17.3285C168.306 16.9573 167.371 16.7718 166.329 16.7718C165.487 16.7718 164.68 16.9074 163.902 17.1715C163.131 17.4427 162.439 17.8281 161.832 18.3349C161.226 18.8417 160.747 19.4627 160.391 20.205C160.041 20.9473 159.862 21.8039 159.862 22.7817C159.862 24.0951 160.119 25.2514 160.648 26.2649C161.169 27.2714 161.832 28.1779 162.639 28.963C163.446 29.7553 164.316 30.4334 165.237 31.0044C166.165 31.5754 167.029 32.0965 167.835 32.5676C169.548 31.5897 170.819 30.3906 171.647 28.9559C172.475 27.5283 172.882 25.801 172.882 23.781C172.882 22.8388 172.739 21.9395 172.453 21.0829L172.46 21.0901Z" fill="black"/>
<path d="M190.505 45.8436V38.6559H185.188V45.8436C185.188 50.1477 184.831 52.132 178.5 52.5103V52.5888H197.222V52.5103C190.855 52.1248 190.505 50.2119 190.505 45.8436ZM185.188 23.888V29.5054H190.505V15.908C187.472 17.1713 183.453 18.1349 179.52 18.7488V20.2763L182.154 20.5618C184.667 20.8044 185.18 20.9401 185.18 23.888H185.188Z" fill="black"/>
<path d="M181.611 32.2676C181.447 31.6538 181.19 31.0399 180.319 31.0399C179.627 31.0399 179.356 31.5396 179.356 32.0321C179.356 32.6531 179.755 32.9743 180.533 33.374C181.626 33.9379 182.139 34.3733 182.139 35.2655C182.139 36.2648 181.283 37.0142 180.062 37.0142C179.498 37.0142 179.006 36.8572 178.613 36.7073C178.542 36.4575 178.421 35.7651 178.356 35.2726L178.656 35.1941C178.842 35.8079 179.27 36.6573 180.227 36.6573C180.876 36.6573 181.276 36.2148 181.276 35.6081C181.276 34.9229 180.905 34.6302 180.091 34.1877C179.113 33.6595 178.556 33.2098 178.556 32.3247C178.556 31.4396 179.256 30.6902 180.512 30.6902C181.055 30.6902 181.561 30.8329 181.761 30.8686C181.797 31.2041 181.84 31.5967 181.918 32.1962L181.618 32.2605L181.611 32.2676Z" fill="black"/>
<path d="M182.839 36.8786V36.6073C183.41 36.5502 183.475 36.5074 183.475 35.865V33.9664C183.475 33.3811 183.446 33.3454 182.904 33.2597V33.0242C183.403 32.9457 183.867 32.8243 184.288 32.6602V35.865C184.288 36.4931 184.345 36.5502 184.945 36.6073V36.8786H182.839ZM183.832 31.8108C183.553 31.8108 183.303 31.5681 183.303 31.2897C183.303 30.9757 183.553 30.7544 183.839 30.7544C184.124 30.7544 184.345 30.9828 184.345 31.2897C184.345 31.5681 184.117 31.8108 183.824 31.8108H183.832Z" fill="black"/>
<path d="M188.078 36.8786V36.6074C188.592 36.5503 188.642 36.4932 188.642 35.8579V34.3162C188.642 33.6666 188.392 33.2669 187.829 33.2669C187.472 33.2669 187.136 33.4668 186.858 33.7166V35.9079C186.858 36.536 186.908 36.5574 187.429 36.6145V36.8858H185.395V36.6145C185.987 36.5431 186.044 36.5146 186.044 35.9007V33.9807C186.044 33.3883 185.98 33.3597 185.494 33.2741V33.0242C185.966 32.9529 186.451 32.8315 186.865 32.6531C186.865 32.8529 186.865 33.1527 186.865 33.374C187.05 33.2455 187.25 33.1028 187.493 32.9529C187.757 32.7887 187.986 32.6816 188.257 32.6816C188.999 32.6816 189.47 33.2312 189.47 34.1377V35.9007C189.47 36.5217 189.527 36.5503 190.048 36.6074V36.8786H188.085H188.078Z" fill="black"/>
<path d="M194.095 36.0293C193.681 36.5789 193.06 36.9858 192.497 36.9858C191.297 36.9858 190.591 36.0293 190.591 35.0229C190.591 34.2948 190.912 33.6738 191.533 33.2099C192.047 32.8173 192.611 32.6746 192.982 32.6746C193.389 32.6746 193.696 32.7959 193.838 32.9172C193.967 33.0172 193.996 33.0885 193.996 33.2028C193.996 33.4312 193.76 33.6382 193.646 33.6382C193.596 33.6382 193.553 33.6167 193.46 33.5454C193.153 33.2741 192.832 33.1385 192.518 33.1385C191.947 33.1385 191.426 33.631 191.426 34.6018C191.426 35.8865 192.304 36.3077 192.818 36.3077C193.203 36.3077 193.517 36.2077 193.924 35.8152L194.088 36.0222L194.095 36.0293Z" fill="black"/>
<path d="M198.014 36.065C197.421 36.8287 196.757 36.9858 196.443 36.9858C195.287 36.9858 194.595 36.0578 194.595 34.9801C194.595 34.3448 194.83 33.7524 195.216 33.3455C195.608 32.9101 196.122 32.6746 196.615 32.6746C197.443 32.6746 198.057 33.3812 198.057 34.1307C198.049 34.3091 198.021 34.409 197.878 34.4447C197.693 34.4804 196.486 34.5661 195.416 34.6018C195.401 35.8009 196.122 36.3077 196.786 36.3077C197.164 36.3077 197.521 36.1578 197.864 35.8437L198.014 36.065ZM196.401 33.0314C195.979 33.0314 195.58 33.4383 195.466 34.1878C195.958 34.1878 196.451 34.1878 196.972 34.1592C197.129 34.1592 197.186 34.1164 197.186 33.9736C197.193 33.4883 196.893 33.0314 196.401 33.0314Z" fill="black"/>
<path d="M256.108 26.9359C256.743 25.2228 257.321 23.4384 258.064 21.7396C258.792 20.0765 259.77 18.5347 261.211 17.3713C263.617 15.4084 266.493 15.3299 268.992 17.1643C269.577 17.5926 270.091 18.1207 270.612 18.6275C270.84 18.8488 270.919 18.8274 271.04 18.549C271.261 18.0636 271.511 17.5926 271.754 17.1215C271.782 17.0715 271.825 17.0358 271.868 16.993C271.904 17.0501 271.954 17.1072 271.961 17.1714C272.082 18.6204 272.196 20.0765 272.304 21.5254C272.403 22.8174 272.496 24.1093 272.503 25.4155C272.332 24.8159 272.189 24.2092 271.989 23.6168C271.319 21.6254 270.305 19.8409 268.642 18.4919C266.715 16.9287 263.667 16.6432 261.733 19.1771C260.326 21.0187 259.577 23.1457 259.077 25.3656C257.978 30.2763 258.042 35.2085 258.777 40.1621C259.056 42.0179 259.506 43.8309 260.184 45.5796C260.683 46.8716 261.276 48.1207 262.296 49.0914C263.967 50.6831 266.286 50.5118 267.742 48.7202C268.663 47.5996 269.156 46.272 269.548 44.9015C270.212 42.6032 270.362 40.2549 270.234 37.8851C270.176 36.8859 269.641 36.2506 268.72 35.908C268.613 35.8652 268.478 35.858 268.392 35.7938C268.314 35.7296 268.228 35.6082 268.235 35.5226C268.235 35.4512 268.363 35.3584 268.463 35.3227C268.57 35.287 268.699 35.2941 268.813 35.2941H274.081C274.238 35.2941 274.402 35.287 274.552 35.3227C274.645 35.3441 274.787 35.4726 274.773 35.5154C274.752 35.6153 274.652 35.7581 274.559 35.7795C273.388 36.065 272.989 36.9287 272.889 38.0065C272.853 38.4348 272.853 38.8702 272.853 39.3056C272.853 43.3241 272.846 47.3498 272.839 51.3683C272.839 51.4754 272.796 51.5753 272.775 51.6824C272.703 51.5967 272.61 51.5182 272.56 51.4254C271.947 50.2334 271.354 49.0343 270.74 47.8494C270.626 47.6353 270.462 47.4497 270.319 47.2499C270.191 47.4426 270.048 47.6282 269.941 47.828C269.563 48.5204 269.249 49.2484 268.813 49.898C267.171 52.3177 264.716 52.5818 262.225 51.1399C260.541 50.1621 259.456 48.606 258.57 46.9073C257.614 45.0871 256.936 43.1528 256.451 41.1542C256.415 41.0115 256.344 40.883 256.286 40.7402C256.222 40.8759 256.129 41.0043 256.101 41.1542C255.537 43.4026 254.716 45.5439 253.446 47.4997C252.254 49.3412 250.769 50.8687 248.635 51.5896C247.914 51.8323 247.136 52.0036 246.386 52.025C243.667 52.0821 240.94 52.0536 238.221 52.0607C238.142 52.0607 238.057 52.075 237.985 52.0464C237.871 51.9965 237.771 51.9179 237.664 51.8537C237.75 51.7395 237.807 51.5967 237.921 51.5254C238.064 51.4254 238.249 51.3969 238.406 51.3112C239.156 50.9187 239.534 50.2905 239.577 49.4626C239.613 48.813 239.627 48.1635 239.627 47.514C239.627 38.449 239.627 29.377 239.627 20.312C239.627 19.8766 239.606 19.4484 239.591 19.013C239.563 17.771 239.113 17.1286 237.978 16.6646C237.85 16.6147 237.764 16.4577 237.664 16.3435C237.793 16.2649 237.928 16.1222 238.057 16.1222C240.897 16.1079 243.738 16.0151 246.572 16.1293C248.977 16.2292 250.905 17.4355 252.439 19.2699C254.224 21.4041 255.251 23.8952 255.972 26.5433C256.015 26.7074 256.072 26.8716 256.094 26.9359H256.108ZM242.261 33.8166V42.5104C242.261 44.7945 242.261 47.0857 242.254 49.3698C242.254 49.7552 242.325 49.9337 242.768 49.9194C243.774 49.8837 244.788 49.9693 245.78 49.8837C246.451 49.8266 247.143 49.6553 247.764 49.3769C248.949 48.8487 249.791 47.878 250.498 46.8287C252.703 43.5739 253.838 39.948 254.145 36.0507C254.338 33.7024 254.202 31.3613 253.753 29.0558C253.139 25.8866 251.989 22.9316 250.077 20.3049C248.806 18.5633 247.2 17.4641 244.916 17.6711C244.266 17.7282 243.617 17.6711 242.967 17.6782C242.496 17.6782 242.261 17.9066 242.261 18.3706V33.8095V33.8166Z" fill="black"/>
<path d="M268.028 0.0122361C268.984 0.361985 270.905 1.58968 270.64 2.72458C270.626 2.78882 270.59 2.81737 270.526 2.82451C269.277 2.98154 268.249 1.05435 267.957 0.0764758C267.935 0.00509839 267.957 -0.0163148 268.028 0.0122361Z" fill="url(#paint0_linear_806_25206)"/>
<path d="M242.039 2.74592C241.711 1.56819 243.838 0.326223 244.723 0.0478516C244.738 0.0478516 244.759 0.0478516 244.759 0.0692648V0.090678C244.366 1.13993 243.51 2.8744 242.168 2.84585C242.104 2.84585 242.054 2.81016 242.039 2.74592Z" fill="url(#paint1_linear_806_25206)"/>
<path d="M244.531 1.79669C245.102 0.904477 246.308 0.654656 247.286 0.640381C247.371 0.640381 247.393 0.668932 247.336 0.740309C246.757 1.4755 245.665 2.41054 244.68 2.16786C244.552 2.13931 244.473 2.00369 244.502 1.87521C244.502 1.84666 244.516 1.82525 244.538 1.80383L244.531 1.79669Z" fill="url(#paint2_linear_806_25206)"/>
<path d="M265.394 0.61174C266.301 0.654567 267.85 0.925801 268.199 1.95364C268.221 2.01788 268.199 2.08211 268.135 2.11067C267.207 2.57462 265.865 1.43258 265.344 0.704531C265.294 0.640291 265.308 0.604603 265.394 0.61174Z" fill="url(#paint3_linear_806_25206)"/>
<path d="M240.226 1.39684C240.012 2.7316 239.634 4.43752 238.185 5.05137C238.114 5.07992 238.035 5.0585 237.992 5.00854C237.521 4.47321 238.071 3.38827 238.406 2.95287C238.892 2.32475 239.47 1.78228 240.127 1.33974C240.205 1.28264 240.241 1.30405 240.219 1.40398L240.226 1.39684Z" fill="url(#paint4_linear_806_25206)"/>
<path d="M272.553 1.33984C273.602 2.03221 275.023 3.39551 274.837 4.78737C274.816 4.9444 274.673 5.05147 274.523 5.03006C274.502 5.03006 274.48 5.03006 274.466 5.01578C273.103 4.51614 272.639 2.66746 272.475 1.38981C272.468 1.31843 272.496 1.29702 272.553 1.33984Z" fill="url(#paint5_linear_806_25206)"/>
<path d="M242.503 2.96725C243.667 2.69602 244.887 3.1457 245.879 3.7524C245.915 3.77382 245.929 3.82378 245.908 3.85947C245.901 3.87375 245.879 3.88802 245.858 3.89516C244.78 4.18067 243.053 4.45904 242.146 3.53113C242.104 3.48117 242.082 3.41693 242.104 3.35269C242.161 3.1457 242.296 3.01722 242.503 2.96725Z" fill="url(#paint6_linear_806_25206)"/>
<path d="M266.793 3.7738C267.607 3.27416 269.77 2.30343 270.576 3.2813C270.619 3.33126 270.619 3.40978 270.576 3.45974C269.741 4.49471 267.878 4.18065 266.815 3.90228C266.708 3.87373 266.708 3.83804 266.793 3.7738Z" fill="url(#paint7_linear_806_25206)"/>
<path d="M233.324 7.79239C233.096 6.10788 234.474 4.51616 235.68 3.52402C235.737 3.47405 235.765 3.48833 235.765 3.56685C235.751 4.99439 235.344 7.52829 233.767 8.06362C233.588 8.12786 233.396 8.02793 233.339 7.85663C233.332 7.83521 233.324 7.8138 233.324 7.79239Z" fill="url(#paint8_linear_806_25206)"/>
<path d="M279.006 8.12078C277.322 7.51407 276.943 5.10152 276.9 3.55977C276.9 3.48125 276.922 3.46697 276.986 3.51694C277.907 4.28068 280.212 6.73606 279.17 8.07082C279.134 8.12078 279.063 8.14219 279.006 8.12078Z" fill="url(#paint9_linear_806_25206)"/>
<path d="M242.397 5.2442C241.162 5.83663 239.649 6.50758 238.3 5.80808C238.157 5.7367 238.107 5.55826 238.178 5.42264C238.193 5.39409 238.207 5.37268 238.228 5.3584C239.263 4.30915 241.112 4.73028 242.382 5.12286C242.418 5.12999 242.439 5.17282 242.425 5.20851C242.418 5.22992 242.404 5.2442 242.39 5.25134L242.397 5.2442Z" fill="url(#paint10_linear_806_25206)"/>
<path d="M274.395 5.77961C273.146 6.57903 271.433 5.76533 270.248 5.23C270.219 5.21573 270.212 5.18717 270.219 5.15862C270.219 5.14435 270.234 5.13721 270.248 5.13007C271.461 4.71608 273.424 4.30209 274.438 5.32279C274.552 5.43699 274.552 5.62258 274.438 5.73678C274.424 5.75106 274.409 5.76533 274.388 5.77247L274.395 5.77961Z" fill="url(#paint11_linear_806_25206)"/>
<path d="M231.676 6.11495C231.854 7.83514 231.854 10.7902 229.998 11.6895C229.948 11.7109 229.891 11.7109 229.841 11.6752C229.606 11.5039 229.477 11.2898 229.449 11.04C229.235 9.20559 230.412 7.45684 231.604 6.09353C231.647 6.04357 231.669 6.05785 231.676 6.11495Z" fill="url(#paint12_linear_806_25206)"/>
<path d="M281.119 6.12223C282.039 7.17148 284.274 10.3264 282.903 11.6397C282.86 11.6825 282.803 11.7039 282.739 11.6897C280.897 11.3256 280.89 7.44985 280.997 6.16506C281.004 6.05799 281.047 6.04372 281.119 6.12937V6.12223Z" fill="url(#paint13_linear_806_25206)"/>
<path d="M238.678 7.74237C238.827 7.77092 238.842 7.82802 238.713 7.91367C237.571 8.69883 235.694 9.59818 234.259 9.11995C234.045 9.04857 233.881 8.92009 233.774 8.73451C233.745 8.67741 233.753 8.60603 233.788 8.56321C234.83 7.12852 237.114 7.45686 238.678 7.74951V7.74237Z" fill="url(#paint14_linear_806_25206)"/>
<path d="M278.899 8.71306C277.928 10.162 275.009 8.52034 273.902 7.90649C273.802 7.84939 273.809 7.8137 273.917 7.78515C275.401 7.42827 277.849 7.12134 278.892 8.56317C278.927 8.61313 278.927 8.6631 278.892 8.7202L278.899 8.71306Z" fill="url(#paint15_linear_806_25206)"/>
<path d="M285.223 9.56246C286.158 11.1328 287.607 13.9664 286.351 15.6795C286.229 15.8437 285.994 15.8794 285.822 15.758C285.822 15.758 285.815 15.7509 285.808 15.7437C284.174 14.4018 284.609 11.3469 285.101 9.57674C285.13 9.48395 285.173 9.47681 285.223 9.56246Z" fill="url(#paint16_linear_806_25206)"/>
<path d="M226.251 15.5653C225.152 13.8237 226.536 11.09 227.478 9.56249C227.5 9.53393 227.536 9.51966 227.571 9.54107C227.586 9.54821 227.6 9.56249 227.6 9.5839C228.064 11.4968 228.464 14.0807 227.022 15.6581C226.765 15.9365 226.451 15.8794 226.251 15.5653Z" fill="url(#paint17_linear_806_25206)"/>
<path d="M230.248 12.0537C231.212 10.3906 234.102 10.3121 235.737 10.5119C235.808 10.5191 235.816 10.5476 235.766 10.5976C234.509 11.7468 232.225 13.3242 230.434 12.5961C230.241 12.5176 230.148 12.2964 230.227 12.0965C230.227 12.0822 230.241 12.068 230.248 12.0465V12.0537Z" fill="url(#paint18_linear_806_25206)"/>
<path d="M281.49 11.1186C281.932 11.3184 282.261 11.6896 282.475 12.2106C282.496 12.2749 282.489 12.332 282.446 12.3819C282.061 12.8602 281.297 12.8316 280.762 12.7602C279.491 12.6032 277.871 11.454 276.929 10.6118C276.886 10.5761 276.893 10.5547 276.95 10.5475C278.585 10.2906 280.098 10.4833 281.49 11.1186Z" fill="url(#paint19_linear_806_25206)"/>
<path d="M227.129 15.9937C228.164 14.1451 230.833 13.6668 232.739 13.5669C232.796 13.5669 232.81 13.5883 232.775 13.6311C231.668 15.0373 229.727 16.8645 227.821 16.8074C227.514 16.8003 227.314 16.7289 227.229 16.6076C227.064 16.3649 227.029 16.165 227.122 16.0009L227.129 15.9937Z" fill="url(#paint20_linear_806_25206)"/>
<path d="M279.984 13.574C281.568 13.6596 285.394 14.2877 285.63 16.3862C285.63 16.4505 285.615 16.5004 285.565 16.5433C285.323 16.7289 285.08 16.8216 284.837 16.8216C282.91 16.8216 281.09 15.0729 279.941 13.6668C279.891 13.6025 279.905 13.574 279.984 13.5811V13.574Z" fill="url(#paint21_linear_806_25206)"/>
<path d="M223.175 20.3261C222.375 18.3918 223.089 15.9935 223.931 14.0449C223.967 13.9521 224.01 13.9521 224.053 14.0449C224.881 15.9935 225.858 19.2555 224.138 21.0328C224.088 21.0827 224.017 21.097 223.953 21.0756C223.582 20.9257 223.325 20.6759 223.182 20.3261H223.175Z" fill="url(#paint22_linear_806_25206)"/>
<path d="M288.792 14.1379C289.605 16.0936 290.683 19.3698 288.97 20.9901C288.849 21.1043 288.656 21.1043 288.527 20.9901C286.864 19.4412 287.792 15.9509 288.627 14.1379C288.685 14.0165 288.735 14.0165 288.784 14.1379H288.792Z" fill="url(#paint23_linear_806_25206)"/>
<path d="M282.354 17.5854C284.053 17.978 288.342 19.2914 288.121 21.6183C288.121 21.6825 288.085 21.7253 288.028 21.7539C286.908 22.3606 285.337 21.2899 284.502 20.4477C283.66 19.6054 282.932 18.6704 282.304 17.6497C282.29 17.6283 282.297 17.5997 282.318 17.5854C282.325 17.5854 282.34 17.5854 282.354 17.5854Z" fill="url(#paint24_linear_806_25206)"/>
<path d="M224.581 21.6254C224.381 20.6047 225.602 19.5269 226.401 19.0701C227.614 18.3706 228.921 17.8852 230.312 17.6211C230.37 17.614 230.384 17.6282 230.355 17.6782C229.656 18.8845 228.785 19.9409 227.736 20.8545C227.001 21.4969 225.637 22.2749 224.688 21.7753C224.631 21.7467 224.595 21.6968 224.581 21.6325V21.6254Z" fill="url(#paint25_linear_806_25206)"/>
<path d="M220.298 19.3055C221.497 21.2256 223.346 24.7873 221.954 26.9714C221.84 27.157 221.683 27.257 221.483 27.2855C221.419 27.2855 221.361 27.2784 221.311 27.2427C220.519 26.7002 220.034 26.0078 219.87 25.1585C219.506 23.2884 219.613 21.3469 220.191 19.3198C220.212 19.2484 220.248 19.2413 220.284 19.3055H220.298Z" fill="url(#paint26_linear_806_25206)"/>
<path d="M290.926 27.2071C289.177 25.0087 291.183 21.2471 292.418 19.2771C292.432 19.2485 292.468 19.2414 292.496 19.2557C292.511 19.2557 292.518 19.2771 292.518 19.2914C292.946 20.983 293.082 22.6889 292.925 24.4091C292.839 25.337 292.204 27.1928 291.097 27.2714C291.033 27.2714 290.969 27.2499 290.933 27.2L290.926 27.2071Z" fill="url(#paint27_linear_806_25206)"/>
<path d="M228.192 22.1036C227.307 24.3377 225.544 27.8852 222.882 28.0279C222.518 28.0493 222.347 27.8566 222.368 27.464C222.418 26.5076 222.782 25.701 223.474 25.0372C224.845 23.7167 226.401 22.7246 228.15 22.0608C228.207 22.0393 228.221 22.0608 228.2 22.1107L228.192 22.1036Z" fill="url(#paint28_linear_806_25206)"/>
<path d="M284.566 22.0322C286.194 22.7603 287.564 23.5668 288.663 24.4591C289.52 25.1443 290.619 26.6218 290.291 27.7496C290.276 27.8067 290.234 27.8566 290.184 27.8923C289.334 28.392 287.878 27.3855 287.293 26.7431C286.044 25.3656 285.123 23.8167 284.509 22.0893C284.488 22.0251 284.509 22.0108 284.566 22.0322Z" fill="url(#paint29_linear_806_25206)"/>
<path d="M217.757 25.651C219.256 27.3641 221.626 30.7688 220.462 33.1242C220.327 33.3955 220.105 33.474 219.799 33.3669C217.393 32.5032 217.493 27.5996 217.65 25.6938C217.657 25.5868 217.7 25.5796 217.764 25.6581L217.757 25.651Z" fill="url(#paint30_linear_806_25206)"/>
<path d="M292.318 33.8879C290.355 31.8037 293.588 27.1642 295.016 25.5582C295.03 25.5439 295.052 25.5368 295.073 25.5582C295.073 25.5582 295.087 25.5725 295.087 25.5867C295.301 27.4711 295.201 29.3483 294.78 31.2113C294.566 32.1463 293.624 33.8665 292.468 33.9522C292.411 33.9522 292.353 33.9379 292.318 33.8879Z" fill="url(#paint31_linear_806_25206)"/>
<path d="M221.419 32.2107C222.425 30.0908 224.566 28.5419 226.529 27.3641C226.558 27.3499 226.586 27.3641 226.601 27.3856C226.601 27.3927 226.608 27.4141 226.601 27.4212C226.101 29.5626 224.359 34.7945 221.433 34.509C221.369 34.509 221.319 34.4733 221.283 34.4162C220.905 33.8167 221.126 32.8031 221.411 32.2107H221.419Z" fill="url(#paint32_linear_806_25206)"/>
<path d="M290.99 34.5302C288.085 34.2162 286.636 29.7265 286.08 27.4567C286.058 27.3711 286.08 27.3568 286.158 27.3925C288.364 28.6202 291.911 31.2469 291.554 34.1305C291.519 34.4303 291.326 34.5659 290.99 34.5302Z" fill="url(#paint33_linear_806_25206)"/>
<path d="M215.987 32.3747C218.164 34.152 221.633 37.4425 220.948 40.6188C220.905 40.8329 220.791 41.0042 220.612 41.1256C220.555 41.1613 220.498 41.1827 220.434 41.1684C217.136 40.783 216.066 34.9729 215.901 32.4033C215.901 32.3248 215.923 32.3105 215.98 32.3604L215.987 32.3747Z" fill="url(#paint34_linear_806_25206)"/>
<path d="M292.197 37.5925C293.317 35.5368 294.823 33.8095 296.715 32.4176C296.772 32.3748 296.8 32.3891 296.793 32.4605C296.615 34.8159 295.451 41.1685 292.175 41.1471C292.111 41.1471 292.054 41.1257 292.004 41.0757C291.269 40.312 291.754 38.3991 292.197 37.5925Z" fill="url(#paint35_linear_806_25206)"/>
<path d="M221.597 41.1043C220.648 37.928 224.031 34.3877 226.158 32.539C226.237 32.4747 226.273 32.489 226.265 32.5961C226.151 35.08 225.437 40.6475 222.311 41.4897C221.969 41.5825 221.69 41.4326 221.597 41.1043Z" fill="url(#paint36_linear_806_25206)"/>
<path d="M287.757 38.8987C286.929 36.9144 286.501 34.8087 286.451 32.5818C286.451 32.5247 286.472 32.5104 286.515 32.5532C288.149 33.9308 289.484 35.494 290.519 37.2499C291.097 38.2277 291.733 40.4404 290.84 41.4254C290.805 41.4683 290.748 41.4897 290.691 41.4968C289.399 41.5182 288.185 39.9551 287.75 38.8987H287.757Z" fill="url(#paint37_linear_806_25206)"/>
<path d="M223.353 48.5773C220.976 46.0577 224.566 40.7329 226.244 38.7201C226.294 38.663 226.322 38.6701 226.329 38.7486C226.665 41.2825 226.879 47.7993 223.517 48.6273C223.46 48.6415 223.396 48.6273 223.353 48.5844V48.5773Z" fill="url(#paint38_linear_806_25206)"/>
<path d="M286.444 38.6845C288.242 40.9186 291.497 45.6367 289.463 48.5061C289.427 48.5632 289.356 48.5989 289.285 48.5989C287.664 48.5703 286.736 46.1292 286.479 44.773C286.101 42.7602 286.073 40.7331 286.387 38.6917C286.394 38.6488 286.408 38.6417 286.437 38.6774L286.444 38.6845Z" fill="url(#paint39_linear_806_25206)"/>
<path d="M215.744 40.3048C218.235 41.6681 222.725 44.7017 222.247 48.0635C222.154 48.6988 221.476 48.606 220.998 48.4775C218.071 47.6781 216.337 42.9244 215.694 40.3476C215.68 40.2977 215.694 40.2834 215.744 40.3048Z" fill="url(#paint40_linear_806_25206)"/>
<path d="M297 40.4332C296.258 43.0456 294.459 48.3132 291.04 48.5631C290.648 48.5916 290.441 48.3918 290.419 47.9564C290.355 46.7215 290.712 45.6295 291.497 44.6659C292.604 43.3097 293.896 42.1748 295.387 41.2612C295.737 41.0399 296.358 40.5831 296.886 40.3333C296.929 40.3118 296.979 40.3333 296.993 40.3689C297 40.3904 297 40.4046 296.993 40.426L297 40.4332Z" fill="url(#paint41_linear_806_25206)"/>
<path d="M226.9 54.9372C224.331 52.0892 226.222 47.4996 227.207 44.3019C227.243 44.1806 227.293 44.1734 227.343 44.2948C228.528 46.9358 230.619 52.96 227.735 55.1727C227.479 55.3654 227.107 55.1584 226.908 54.9372H226.9Z" fill="url(#paint42_linear_806_25206)"/>
<path d="M283.517 50.9899C283.731 48.6773 284.373 46.4003 285.337 44.2804C285.351 44.2447 285.394 44.2305 285.43 44.2447C285.444 44.2447 285.458 44.2661 285.466 44.2804C286.6 47.1641 288.456 53.2026 285.358 55.2368C285.309 55.2654 285.251 55.2725 285.194 55.2511C283.795 54.6587 283.403 52.3532 283.531 50.9828L283.517 50.9899Z" fill="url(#paint43_linear_806_25206)"/>
<path d="M217.057 49.2127C220.048 49.8551 225.466 51.4611 226.108 55.0728C226.301 56.1791 224.259 55.8865 223.71 55.708C220.855 54.7872 218.506 51.7466 217.008 49.2912C216.965 49.2198 216.986 49.1984 217.065 49.2127H217.057Z" fill="url(#paint44_linear_806_25206)"/>
<path d="M286.872 54.1162C287.493 52.9242 288.399 52.0106 289.598 51.3753C291.504 50.3689 293.524 49.648 295.658 49.2197C295.68 49.2197 295.701 49.2269 295.708 49.2554C295.708 49.2626 295.708 49.2768 295.708 49.284C294.088 51.8821 290.619 56.543 287.036 55.7793C286.301 55.6223 286.622 54.623 286.879 54.1162H286.872Z" fill="url(#paint45_linear_806_25206)"/>
<path d="M230.683 50.1976C232.632 52.967 236.151 58.9271 233.36 61.825C233.317 61.8678 233.267 61.8892 233.21 61.8892C232.461 61.8749 231.618 60.9185 231.269 60.3118C229.656 57.4995 229.998 53.274 230.591 50.219C230.591 50.1905 230.626 50.1691 230.655 50.1762C230.669 50.1762 230.676 50.1833 230.683 50.1976Z" fill="url(#paint46_linear_806_25206)"/>
<path d="M279.37 61.8679C276.444 59.0128 280.184 52.7887 281.99 50.2334C282.011 50.1977 282.054 50.1906 282.09 50.212C282.104 50.2191 282.118 50.2405 282.118 50.2548C282.546 52.5532 282.646 54.8801 282.418 57.2284C282.254 58.9486 281.39 61.3611 279.549 61.9036C279.484 61.925 279.42 61.9036 279.377 61.8608L279.37 61.8679Z" fill="url(#paint47_linear_806_25206)"/>
<path d="M235.166 55.5938C237.736 57.7065 243.596 63.224 241.319 67.0427C241.283 67.0998 241.226 67.1355 241.162 67.1355C239.17 67.1212 237.621 65.0227 236.936 63.3739C235.908 60.89 235.295 58.3132 235.095 55.6437C235.095 55.6223 235.109 55.6009 235.13 55.6009C235.145 55.6009 235.152 55.6009 235.166 55.608V55.5938Z" fill="url(#paint48_linear_806_25206)"/>
<path d="M271.619 62.3675C272.982 59.748 275.23 57.4568 277.514 55.6224C277.564 55.5796 277.593 55.5938 277.586 55.6581C277.422 57.9493 276.95 60.1834 276.18 62.3461C275.466 64.3376 273.938 67.0785 271.576 67.1284C271.519 67.1284 271.462 67.107 271.426 67.0642C270.427 65.9007 270.976 63.6024 271.619 62.3747V62.3675Z" fill="url(#paint49_linear_806_25206)"/>
<path d="M231.461 62.7816C228.207 64.6873 222.818 60.0621 220.798 57.8137C220.748 57.7566 220.762 57.7352 220.833 57.728C224.152 57.7138 230.177 58.2705 231.711 61.925C231.868 62.2962 231.825 62.5603 231.461 62.7816Z" fill="url(#paint50_linear_806_25206)"/>
<path d="M280.904 62.396C281.426 58.4417 288.913 57.6851 291.861 57.7422C291.918 57.7422 291.925 57.7636 291.882 57.8064C290.076 59.7836 288.156 61.3039 286.136 62.3674C284.759 63.0883 282.211 63.7307 280.954 62.5601C280.912 62.5173 280.89 62.4602 280.897 62.4031L280.904 62.396Z" fill="url(#paint51_linear_806_25206)"/>
<path d="M241.311 60.6615C245.052 62.0962 251.418 64.9513 251.447 69.5123C251.447 69.9834 251.211 70.1833 250.747 70.2332C246.315 70.6972 242.675 64.0305 241.233 60.74C241.197 60.6544 241.219 60.6258 241.304 60.6615H241.311Z" fill="url(#paint52_linear_806_25206)"/>
<path d="M261.447 68.1562C262.775 64.2804 267.886 61.9607 271.419 60.6616C271.44 60.6545 271.462 60.6616 271.469 60.683C271.469 60.6902 271.469 60.7044 271.469 60.7116C270.048 63.9164 266.13 71.1327 261.654 70.1905C260.983 70.0477 261.29 68.5916 261.447 68.1491V68.1562Z" fill="url(#paint53_linear_806_25206)"/>
<path d="M239.463 68.7416C236.051 71.1898 230.184 68.3062 227.036 66.4433C226.943 66.3933 226.95 66.3505 227.05 66.3219C228.885 65.8365 230.791 65.5225 232.768 65.3869C235.023 65.2298 238.863 65.551 239.87 68.0207C239.891 68.0778 239.891 68.1349 239.87 68.192C239.763 68.4347 239.634 68.6203 239.463 68.7345V68.7416Z" fill="url(#paint54_linear_806_25206)"/>
<path d="M272.946 67.7209C275.287 64.1378 282.311 65.4083 285.658 66.3362C285.68 66.3362 285.694 66.3648 285.687 66.3933C285.687 66.4005 285.68 66.4147 285.665 66.4219C282.817 68.1564 279.034 69.9194 275.637 69.6481C274.944 69.591 272.225 68.8202 272.939 67.7209H272.946Z" fill="url(#paint55_linear_806_25206)"/>
<path d="M236.865 74.1376C239.805 72.1818 246.536 68.3417 250.062 71.2468C250.847 71.8963 249.32 73.2311 248.835 73.5523C247.743 74.2589 246.586 74.68 245.351 74.8157C242.589 75.1012 239.77 74.9156 236.886 74.2446C236.8 74.2232 236.793 74.1875 236.865 74.1447V74.1376Z" fill="url(#paint56_linear_806_25206)"/>
<path d="M262.939 70.9685C266.701 68.6915 272.632 72.0463 275.837 74.159C275.866 74.1805 275.873 74.2161 275.851 74.2447C275.837 74.259 275.83 74.2661 275.816 74.2732C273.553 74.7515 271.255 74.9727 268.935 74.9513C266.843 74.9299 263.039 74.1233 262.368 71.7108C262.354 71.6466 262.368 71.5895 262.389 71.5395C262.539 71.2825 262.725 71.0969 262.932 70.9685H262.939Z" fill="url(#paint57_linear_806_25206)"/>
<path d="M256.144 75.3439C254.852 76.6787 253.81 78.1776 253.01 79.8407C252.967 79.9264 252.903 79.9478 252.818 79.9121L251.64 79.4338C251.583 79.4124 251.554 79.3482 251.576 79.2911C251.576 79.2911 251.576 79.2768 251.583 79.2697C252.696 77.5495 253.995 75.9863 255.459 74.5588C255.508 74.5159 255.508 74.4374 255.459 74.3946C254.109 73.1526 252.603 72.1034 250.933 71.2469C250.819 71.1898 250.74 71.1327 250.683 71.0827C250.591 70.9899 250.591 70.84 250.683 70.7472C250.733 70.6973 250.812 70.6758 250.883 70.683C251.083 70.7115 251.29 70.7686 251.49 70.8471C253.21 71.5538 254.752 72.5317 256.101 73.7808C256.158 73.8379 256.251 73.8379 256.308 73.7808C257.607 72.5816 259.092 71.618 260.762 70.8971C261.04 70.7758 261.297 70.7044 261.526 70.6901C261.668 70.683 261.79 70.79 261.797 70.9257C261.797 71.0256 261.747 71.1255 261.661 71.1683C259.948 72.0177 258.385 73.0813 256.979 74.3661C256.922 74.4232 256.915 74.5159 256.972 74.5731C258.428 76.0006 259.705 77.5638 260.819 79.2697C260.869 79.3482 260.855 79.4053 260.762 79.441L259.584 79.9121C259.498 79.9406 259.441 79.9192 259.406 79.8407C258.606 78.1705 257.557 76.6715 256.265 75.3439C256.215 75.294 256.172 75.294 256.122 75.3439H256.108H256.144Z" fill="url(#paint58_linear_806_25206)"/>
<path d="M145.066 15.708L145.066 62.1033" stroke="#8E8E8E" stroke-width="2" stroke-linecap="round"/>
<path d="M208.592 15.708L208.592 62.1033" stroke="#8E8E8E" stroke-width="2" stroke-linecap="round"/>
<path d="M72.7346 40.3406C72.4327 42.3505 72.2802 44.6197 72.2802 47.1512L72.0728 47.3586L57.07 47.2335C54.566 47.2335 52.7971 47.2762 51.7662 47.3586L51.5588 47.1512V46.5747L51.6625 46.3277C52.6812 45.6811 53.2301 45.2754 53.3125 45.1107C53.4375 44.8485 53.5107 43.9335 53.5382 42.3658L53.5992 37.7421V27.2777C53.5992 24.002 53.5107 21.8701 53.3308 20.8789C53.2606 20.4793 53.0289 20.2262 52.6293 20.1164C52.4219 20.0615 51.6167 19.9913 50.2137 19.909L50.0063 19.7016V18.2986L50.2137 18.1125C51.6045 18.1949 53.7486 18.2376 56.6522 18.2376C59.2386 18.2376 64.1581 18.1979 71.4079 18.1125L71.6336 18.2772L71.3652 20.5678C71.2828 21.2967 71.2218 21.9158 71.1791 22.4252L71.0358 24.3436L70.8284 24.5693H69.6328L69.4254 24.3619C69.4102 22.4923 69.3004 21.4248 69.096 21.1625C68.9435 20.9704 68.2054 20.8179 66.8787 20.7081C65.552 20.5983 64.3838 20.5434 63.3804 20.5434C62.1848 20.5434 60.974 20.5922 59.7479 20.6867C59.5954 22.1324 59.5222 24.1332 59.5222 26.6921V30.9651C60.608 31.0352 61.4894 31.0688 62.1635 31.0688L64.8657 31.0474C66.1315 31.0352 66.8482 30.9315 67.0129 30.7394C67.2325 30.4923 67.3758 29.5621 67.446 27.9548L67.6534 27.7474H68.9344L69.1418 27.9548C69.0869 29.495 69.0594 30.9071 69.0594 32.185C69.0594 33.5758 69.0869 35.0947 69.1418 36.7447L68.9344 36.9308H67.5527L67.3453 36.7234C67.3453 35.1404 67.2355 34.2011 67.0159 33.9052C66.7963 33.6094 66.1284 33.4142 65.0152 33.3166C64.1764 33.2464 63.2828 33.2129 62.3312 33.2129C61.3278 33.2129 60.3914 33.2464 59.5253 33.3166V39.6117C59.5253 41.4142 59.5588 43.1618 59.629 44.8546H62.4349C66.4517 44.8546 68.9161 44.6959 69.8219 44.3788C69.9744 44.3239 70.0842 44.2476 70.1513 44.1531C70.2885 43.9609 70.4197 43.5492 70.5447 42.9148L71.0388 40.3559L71.2462 40.1271H72.5059L72.7316 40.3345L72.7346 40.3406Z" fill="#317B3C"/>
<path d="M107.488 36.8119L107.281 37.0376C106.427 37.245 105.933 37.5287 105.796 37.8947C105.658 38.2607 105.588 39.6514 105.588 42.0731C105.588 43.2412 105.643 44.3972 105.753 45.5409C101.157 47.2733 96.9873 48.1425 93.248 48.1425C88.3224 48.1425 84.3361 46.7639 81.2892 44.0037C78.2423 41.2465 76.7173 37.486 76.7173 32.725C76.7173 26.5214 79.4073 22.0959 84.7875 19.4546C87.2488 18.2438 90.3811 17.6399 94.1783 17.6399C96.3803 17.6399 98.6068 17.8808 100.864 18.3627C102.721 18.7623 104.185 19.2167 105.259 19.7261L105.445 20.0982C105.088 21.309 104.792 23.4135 104.557 26.4146L104.332 26.622H103.093L102.886 26.4146C102.886 26.1523 102.858 25.6125 102.804 24.7951C102.749 23.9777 102.678 23.4013 102.596 23.0719C101.989 22.2453 100.958 21.5438 99.5004 20.9674C97.9328 20.3635 96.24 20.0585 94.4223 20.0585C89.5515 20.0585 86.1874 22.0257 84.33 25.9602C83.476 27.7749 83.052 29.8824 83.052 32.2766C83.052 36.1013 84.0707 39.2732 86.105 41.7894C88.2248 44.4032 90.9819 45.7117 94.3796 45.7117C96.1821 45.7117 97.9236 45.3274 99.6011 44.5557C99.6956 43.592 99.7444 42.2713 99.7444 40.5939C99.7444 39.2305 99.6956 38.407 99.6011 38.1173C99.5187 37.8977 99.2565 37.7391 98.8173 37.6415C98.4452 37.5592 97.2831 37.4555 95.3281 37.3335L95.1024 37.1261V35.8268L95.3281 35.6194C97.3228 35.6743 99.4151 35.6956 101.602 35.6804C102.868 35.6682 104.759 35.6468 107.278 35.6194L107.485 35.8268V36.818L107.488 36.8119Z" fill="#317B3C"/>
<path d="M137.351 19.0824C135.176 22.0409 132.797 25.6642 130.211 29.9585C128.753 32.3802 127.948 33.9265 127.795 34.6006C127.713 34.9574 127.67 35.4759 127.67 36.15V38.1934C127.67 42.2255 127.795 44.4672 128.042 44.9216C128.152 45.1138 128.311 45.2388 128.518 45.2937C128.863 45.3913 129.707 45.4798 131.056 45.5621L131.263 45.7695V47.1511L131.056 47.3585C129.692 47.2762 127.576 47.2335 124.699 47.2335C121.823 47.2335 119.637 47.2762 118.343 47.3585L118.157 47.1725V45.7695L118.365 45.5621C119.713 45.4798 120.558 45.3913 120.902 45.2937C121.11 45.2388 121.265 45.1138 121.378 44.9216C121.625 44.4672 121.75 42.2255 121.75 38.1934V35.7596C121.75 35.238 120.67 33.1458 118.511 29.4858C116.309 25.7588 114.555 23.2273 113.25 21.8914C112.616 21.2448 112.192 20.8758 111.969 20.7873C111.749 20.6989 111.234 20.6531 110.42 20.6531L110.194 20.4274V19.2715L110.401 19.0458C113.759 18.384 115.913 17.9173 116.861 17.6428C117.578 17.9875 118.215 18.4328 118.779 18.9848C119.948 20.1255 121.518 22.6722 123.486 26.6219L126.188 32.0295C126.999 30.721 128.548 28.095 130.83 24.1453L133.12 20.037C133.367 19.5826 133.706 18.9574 134.133 18.1583H137.146L137.354 18.3657V19.0885L137.351 19.0824Z" fill="#317B3C"/>
<path d="M48.9636 50.1707L49.0368 50.1067C50.5526 50.1555 51.4249 50.1799 51.6567 50.1799C51.8641 50.1799 52.7395 50.1555 54.2858 50.1067L54.359 50.1707V50.6282L54.2858 50.6923C53.8649 50.7045 53.5386 50.7228 53.3098 50.7472C53.0811 50.7716 52.9133 50.8173 52.8096 50.8844C52.7059 50.9515 52.6358 51.1101 52.6022 51.3572C52.5687 51.6042 52.5504 51.9489 52.5504 52.388L52.5321 54.4956V58.5459C52.5321 59.5585 52.5382 60.2691 52.5504 60.6717L52.5961 62.2577H54.4657C55.9572 62.2577 56.8844 62.2394 57.2564 62.2028C57.6255 62.1662 57.9823 62.0778 58.3239 61.9375C58.391 61.785 58.4886 61.4342 58.6137 60.8822C58.7387 60.3332 58.8058 60.016 58.8119 59.9306L58.8943 59.8574H59.3426L59.4067 59.9306C59.3579 60.1746 59.306 60.6473 59.2542 61.3519C59.2023 62.0534 59.1749 62.6237 59.1749 63.0568L59.1017 63.13C57.9427 63.0934 56.4177 63.0751 54.5298 63.0751L51.855 63.0568C51.245 63.0568 50.6197 63.0812 49.9854 63.13L49.9122 63.0568V62.7548L49.9854 62.6633C50.3635 62.4682 50.5709 62.3492 50.6075 62.3065C50.6441 62.2638 50.6807 61.8704 50.7234 61.1231C50.7631 60.3789 50.7844 59.4792 50.7844 58.43V54.5017L50.7661 52.7144C50.76 52.019 50.7448 51.5707 50.7143 51.3663C50.6868 51.165 50.6441 51.0308 50.5862 50.9637C50.5282 50.8966 50.4154 50.8417 50.2507 50.799C50.086 50.7563 49.6804 50.7228 49.0307 50.6984L48.9575 50.6343V50.1768L48.9636 50.1707Z" fill="#9DAF4C"/>
<path d="M62.0264 56.841L61.6696 56.7496L61.5964 56.658V55.5235C62.6821 54.7183 63.7405 54.3157 64.7653 54.3157C65.4667 54.3157 66.0493 54.4468 66.5159 54.7091C66.9795 54.9714 67.315 55.3008 67.5224 55.6943C67.7298 56.0877 67.8335 56.5483 67.8335 57.0728L67.7878 58.915V61.6447C67.7878 62.0168 67.8122 62.2425 67.8671 62.3218C67.9189 62.4011 67.9799 62.456 68.047 62.4835C68.1141 62.5109 68.2392 62.5353 68.4222 62.5506L68.9437 62.5963L69.0169 62.6786V63.0446L68.9437 63.1178C68.4984 63.0812 68.0836 63.0629 67.6993 63.0629C67.315 63.0629 66.8941 63.0812 66.3787 63.1178L66.2414 62.9897L66.278 61.5136L64.2803 63.0721C63.9448 63.2124 63.5788 63.2825 63.1823 63.2825C62.6943 63.2825 62.2734 63.1941 61.9227 63.0172C61.572 62.8403 61.3036 62.5933 61.1175 62.2761C60.9315 61.9589 60.8369 61.5746 60.8369 61.1201C60.8369 60.2234 61.1175 59.5219 61.6787 59.0187C62.2399 58.5155 63.774 58.0854 66.278 57.7316C66.278 56.8288 66.0767 56.1914 65.6741 55.8224C65.2715 55.4533 64.7317 55.2673 64.0516 55.2673C63.6978 55.2673 63.3745 55.3191 63.0847 55.4228C62.795 55.5265 62.6272 55.6119 62.5845 55.676C62.5418 55.74 62.3771 56.1152 62.0904 56.7983L62.0264 56.8441V56.841ZM66.278 58.2898C64.567 58.5765 63.5026 58.8845 63.0817 59.2139C62.6608 59.5433 62.4503 60.0526 62.4503 60.745C62.4503 61.6966 62.9231 62.1754 63.8716 62.1754C64.6829 62.1754 65.4881 61.7057 66.2811 60.7663V58.2928L66.278 58.2898Z" fill="#9DAF4C"/>
<path d="M72.5978 54.3221L72.7717 54.4411C72.7351 54.8498 72.7107 55.3866 72.6985 56.0545C73.1865 55.6519 73.6501 55.2432 74.0923 54.8284C74.2204 54.7125 74.3424 54.6271 74.4552 54.5722C74.5681 54.5173 74.7572 54.4594 75.0195 54.3984C75.2818 54.3374 75.5502 54.3069 75.8247 54.3069C76.2883 54.3069 76.7397 54.4014 77.1758 54.5905C77.6119 54.7796 77.9413 55.0053 78.164 55.2646C78.3866 55.5238 78.5422 55.8319 78.6276 56.1856C78.713 56.5394 78.7557 56.9756 78.7557 57.4941V59.1075C78.7557 59.2112 78.7709 59.9706 78.8014 61.3889C78.8136 61.9684 78.8777 62.313 78.9936 62.4228C79.1095 62.5326 79.4877 62.5875 80.1282 62.5875L80.2014 62.6607V63.0542L80.1282 63.1273C79.3535 63.0786 78.8258 63.0542 78.5513 63.0542C78.3927 63.0542 77.9474 63.0786 77.2124 63.1273L77.1026 63.0267C77.1819 62.2337 77.2216 61.1967 77.2216 59.9218V58.7232C77.2216 58.0034 77.2033 57.4819 77.1697 57.1647C77.1362 56.8475 77.0325 56.5577 76.8617 56.2985C76.6909 56.0392 76.4621 55.838 76.1754 55.6946C75.8887 55.5513 75.5471 55.4781 75.1506 55.4781C74.8334 55.4781 74.562 55.5086 74.3363 55.5757C74.1106 55.6397 73.8575 55.7708 73.5769 55.9691C73.2963 56.1673 73.0889 56.3534 72.9547 56.5272C72.8205 56.7011 72.7381 56.8627 72.7107 57.0122C72.6832 57.1616 72.668 57.4819 72.668 57.9699V59.565C72.668 59.6992 72.6802 60.1323 72.7046 60.8612C72.729 61.5902 72.7564 62.0172 72.7839 62.1392C72.8113 62.2612 72.854 62.3496 72.9089 62.4045C72.9638 62.4594 73.0309 62.496 73.1102 62.5113C73.1895 62.5265 73.5189 62.5509 74.0984 62.5875L74.1807 62.6607V63.045L74.1075 63.1273C73.3451 63.0786 72.607 63.0542 71.8994 63.0542C71.1918 63.0542 70.4629 63.0786 69.7004 63.1273L69.618 63.045V62.6607L69.7004 62.5875C70.2921 62.5509 70.6276 62.5235 70.7038 62.5052C70.78 62.4869 70.8471 62.4472 70.9051 62.3893C70.963 62.3313 71.0027 62.2429 71.024 62.1239C71.0454 62.005 71.0698 61.6115 71.0972 60.9405C71.1247 60.2726 71.1399 59.7663 71.1399 59.4247V57.6191C71.1399 57.3751 71.1277 57.0427 71.1033 56.6218C71.0789 56.2009 71.0576 55.9417 71.0423 55.8441C71.0271 55.7465 70.9783 55.6733 70.899 55.6275C70.8197 55.5818 70.6611 55.5574 70.4232 55.5574L69.6546 55.5482L69.5723 55.475V55.0816L69.6455 55.0084C70.8105 54.8681 71.7957 54.6393 72.5948 54.3221H72.5978Z" fill="#9DAF4C"/>
<path d="M86.551 50.6284V50.2441L86.6242 50.1617C87.7893 50.0275 88.7744 49.8018 89.5735 49.4846L89.7474 49.5944C89.6803 50.2959 89.6467 51.705 89.6467 53.8186V59.8179C89.6467 60.434 89.6559 60.9738 89.6772 61.4343C89.6986 61.8949 89.7382 62.1694 89.7931 62.2548C89.848 62.3402 89.9395 62.4103 90.0646 62.4652C90.1896 62.5201 90.5465 62.572 91.132 62.6208L91.2144 62.694V63.0417L91.132 63.124C90.4733 63.0813 89.9609 63.06 89.5918 63.06C89.2624 63.06 88.7927 63.0813 88.1797 63.124L88.079 63.0234C88.0973 62.4256 88.1065 62.0077 88.1065 61.7668C88.1065 61.7363 88.1065 61.6204 88.1156 61.4191C87.7801 61.6631 87.4446 61.9345 87.1092 62.2334C86.6151 62.6726 86.2918 62.9471 86.1393 63.0569C85.8587 63.1972 85.4591 63.2674 84.9406 63.2674C84.0988 63.2674 83.3821 63.06 82.7935 62.6452C82.2048 62.2304 81.7839 61.6997 81.5338 61.0561C81.2837 60.4126 81.1587 59.7508 81.1587 59.0737C81.1587 58.3966 81.2898 57.7195 81.5491 57.082C81.8083 56.4446 82.1774 55.978 82.6562 55.6852C83.1351 55.3924 83.6566 55.0874 84.2239 54.7732C84.7881 54.4591 85.3493 54.3005 85.9044 54.3005C86.6791 54.3005 87.4202 54.4926 88.1217 54.8769L88.0851 52.8335C88.0729 52.1259 88.0546 51.6318 88.0302 51.3542C88.0058 51.0767 87.9753 50.912 87.9387 50.8601C87.9021 50.8083 87.8381 50.7717 87.7496 50.7443C87.6612 50.7199 87.2891 50.7076 86.6364 50.7076L86.5541 50.6253L86.551 50.6284ZM88.1156 56.4477C87.7374 56.0207 87.3165 55.6943 86.856 55.4686C86.3955 55.2429 85.9319 55.1301 85.4683 55.1301C84.9559 55.1301 84.477 55.2704 84.0348 55.5479C83.5926 55.8255 83.2723 56.2372 83.0771 56.7862C82.8819 57.3322 82.7843 57.9269 82.7843 58.5674C82.7843 59.6349 83.0558 60.4949 83.5956 61.1415C84.1354 61.7881 84.8156 62.1114 85.633 62.1114C86.0783 62.1114 86.4748 62.0108 86.8194 61.8034C87.1641 61.596 87.4477 61.3215 87.6703 60.9738C87.893 60.6261 88.0241 60.2784 88.0607 59.9307C88.0973 59.583 88.1156 58.9456 88.1156 58.0153V56.4477Z" fill="#9DAF4C"/>
<path d="M92.7704 60.3582H93.1638L93.2462 60.4406C93.2584 60.9529 93.2889 61.3921 93.3377 61.7612C93.5267 62.0479 93.8531 62.2827 94.3167 62.4627C94.7803 62.6426 95.2378 62.7341 95.6922 62.7341C96.3388 62.7341 96.8573 62.5603 97.2446 62.2126C97.632 61.8649 97.8272 61.4501 97.8272 60.9682C97.8272 60.7059 97.757 60.4772 97.6167 60.285C97.4764 60.0929 97.2629 59.9343 96.9793 59.8092C96.6957 59.6842 96.1863 59.5347 95.4543 59.3639C94.826 59.2175 94.3868 59.1016 94.1337 59.0193C93.8836 58.9369 93.6426 58.7966 93.4109 58.6014C93.1791 58.4062 93.0022 58.1653 92.8802 57.8816C92.7582 57.598 92.6972 57.2838 92.6972 56.9422C92.6972 56.1249 93.0235 55.4691 93.6731 54.9781C94.3228 54.487 95.1341 54.24 96.104 54.24C96.5127 54.24 96.958 54.2979 97.4429 54.4108C97.9248 54.5236 98.2908 54.6334 98.5409 54.7371L98.6232 54.8652C98.5744 55.1092 98.5439 55.7497 98.5317 56.7897L98.4494 56.8721H98.0834L98.001 56.7897C97.9766 56.4177 97.9431 56.1554 97.9004 56.0059C97.8577 55.8565 97.7479 55.6948 97.571 55.521C97.3941 55.3471 97.144 55.2007 96.8207 55.0818C96.4974 54.9628 96.1558 54.9018 95.7959 54.9018C95.436 54.9018 95.1097 54.9567 94.8565 55.0665C94.6034 55.1763 94.399 55.3441 94.2435 55.5667C94.0879 55.7894 94.0086 56.0608 94.0086 56.378C94.0086 56.6098 94.0544 56.8172 94.152 57.0002C94.2465 57.1832 94.3929 57.3326 94.5881 57.4455C94.7833 57.5583 94.9877 57.6407 95.2012 57.6895L96.1985 57.9457C97.0525 58.1531 97.6655 58.333 98.0346 58.4855C98.4036 58.638 98.6903 58.8698 98.8916 59.1779C99.0929 59.4859 99.1936 59.8611 99.1936 60.3002C99.1936 61.142 98.8459 61.8679 98.1505 62.4718C97.4551 63.0757 96.5584 63.3777 95.4665 63.3777C95.0822 63.3777 94.6034 63.335 94.033 63.2496C93.4627 63.1642 92.9747 63.0696 92.5721 62.9659L92.5264 62.847L92.6179 62.2339C92.6484 62.0448 92.6667 61.8527 92.6728 61.6605C92.6789 61.4684 92.685 61.0628 92.6911 60.4467L92.7734 60.3643L92.7704 60.3582Z" fill="#9DAF4C"/>
<path d="M107.748 62.0723L107.382 62.6853C106.596 63.1184 105.714 63.335 104.744 63.335C103.399 63.335 102.362 62.9354 101.63 62.1363C100.898 61.3372 100.532 60.3033 100.532 59.0406C100.532 58.4672 100.596 57.9548 100.721 57.5065C100.846 57.0582 101.005 56.6861 101.197 56.3933C101.389 56.1005 101.603 55.8687 101.835 55.6979C102.066 55.5271 102.46 55.2892 103.012 54.9842C103.564 54.6792 103.982 54.4779 104.262 54.3833C104.543 54.2888 104.93 54.24 105.424 54.24C106.37 54.24 107.148 54.4199 107.751 54.7798C107.636 55.4691 107.547 56.2408 107.486 57.0887L107.404 57.1619H107.029L106.946 57.0795C106.922 56.5671 106.888 56.2225 106.846 56.0456C106.803 55.8687 106.559 55.6796 106.117 55.4783C105.674 55.277 105.202 55.1763 104.702 55.1763C104.201 55.1763 103.756 55.28 103.363 55.4935C102.972 55.704 102.676 56.0486 102.478 56.5275C102.28 57.0063 102.179 57.5797 102.179 58.2446C102.179 58.8058 102.258 59.3548 102.417 59.8885C102.576 60.4223 102.786 60.8645 103.045 61.2183C103.305 61.569 103.649 61.8527 104.076 62.0662C104.503 62.2797 104.979 62.3864 105.507 62.3864C105.836 62.3864 106.159 62.3437 106.474 62.2583C106.788 62.1729 107.151 62.0326 107.559 61.8374L107.751 62.0753L107.748 62.0723Z" fill="#9DAF4C"/>
<path d="M110.066 56.841L109.709 56.7496L109.636 56.658V55.5235C110.722 54.7183 111.78 54.3157 112.805 54.3157C113.506 54.3157 114.089 54.4468 114.555 54.7091C115.019 54.9714 115.355 55.3008 115.562 55.6943C115.769 56.0877 115.873 56.5483 115.873 57.0728L115.827 58.915V61.6447C115.827 62.0168 115.852 62.2425 115.907 62.3218C115.958 62.4011 116.019 62.456 116.087 62.4835C116.154 62.5109 116.279 62.5353 116.462 62.5506L116.983 62.5963L117.056 62.6786V63.0446L116.983 63.1178C116.538 63.0812 116.123 63.0629 115.739 63.0629C115.355 63.0629 114.934 63.0812 114.418 63.1178L114.281 62.9897L114.318 61.5136L112.32 63.0721C111.984 63.2124 111.618 63.2825 111.222 63.2825C110.734 63.2825 110.313 63.1941 109.962 63.0172C109.612 62.8403 109.343 62.5933 109.157 62.2761C108.971 61.9589 108.876 61.5746 108.876 61.1201C108.876 60.2234 109.157 59.5219 109.718 59.0187C110.279 58.5155 111.814 58.0854 114.318 57.7316C114.318 56.8288 114.116 56.1914 113.714 55.8224C113.311 55.4533 112.771 55.2673 112.091 55.2673C111.737 55.2673 111.414 55.3191 111.124 55.4228C110.835 55.5265 110.667 55.6119 110.624 55.676C110.581 55.74 110.417 56.1152 110.13 56.7983L110.066 56.8441V56.841ZM114.318 58.2898C112.607 58.5765 111.542 58.8845 111.121 59.2139C110.7 59.5433 110.49 60.0526 110.49 60.745C110.49 61.6966 110.963 62.1754 111.911 62.1754C112.722 62.1754 113.528 61.7057 114.321 60.7663V58.2928L114.318 58.2898Z" fill="#9DAF4C"/>
<path d="M120.897 54.2122L121.071 54.322C121.01 55.0173 120.977 55.6365 120.97 56.1733C121.8 55.4169 122.38 54.9167 122.706 54.6697C123.032 54.4257 123.596 54.3037 124.396 54.3037C124.896 54.3037 125.35 54.3707 125.762 54.511C126.171 54.6483 126.549 54.874 126.897 55.1881C127.244 55.5023 127.519 55.8957 127.72 56.3685C127.921 56.8412 128.022 57.3902 128.022 58.0124C128.022 58.4516 127.952 58.8969 127.812 59.3513C127.671 59.8027 127.485 60.2206 127.256 60.6079C127.028 60.9952 126.845 61.2484 126.707 61.3734C126.57 61.4985 126.287 61.6876 125.86 61.9377C125.475 62.1695 125.094 62.4196 124.716 62.688C124.454 62.8771 124.271 62.9991 124.167 63.054C124.063 63.1089 123.889 63.1638 123.645 63.2187C123.401 63.2736 123.142 63.301 122.868 63.301C122.233 63.301 121.599 63.1394 120.97 62.8161V64.768C120.97 64.9022 120.983 65.3353 121.007 66.0643C121.031 66.7932 121.059 67.2202 121.086 67.3422C121.114 67.4642 121.157 67.5527 121.211 67.6076C121.266 67.6625 121.333 67.699 121.413 67.7143C121.492 67.7295 121.821 67.757 122.401 67.7936L122.483 67.8668V68.2511L122.41 68.3334C121.648 68.2846 120.913 68.2602 120.211 68.2602C119.51 68.2602 118.774 68.2846 118.012 68.3334L117.93 68.2511V67.8668L118.012 67.7936C118.598 67.757 118.93 67.7295 119.009 67.7112C119.089 67.6929 119.159 67.6533 119.217 67.5954C119.275 67.5374 119.314 67.4429 119.336 67.3148C119.357 67.1867 119.381 66.778 119.409 66.0887C119.436 65.3994 119.452 64.8809 119.452 64.5301V57.5122C119.452 57.195 119.439 56.826 119.409 56.4081C119.381 55.9903 119.357 55.7463 119.339 55.6792C119.32 55.6121 119.275 55.5572 119.205 55.5145C119.134 55.4718 118.976 55.4504 118.732 55.4504L117.963 55.4413L117.881 55.3681V54.9746L117.954 54.9014C119.119 54.7611 120.101 54.5324 120.894 54.2152L120.897 54.2122ZM120.97 61.2392C121.251 61.5259 121.599 61.776 122.014 61.9865C122.428 62.1969 122.886 62.3037 123.389 62.3037C123.981 62.3037 124.505 62.1542 124.96 61.8553C125.414 61.5564 125.768 61.1173 126.018 60.5408C126.268 59.9644 126.393 59.3239 126.393 58.6224C126.393 58.0551 126.28 57.5274 126.058 57.0364C125.835 56.5484 125.49 56.1641 125.024 55.8835C124.557 55.6029 124.06 55.4626 123.535 55.4626C123.212 55.4626 122.898 55.5206 122.593 55.6334C122.288 55.7463 122.001 55.914 121.736 56.1336C121.471 56.3532 121.279 56.5637 121.163 56.7619C121.047 56.9602 120.986 57.1249 120.98 57.256C120.974 57.3872 120.97 57.5336 120.97 57.6921V61.2454V61.2392Z" fill="#9DAF4C"/>
<path d="M136.881 61.7061L136.589 62.3648C135.954 62.7735 135.387 63.0389 134.89 63.1609C134.393 63.2829 133.947 63.3439 133.557 63.3439C132.825 63.3439 132.13 63.2005 131.474 62.9138C130.818 62.6271 130.284 62.1422 129.87 61.456C129.458 60.7728 129.25 59.9462 129.25 58.9824C129.25 58.3419 129.33 57.7625 129.488 57.247C129.647 56.7316 129.815 56.3473 129.989 56.0972C130.162 55.8471 130.458 55.5695 130.873 55.2645C131.288 54.9595 131.727 54.7156 132.194 54.5326C132.657 54.3496 133.157 54.2581 133.697 54.2581C134.429 54.2581 135.076 54.4319 135.634 54.7766C136.192 55.1212 136.586 55.5634 136.811 56.1002C137.037 56.637 137.15 57.2074 137.15 57.8143C137.15 58.0034 137.141 58.1864 137.122 58.3633L137.022 58.464C136.607 58.5555 136.049 58.6164 135.344 58.6469C134.643 58.6774 134.176 58.6927 133.95 58.6927H131.01C131.023 59.9584 131.34 60.8887 131.962 61.4865C132.584 62.0842 133.35 62.3831 134.252 62.3831C134.679 62.3831 135.091 62.31 135.485 62.1636C135.878 62.0172 136.296 61.8128 136.735 61.5505L136.881 61.7061ZM131.01 57.9577C131.12 57.976 131.544 57.9973 132.279 58.0217C133.014 58.0461 133.56 58.0583 133.914 58.0583C134.762 58.0583 135.28 58.0431 135.463 58.0126C135.469 57.8662 135.472 57.7533 135.472 57.674C135.472 56.7285 135.28 56.024 134.896 55.5634C134.512 55.1029 133.987 54.8711 133.319 54.8711C132.593 54.8711 132.026 55.1303 131.62 55.6488C131.215 56.1673 131.01 56.939 131.01 57.9577Z" fill="#9DAF4C"/>
<path d="M34.6407 37.8135C34.4164 36.0267 34.2947 35.0745 34.2725 34.9581C34.1678 34.3879 34.0027 33.8357 33.7774 33.3036C33.5097 32.6773 33.1003 32.5344 32.3587 32.4562C30.2619 32.1589 28.1037 31.9621 25.88 31.8701L25.205 36.4773L23.5822 47.1846C23.5726 47.2407 23.5398 47.2714 23.4827 47.2756C23.4668 47.2756 23.451 47.2756 23.4362 47.2714C23.3854 47.2544 23.36 47.2206 23.36 47.1666L23.3134 37.7902L23.3833 32.2361L23.3536 27.7251L23.3663 26.007L23.4467 23.8563L23.6171 21.4315C23.5769 20.8338 23.6425 20.3757 23.8149 20.0573C24.7924 19.761 25.6197 19.2596 26.2968 18.5539C26.4417 18.4069 26.5602 18.335 26.5623 18.1043C26.5676 16.9671 26.5623 15.3283 26.5507 13.1871C26.5507 13.1025 26.4819 13.0347 26.3973 13.0337L24.5269 13.0199L19.8477 13.0051L19.2859 13.0146L17.5604 13.0104C17.4536 13.0083 17.4007 13.0612 17.4018 13.1691C17.4145 14.7539 17.4145 16.3598 17.4018 17.9858C17.3996 18.1794 17.461 18.3402 17.5848 18.4693C18.2999 19.2162 19.1156 19.7399 20.0349 20.0393C20.1354 20.0731 20.2 20.1197 20.2285 20.1789C20.2624 20.253 20.274 20.3429 20.2634 20.4487L20.3322 21.3331C20.3322 21.3331 20.3322 21.3448 20.3354 21.3659C20.3354 21.3712 20.3354 21.3765 20.3375 21.3828L20.3407 21.4273C20.3407 21.4357 20.3407 21.4442 20.3428 21.4537C20.3925 22.0261 20.5925 24.4805 20.5925 25.9626C20.5925 26.0578 20.5893 26.1456 20.5808 26.226C20.6115 28.0234 20.5787 29.823 20.4846 31.6236C20.4793 31.7093 20.4105 31.777 20.3259 31.7812L17.4906 31.8976L12.7585 32.2858C12.1862 32.3535 11.6128 32.4234 11.0394 32.4932C10.466 32.5619 10.2237 33.0465 10.0767 33.5998C9.36998 36.2287 9.14782 38.9328 9.40913 41.713L11.0151 40.8656C11.123 40.8085 11.1558 40.8381 11.1156 40.9534C10.2375 43.4343 10.3179 45.932 11.3578 48.4478L11.9778 49.786C12.0042 49.8696 12.037 49.9215 12.0772 49.9447C12.1185 49.9669 12.1714 49.9511 12.1946 49.9088C12.5554 49.2465 12.9701 48.6371 13.4377 48.0828C13.571 47.9241 13.6228 47.9484 13.5943 48.1515C13.2399 50.6176 14.2618 53.1143 16.0042 54.8979C16.1259 55.0217 16.4115 55.2873 16.8633 55.6935C16.9648 55.813 17.0505 55.8416 17.1193 55.7792L17.425 54.4991C17.4822 54.2568 17.5414 54.2568 17.6017 54.497C17.9413 55.8691 19.0807 57.0297 20.1767 57.9088L21.8228 59.0313C21.9254 59.1021 22.0609 59.1032 22.1656 59.0344L23.414 58.2145C24.0878 57.7258 24.7036 57.1672 25.26 56.5377C25.8112 55.9157 26.1836 55.2016 26.3761 54.3975C26.3973 54.3076 26.4269 54.3044 26.4671 54.388C26.6978 54.8757 26.7834 55.4396 26.8977 55.7887C26.8998 55.7951 26.9019 55.8003 26.9072 55.8046C26.9231 55.8236 26.9517 55.8257 26.9707 55.8099C27.743 55.1677 28.4074 54.4621 28.9617 53.693C30.1667 51.9717 30.6375 50.132 30.3762 48.1706C30.3444 47.9336 30.4079 47.905 30.5645 48.086C31.0289 48.6213 31.4246 49.2095 31.7525 49.8537C31.762 49.8749 31.779 49.8908 31.798 49.9003C31.8499 49.9267 31.9144 49.9077 31.9398 49.8559C32.4158 48.963 32.7872 48.0288 33.0506 47.0524L33.3405 45.2105C33.4769 43.7157 33.3013 42.3086 32.8126 40.9883C32.7554 40.836 32.7978 40.8 32.9395 40.8815L34.4217 41.7384C34.4365 41.7469 34.4545 41.7522 34.4725 41.7532C34.537 41.7564 34.592 41.7077 34.5952 41.6421L34.6777 39.9272L34.6735 39.5707C34.6936 38.7053 34.683 38.1182 34.6438 37.8082L34.6407 37.8135ZM19.8085 17.331C19.763 17.2982 19.7398 17.2527 19.7398 17.1966V15.4225C19.7398 15.3601 19.7705 15.3294 19.8329 15.3283L21.0643 15.3167L24.1492 15.3135C24.2021 15.3135 24.2444 15.3569 24.2444 15.4087C24.2423 15.9599 24.2444 16.5196 24.2497 17.0887C24.2497 17.3733 24.1048 17.4167 23.8519 17.5701C23.507 17.7806 23.1368 17.9213 22.7432 17.9932C21.6567 18.1974 20.6771 17.9763 19.8085 17.3299V17.331Z" fill="#307A3B"/>
<path d="M29.1141 22.8872C30.2387 23.285 31.3178 23.7536 32.3514 24.2911C33.8081 25.0761 35.1697 26.007 36.435 27.0851L36.7936 27.4077C37.6706 28.235 38.4387 29.0507 39.0988 29.8568C40.6413 31.741 41.8251 33.8558 42.6524 36.2023C42.8841 36.8592 43.0967 37.5247 43.2903 38.1986L43.6913 40.1388C44.5503 45.4422 43.3305 50.9688 40.4583 55.4787L38.6355 57.8697L37.7944 58.7657C36.5037 60.1061 35.0406 61.2846 33.4072 62.2992C33.2919 62.424 33.1311 62.2706 32.9269 61.84L32.1229 60.4997C32.088 60.4404 32.1059 60.3653 32.1631 60.3272L33.2136 59.6491L34.9306 58.315C37.2813 56.2711 39.0512 53.785 40.2403 50.8577L41.1385 48.0532C41.7278 45.5141 41.8092 42.9762 41.3808 40.4371L40.946 38.4969C40.6921 37.5226 40.3853 36.6487 40.0256 35.8733C39.3527 34.3763 38.4863 32.9153 37.4284 31.4892C36.5164 30.261 35.4871 29.2157 34.3424 28.3546C33.0517 27.3347 31.6606 26.4831 30.1689 25.7997L29.2263 25.4104C28.0731 24.9258 26.8607 24.5778 25.5923 24.3662L25.7891 22.1456C25.7943 22.0895 25.825 22.0652 25.88 22.0737C26.9993 22.2482 28.0784 22.519 29.1173 22.8872H29.1141Z" fill="#9DAD4A"/>
<path d="M20.3311 21.3352L20.3342 21.3676C20.3321 21.3467 20.3311 21.3352 20.3311 21.3352Z" fill="#307A3B"/>
<path d="M20.334 21.3682C20.3361 21.3895 20.3382 21.4193 20.3414 21.4577L20.334 21.3682Z" fill="#307A3B"/>
<path d="M20.3415 21.4568C20.3478 21.5319 20.3563 21.6366 20.3679 21.7678L20.2886 21.7773C20.3394 21.7678 20.3637 21.7371 20.3584 21.6832L20.3415 21.4568Z" fill="#307A3B"/>
<path d="M20.4668 24.0859C20.4869 24.0837 20.507 24.0827 20.5282 24.0806C20.5652 24.746 20.5916 25.422 20.5916 25.9658C20.5916 26.061 20.5885 26.1488 20.58 26.2292C20.5758 25.9108 20.5684 25.5923 20.5588 25.2739L20.5282 24.1514C20.526 24.1165 20.4996 24.088 20.4668 24.0859Z" fill="#307A3B"/>
<path d="M21.1754 24.0159C21.0654 24.0297 20.7819 24.0561 20.5269 24.0804C20.4762 23.1685 20.4084 22.2767 20.3672 21.7678L21.2728 21.6504C21.2728 21.6504 21.3934 23.9884 21.1754 24.0159Z" fill="#307A3B"/>
<path d="M20.5278 24.0804C20.5066 24.0826 20.4865 24.0836 20.4664 24.0857H20.4537C20.3892 24.091 20.3246 24.0963 20.2601 24.1027C20.2199 24.1058 20.1797 24.1111 20.1395 24.1154C20.1183 24.1175 20.1014 24.1185 20.0887 24.1196C20.0803 24.1196 20.0729 24.1196 20.0676 24.1217C20.0612 24.1217 20.058 24.1217 20.058 24.1217C19.7015 24.1587 19.3482 24.2042 18.9959 24.2603C17.537 24.4888 16.1109 24.8802 14.7176 25.4346C13.8385 25.7636 12.99 26.1656 12.1744 26.6406C9.06936 28.4201 6.63719 30.8618 4.87574 33.9657C3.71837 36.0033 2.93974 38.1868 2.53984 40.5174C1.94635 44.4529 2.49329 48.2414 4.17963 51.8838C5.24602 54.1911 6.73875 56.2181 8.65783 57.9658C9.40684 58.7191 10.2553 59.3866 11.2032 59.9674L12.5944 60.7693C12.6885 60.8243 12.7234 60.9428 12.6748 61.0391L11.8369 62.6598C11.8284 62.6863 11.8147 62.7127 11.7967 62.736C11.7343 62.8471 11.6391 62.8661 11.5142 62.7963C10.8075 62.4017 10.1157 61.9828 9.43858 61.5406C8.96145 61.2274 8.48327 60.8635 8.00615 60.4488C7.55335 60.0563 7.10479 59.6574 6.66046 59.2533L5.76123 58.3647C2.37481 54.6196 0.472655 50.2356 0.0568903 45.2083C-0.222402 41.167 0.52661 37.3743 2.30498 33.8303C4.03681 30.3772 6.51659 27.5737 9.74432 25.4208L10.7314 24.802C13.0398 23.4383 15.5259 22.5211 18.1887 22.0503L18.6648 21.9879L19.3968 21.8937L19.5058 21.8789L20.2813 21.7795C20.2813 21.7795 20.2866 21.7795 20.2897 21.7773L20.3691 21.7678C20.4103 22.2767 20.4791 23.1685 20.5288 24.0804H20.5278Z" fill="#9DAD4A"/>
<path d="M20.2803 21.7804L19.5049 21.8799L20.2877 21.7783C20.2877 21.7783 20.2825 21.7804 20.2793 21.7804H20.2803Z" fill="#307A3B"/>
<path d="M20.4667 24.0857C20.2742 24.1037 20.1102 24.1185 20.0679 24.1217C20.1969 24.1079 20.3249 24.0963 20.454 24.0857H20.4667Z" fill="#307A3B"/>
<defs>
<linearGradient id="paint0_linear_806_25206" x1="341.311" y1="99.4838" x2="252.325" y2="-21.786" gradientUnits="userSpaceOnUse">
<stop stop-color="#AD7A2B"/>
<stop offset="0.02" stop-color="#AB772B"/>
<stop offset="0.18" stop-color="#9F6A29"/>
<stop offset="0.32" stop-color="#9C6528"/>
<stop offset="0.39" stop-color="#A16D2B"/>
<stop offset="0.49" stop-color="#B08132"/>
<stop offset="0.61" stop-color="#C8A443"/>
<stop offset="0.7" stop-color="#DFC34F"/>
<stop offset="0.8" stop-color="#DCC04D"/>
<stop offset="0.86" stop-color="#D6B647"/>
<stop offset="0.92" stop-color="#CCA73F"/>
<stop offset="0.98" stop-color="#BC902F"/>
<stop offset="1" stop-color="#B6872D"/>
</linearGradient>
<linearGradient id="paint1_linear_806_25206" x1="324.445" y1="111.861" x2="235.459" y2="-9.41026" gradientUnits="userSpaceOnUse">
<stop stop-color="#AD7A2B"/>
<stop offset="0.02" stop-color="#AB772B"/>
<stop offset="0.18" stop-color="#9F6A29"/>
<stop offset="0.32" stop-color="#9C6528"/>
<stop offset="0.39" stop-color="#A16D2B"/>
<stop offset="0.49" stop-color="#B08132"/>
<stop offset="0.61" stop-color="#C8A443"/>
<stop offset="0.7" stop-color="#DFC34F"/>
<stop offset="0.8" stop-color="#DCC04D"/>
<stop offset="0.86" stop-color="#D6B647"/>
<stop offset="0.92" stop-color="#CCA73F"/>
<stop offset="0.98" stop-color="#BC902F"/>
<stop offset="1" stop-color="#B6872D"/>
</linearGradient>
<linearGradient id="paint2_linear_806_25206" x1="326.115" y1="110.626" x2="237.136" y2="-10.6444" gradientUnits="userSpaceOnUse">
<stop stop-color="#AD7A2B"/>
<stop offset="0.02" stop-color="#AB772B"/>
<stop offset="0.18" stop-color="#9F6A29"/>
<stop offset="0.32" stop-color="#9C6528"/>
<stop offset="0.39" stop-color="#A16D2B"/>
<stop offset="0.49" stop-color="#B08132"/>
<stop offset="0.61" stop-color="#C8A443"/>
<stop offset="0.7" stop-color="#DFC34F"/>
<stop offset="0.8" stop-color="#DCC04D"/>
<stop offset="0.86" stop-color="#D6B647"/>
<stop offset="0.92" stop-color="#CCA73F"/>
<stop offset="0.98" stop-color="#BC902F"/>
<stop offset="1" stop-color="#B6872D"/>
</linearGradient>
<linearGradient id="paint3_linear_806_25206" x1="339.691" y1="100.669" x2="250.712" y2="-20.6018" gradientUnits="userSpaceOnUse">
<stop stop-color="#AD7A2B"/>
<stop offset="0.02" stop-color="#AB772B"/>
<stop offset="0.18" stop-color="#9F6A29"/>
<stop offset="0.32" stop-color="#9C6528"/>
<stop offset="0.39" stop-color="#A16D2B"/>
<stop offset="0.49" stop-color="#B08132"/>
<stop offset="0.61" stop-color="#C8A443"/>
<stop offset="0.7" stop-color="#DFC34F"/>
<stop offset="0.8" stop-color="#DCC04D"/>
<stop offset="0.86" stop-color="#D6B647"/>
<stop offset="0.92" stop-color="#CCA73F"/>
<stop offset="0.98" stop-color="#BC902F"/>
<stop offset="1" stop-color="#B6872D"/>
</linearGradient>
<linearGradient id="paint4_linear_806_25206" x1="320.819" y1="114.516" x2="231.84" y2="-6.75464" gradientUnits="userSpaceOnUse">
<stop stop-color="#AD7A2B"/>
<stop offset="0.02" stop-color="#AB772B"/>
<stop offset="0.18" stop-color="#9F6A29"/>
<stop offset="0.32" stop-color="#9C6528"/>
<stop offset="0.39" stop-color="#A16D2B"/>
<stop offset="0.49" stop-color="#B08132"/>
<stop offset="0.61" stop-color="#C8A443"/>
<stop offset="0.7" stop-color="#DFC34F"/>
<stop offset="0.8" stop-color="#DCC04D"/>
<stop offset="0.86" stop-color="#D6B647"/>
<stop offset="0.92" stop-color="#CCA73F"/>
<stop offset="0.98" stop-color="#BC902F"/>
<stop offset="1" stop-color="#B6872D"/>
</linearGradient>
<linearGradient id="paint5_linear_806_25206" x1="343.195" y1="98.099" x2="254.209" y2="-23.1711" gradientUnits="userSpaceOnUse">
<stop stop-color="#AD7A2B"/>
<stop offset="0.02" stop-color="#AB772B"/>
<stop offset="0.18" stop-color="#9F6A29"/>
<stop offset="0.32" stop-color="#9C6528"/>
<stop offset="0.39" stop-color="#A16D2B"/>
<stop offset="0.49" stop-color="#B08132"/>
<stop offset="0.61" stop-color="#C8A443"/>
<stop offset="0.7" stop-color="#DFC34F"/>
<stop offset="0.8" stop-color="#DCC04D"/>
<stop offset="0.86" stop-color="#D6B647"/>
<stop offset="0.92" stop-color="#CCA73F"/>
<stop offset="0.98" stop-color="#BC902F"/>
<stop offset="1" stop-color="#B6872D"/>
</linearGradient>
<linearGradient id="paint6_linear_806_25206" x1="323.781" y1="112.346" x2="234.794" y2="-8.92398" gradientUnits="userSpaceOnUse">
<stop stop-color="#AD7A2B"/>
<stop offset="0.02" stop-color="#AB772B"/>
<stop offset="0.18" stop-color="#9F6A29"/>
<stop offset="0.32" stop-color="#9C6528"/>
<stop offset="0.39" stop-color="#A16D2B"/>
<stop offset="0.49" stop-color="#B08132"/>
<stop offset="0.61" stop-color="#C8A443"/>
<stop offset="0.7" stop-color="#DFC34F"/>
<stop offset="0.8" stop-color="#DCC04D"/>
<stop offset="0.86" stop-color="#D6B647"/>
<stop offset="0.92" stop-color="#CCA73F"/>
<stop offset="0.98" stop-color="#BC902F"/>
<stop offset="1" stop-color="#B6872D"/>
</linearGradient>
<linearGradient id="paint7_linear_806_25206" x1="339.826" y1="100.569" x2="250.847" y2="-20.7013" gradientUnits="userSpaceOnUse">
<stop stop-color="#AD7A2B"/>
<stop offset="0.02" stop-color="#AB772B"/>
<stop offset="0.18" stop-color="#9F6A29"/>
<stop offset="0.32" stop-color="#9C6528"/>
<stop offset="0.39" stop-color="#A16D2B"/>
<stop offset="0.49" stop-color="#B08132"/>
<stop offset="0.61" stop-color="#C8A443"/>
<stop offset="0.7" stop-color="#DFC34F"/>
<stop offset="0.8" stop-color="#DCC04D"/>
<stop offset="0.86" stop-color="#D6B647"/>
<stop offset="0.92" stop-color="#CCA73F"/>
<stop offset="0.98" stop-color="#BC902F"/>
<stop offset="1" stop-color="#B6872D"/>
</linearGradient>
<linearGradient id="paint8_linear_806_25206" x1="316.636" y1="117.585" x2="227.657" y2="-3.68541" gradientUnits="userSpaceOnUse">
<stop stop-color="#AD7A2B"/>
<stop offset="0.02" stop-color="#AB772B"/>
<stop offset="0.18" stop-color="#9F6A29"/>
<stop offset="0.32" stop-color="#9C6528"/>
<stop offset="0.39" stop-color="#A16D2B"/>
<stop offset="0.49" stop-color="#B08132"/>
<stop offset="0.61" stop-color="#C8A443"/>
<stop offset="0.7" stop-color="#DFC34F"/>
</linearGradient>
<linearGradient id="paint9_linear_806_25206" x1="344.78" y1="96.9357" x2="255.794" y2="-24.3344" gradientUnits="userSpaceOnUse">
<stop stop-color="#AD7A2B"/>
<stop offset="0.02" stop-color="#AB772B"/>
<stop offset="0.18" stop-color="#9F6A29"/>
<stop offset="0.32" stop-color="#9C6528"/>
<stop offset="0.39" stop-color="#A16D2B"/>
<stop offset="0.49" stop-color="#B08132"/>
<stop offset="0.61" stop-color="#C8A443"/>
<stop offset="0.7" stop-color="#DFC34F"/>
<stop offset="0.8" stop-color="#DCC04D"/>
<stop offset="0.86" stop-color="#D6B647"/>
<stop offset="0.92" stop-color="#CCA73F"/>
<stop offset="0.98" stop-color="#BC902F"/>
<stop offset="1" stop-color="#B6872D"/>
</linearGradient>
<linearGradient id="paint10_linear_806_25206" x1="320.512" y1="114.737" x2="231.533" y2="-6.53287" gradientUnits="userSpaceOnUse">
<stop stop-color="#AD7A2B"/>
<stop offset="0.02" stop-color="#AB772B"/>
<stop offset="0.18" stop-color="#9F6A29"/>
<stop offset="0.32" stop-color="#9C6528"/>
<stop offset="0.39" stop-color="#A16D2B"/>
<stop offset="0.49" stop-color="#B08132"/>
<stop offset="0.61" stop-color="#C8A443"/>
<stop offset="0.7" stop-color="#DFC34F"/>
<stop offset="0.8" stop-color="#DCC04D"/>
<stop offset="0.86" stop-color="#D6B647"/>
<stop offset="0.92" stop-color="#CCA73F"/>
<stop offset="0.98" stop-color="#BC902F"/>
<stop offset="1" stop-color="#B6872D"/>
</linearGradient>
<linearGradient id="paint11_linear_806_25206" x1="341.411" y1="99.4125" x2="252.432" y2="-21.8649" gradientUnits="userSpaceOnUse">
<stop stop-color="#AD7A2B"/>
<stop offset="0.02" stop-color="#AB772B"/>
<stop offset="0.18" stop-color="#9F6A29"/>
<stop offset="0.32" stop-color="#9C6528"/>
<stop offset="0.39" stop-color="#A16D2B"/>
<stop offset="0.49" stop-color="#B08132"/>
<stop offset="0.61" stop-color="#C8A443"/>
<stop offset="0.7" stop-color="#DFC34F"/>
<stop offset="0.8" stop-color="#DCC04D"/>
<stop offset="0.86" stop-color="#D6B647"/>
<stop offset="0.92" stop-color="#CCA73F"/>
<stop offset="0.98" stop-color="#BC902F"/>
<stop offset="1" stop-color="#B6872D"/>
</linearGradient>
<linearGradient id="paint12_linear_806_25206" x1="312.632" y1="120.519" x2="223.653" y2="-0.751408" gradientUnits="userSpaceOnUse">
<stop stop-color="#AD7A2B"/>
<stop offset="0.02" stop-color="#AB772B"/>
<stop offset="0.18" stop-color="#9F6A29"/>
<stop offset="0.32" stop-color="#9C6528"/>
<stop offset="0.39" stop-color="#A16D2B"/>
<stop offset="0.49" stop-color="#B08132"/>
<stop offset="0.61" stop-color="#C8A443"/>
<stop offset="0.7" stop-color="#DFC34F"/>
<stop offset="0.8" stop-color="#DCC04D"/>
<stop offset="0.86" stop-color="#D6B647"/>
<stop offset="0.92" stop-color="#CCA73F"/>
<stop offset="0.98" stop-color="#BC902F"/>
<stop offset="1" stop-color="#B6872D"/>
</linearGradient>
<linearGradient id="paint13_linear_806_25206" x1="345.772" y1="96.2076" x2="256.793" y2="-25.0621" gradientUnits="userSpaceOnUse">
<stop stop-color="#AD7A2B"/>
<stop offset="0.02" stop-color="#AB772B"/>
<stop offset="0.18" stop-color="#9F6A29"/>
<stop offset="0.32" stop-color="#9C6528"/>
<stop offset="0.39" stop-color="#A16D2B"/>
<stop offset="0.49" stop-color="#B08132"/>
<stop offset="0.61" stop-color="#C8A443"/>
<stop offset="0.7" stop-color="#DFC34F"/>
<stop offset="0.8" stop-color="#DCC04D"/>
<stop offset="0.86" stop-color="#D6B647"/>
<stop offset="0.92" stop-color="#CCA73F"/>
<stop offset="0.98" stop-color="#BC902F"/>
<stop offset="1" stop-color="#B6872D"/>
</linearGradient>
<linearGradient id="paint14_linear_806_25206" x1="316.543" y1="117.656" x2="227.564" y2="-3.62101" gradientUnits="userSpaceOnUse">
<stop stop-color="#AD7A2B"/>
<stop offset="0.02" stop-color="#AB772B"/>
<stop offset="0.18" stop-color="#9F6A29"/>
<stop offset="0.32" stop-color="#9C6528"/>
<stop offset="0.39" stop-color="#A16D2B"/>
<stop offset="0.49" stop-color="#B08132"/>
<stop offset="0.61" stop-color="#C8A443"/>
<stop offset="0.7" stop-color="#DFC34F"/>
<stop offset="0.8" stop-color="#DCC04D"/>
<stop offset="0.86" stop-color="#D6B647"/>
<stop offset="0.92" stop-color="#CCA73F"/>
<stop offset="0.98" stop-color="#BC902F"/>
<stop offset="1" stop-color="#B6872D"/>
</linearGradient>
<linearGradient id="paint15_linear_806_25206" x1="342.631" y1="98.513" x2="253.652" y2="-22.7572" gradientUnits="userSpaceOnUse">
<stop stop-color="#AD7A2B"/>
<stop offset="0.02" stop-color="#AB772B"/>
<stop offset="0.18" stop-color="#9F6A29"/>
<stop offset="0.32" stop-color="#9C6528"/>
<stop offset="0.39" stop-color="#A16D2B"/>
<stop offset="0.49" stop-color="#B08132"/>
<stop offset="0.61" stop-color="#C8A443"/>
<stop offset="0.7" stop-color="#DFC34F"/>
<stop offset="0.8" stop-color="#DCC04D"/>
<stop offset="0.86" stop-color="#D6B647"/>
<stop offset="0.92" stop-color="#CCA73F"/>
<stop offset="0.98" stop-color="#BC902F"/>
<stop offset="1" stop-color="#B6872D"/>
</linearGradient>
<linearGradient id="paint16_linear_806_25206" x1="346.429" y1="95.7292" x2="257.443" y2="-25.541" gradientUnits="userSpaceOnUse">
<stop stop-color="#AD7A2B"/>
<stop offset="0.02" stop-color="#AB772B"/>
<stop offset="0.18" stop-color="#9F6A29"/>
<stop offset="0.32" stop-color="#9C6528"/>
<stop offset="0.39" stop-color="#A16D2B"/>
<stop offset="0.49" stop-color="#B08132"/>
<stop offset="0.61" stop-color="#C8A443"/>
<stop offset="0.7" stop-color="#DFC34F"/>
<stop offset="0.8" stop-color="#DCC04D"/>
<stop offset="0.86" stop-color="#D6B647"/>
<stop offset="0.92" stop-color="#CCA73F"/>
<stop offset="0.98" stop-color="#BC902F"/>
<stop offset="1" stop-color="#B6872D"/>
</linearGradient>
<linearGradient id="paint17_linear_806_25206" x1="308.414" y1="123.616" x2="219.428" y2="2.3458" gradientUnits="userSpaceOnUse">
<stop stop-color="#AD7A2B"/>
<stop offset="0.02" stop-color="#AB772B"/>
<stop offset="0.18" stop-color="#9F6A29"/>
<stop offset="0.32" stop-color="#9C6528"/>
<stop offset="0.39" stop-color="#A16D2B"/>
<stop offset="0.49" stop-color="#B08132"/>
<stop offset="0.61" stop-color="#C8A443"/>
<stop offset="0.7" stop-color="#DFC34F"/>
<stop offset="0.8" stop-color="#DCC04D"/>
<stop offset="0.86" stop-color="#D6B647"/>
<stop offset="0.92" stop-color="#CCA73F"/>
<stop offset="0.98" stop-color="#BC902F"/>
<stop offset="1" stop-color="#B6872D"/>
</linearGradient>
<linearGradient id="paint18_linear_806_25206" x1="312.889" y1="120.333" x2="223.903" y2="-0.937078" gradientUnits="userSpaceOnUse">
<stop stop-color="#AD7A2B"/>
<stop offset="0.02" stop-color="#AB772B"/>
<stop offset="0.18" stop-color="#9F6A29"/>
<stop offset="0.32" stop-color="#9C6528"/>
<stop offset="0.39" stop-color="#A16D2B"/>
<stop offset="0.49" stop-color="#B08132"/>
<stop offset="0.61" stop-color="#C8A443"/>
<stop offset="0.7" stop-color="#DFC34F"/>
<stop offset="0.8" stop-color="#DCC04D"/>
<stop offset="0.86" stop-color="#D6B647"/>
<stop offset="0.92" stop-color="#CCA73F"/>
<stop offset="0.98" stop-color="#BC902F"/>
<stop offset="1" stop-color="#B6872D"/>
</linearGradient>
<linearGradient id="paint19_linear_806_25206" x1="343.296" y1="98.0206" x2="254.317" y2="-23.2498" gradientUnits="userSpaceOnUse">
<stop stop-color="#AD7A2B"/>
<stop offset="0.02" stop-color="#AB772B"/>
<stop offset="0.18" stop-color="#9F6A29"/>
<stop offset="0.32" stop-color="#9C6528"/>
<stop offset="0.39" stop-color="#A16D2B"/>
<stop offset="0.49" stop-color="#B08132"/>
<stop offset="0.61" stop-color="#C8A443"/>
<stop offset="0.7" stop-color="#DFC34F"/>
<stop offset="0.8" stop-color="#DCC04D"/>
<stop offset="0.86" stop-color="#D6B647"/>
<stop offset="0.92" stop-color="#CCA73F"/>
<stop offset="0.98" stop-color="#BC902F"/>
<stop offset="1" stop-color="#B6872D"/>
</linearGradient>
<linearGradient id="paint20_linear_806_25206" x1="309.213" y1="123.038" x2="220.234" y2="1.76099" gradientUnits="userSpaceOnUse">
<stop stop-color="#AD7A2B"/>
<stop offset="0.02" stop-color="#AB772B"/>
<stop offset="0.18" stop-color="#9F6A29"/>
<stop offset="0.32" stop-color="#9C6528"/>
<stop offset="0.39" stop-color="#A16D2B"/>
<stop offset="0.49" stop-color="#B08132"/>
<stop offset="0.61" stop-color="#C8A443"/>
<stop offset="0.7" stop-color="#DFC34F"/>
<stop offset="0.8" stop-color="#DCC04D"/>
<stop offset="0.86" stop-color="#D6B647"/>
<stop offset="0.92" stop-color="#CCA73F"/>
<stop offset="0.98" stop-color="#BC902F"/>
<stop offset="1" stop-color="#B6872D"/>
</linearGradient>
<linearGradient id="paint21_linear_806_25206" x1="343.645" y1="97.7707" x2="254.666" y2="-23.4995" gradientUnits="userSpaceOnUse">
<stop stop-color="#AD7A2B"/>
<stop offset="0.02" stop-color="#AB772B"/>
<stop offset="0.18" stop-color="#9F6A29"/>
<stop offset="0.32" stop-color="#9C6528"/>
<stop offset="0.39" stop-color="#A16D2B"/>
<stop offset="0.49" stop-color="#B08132"/>
<stop offset="0.61" stop-color="#C8A443"/>
<stop offset="0.7" stop-color="#DFC34F"/>
<stop offset="0.8" stop-color="#DCC04D"/>
<stop offset="0.86" stop-color="#D6B647"/>
<stop offset="0.92" stop-color="#CCA73F"/>
<stop offset="0.98" stop-color="#BC902F"/>
<stop offset="1" stop-color="#B6872D"/>
</linearGradient>
<linearGradient id="paint22_linear_806_25206" x1="304.038" y1="126.828" x2="215.059" y2="5.55795" gradientUnits="userSpaceOnUse">
<stop stop-color="#AD7A2B"/>
<stop offset="0.02" stop-color="#AB772B"/>
<stop offset="0.18" stop-color="#9F6A29"/>
<stop offset="0.32" stop-color="#9C6528"/>
<stop offset="0.39" stop-color="#A16D2B"/>
<stop offset="0.49" stop-color="#B08132"/>
<stop offset="0.61" stop-color="#C8A443"/>
<stop offset="0.7" stop-color="#DFC34F"/>
<stop offset="0.8" stop-color="#DCC04D"/>
<stop offset="0.86" stop-color="#D6B647"/>
<stop offset="0.92" stop-color="#CCA73F"/>
<stop offset="0.98" stop-color="#BC902F"/>
<stop offset="1" stop-color="#B6872D"/>
</linearGradient>
<linearGradient id="paint23_linear_806_25206" x1="346.143" y1="95.9364" x2="257.164" y2="-25.3335" gradientUnits="userSpaceOnUse">
<stop stop-color="#AD7A2B"/>
<stop offset="0.02" stop-color="#AB772B"/>
<stop offset="0.18" stop-color="#9F6A29"/>
<stop offset="0.32" stop-color="#9C6528"/>
<stop offset="0.39" stop-color="#A16D2B"/>
<stop offset="0.49" stop-color="#B08132"/>
<stop offset="0.61" stop-color="#C8A443"/>
<stop offset="0.7" stop-color="#DFC34F"/>
<stop offset="0.8" stop-color="#DCC04D"/>
<stop offset="0.86" stop-color="#D6B647"/>
<stop offset="0.92" stop-color="#CCA73F"/>
<stop offset="0.98" stop-color="#BC902F"/>
<stop offset="1" stop-color="#B6872D"/>
</linearGradient>
<linearGradient id="paint24_linear_806_25206" x1="343.096" y1="98.1705" x2="254.117" y2="-23.0999" gradientUnits="userSpaceOnUse">
<stop stop-color="#AD7A2B"/>
<stop offset="0.02" stop-color="#AB772B"/>
<stop offset="0.18" stop-color="#9F6A29"/>
<stop offset="0.32" stop-color="#9C6528"/>
<stop offset="0.39" stop-color="#A16D2B"/>
<stop offset="0.49" stop-color="#B08132"/>
<stop offset="0.61" stop-color="#C8A443"/>
<stop offset="0.7" stop-color="#DFC34F"/>
<stop offset="0.8" stop-color="#DCC04D"/>
<stop offset="0.86" stop-color="#D6B647"/>
<stop offset="0.92" stop-color="#CCA73F"/>
<stop offset="0.98" stop-color="#BC902F"/>
<stop offset="1" stop-color="#B6872D"/>
</linearGradient>
<linearGradient id="paint25_linear_806_25206" x1="305.387" y1="125.844" x2="216.408" y2="4.56622" gradientUnits="userSpaceOnUse">
<stop stop-color="#AD7A2B"/>
<stop offset="0.02" stop-color="#AB772B"/>
<stop offset="0.18" stop-color="#9F6A29"/>
<stop offset="0.32" stop-color="#9C6528"/>
<stop offset="0.39" stop-color="#A16D2B"/>
<stop offset="0.49" stop-color="#B08132"/>
<stop offset="0.61" stop-color="#C8A443"/>
<stop offset="0.7" stop-color="#DFC34F"/>
<stop offset="0.8" stop-color="#DCC04D"/>
<stop offset="0.86" stop-color="#D6B647"/>
<stop offset="0.92" stop-color="#CCA73F"/>
<stop offset="0.98" stop-color="#BC902F"/>
<stop offset="1" stop-color="#B6872D"/>
</linearGradient>
<linearGradient id="paint26_linear_806_25206" x1="299.234" y1="130.354" x2="210.255" y2="9.08432" gradientUnits="userSpaceOnUse">
<stop stop-color="#AD7A2B"/>
<stop offset="0.02" stop-color="#AB772B"/>
<stop offset="0.18" stop-color="#9F6A29"/>
<stop offset="0.32" stop-color="#9C6528"/>
<stop offset="0.39" stop-color="#A16D2B"/>
<stop offset="0.49" stop-color="#B08132"/>
<stop offset="0.61" stop-color="#C8A443"/>
<stop offset="0.7" stop-color="#DFC34F"/>
<stop offset="0.8" stop-color="#DCC04D"/>
<stop offset="0.86" stop-color="#D6B647"/>
<stop offset="0.92" stop-color="#CCA73F"/>
<stop offset="0.98" stop-color="#BC902F"/>
<stop offset="1" stop-color="#B6872D"/>
</linearGradient>
<linearGradient id="paint27_linear_806_25206" x1="345.437" y1="96.4575" x2="256.45" y2="-24.8196" gradientUnits="userSpaceOnUse">
<stop stop-color="#AD7A2B"/>
<stop offset="0.02" stop-color="#AB772B"/>
<stop offset="0.18" stop-color="#9F6A29"/>
<stop offset="0.32" stop-color="#9C6528"/>
<stop offset="0.39" stop-color="#A16D2B"/>
<stop offset="0.49" stop-color="#B08132"/>
<stop offset="0.61" stop-color="#C8A443"/>
<stop offset="0.7" stop-color="#DFC34F"/>
<stop offset="0.8" stop-color="#DCC04D"/>
<stop offset="0.86" stop-color="#D6B647"/>
<stop offset="0.92" stop-color="#CCA73F"/>
<stop offset="0.98" stop-color="#BC902F"/>
<stop offset="1" stop-color="#B6872D"/>
</linearGradient>
<linearGradient id="paint28_linear_806_25206" x1="301.461" y1="128.72" x2="212.482" y2="7.44967" gradientUnits="userSpaceOnUse">
<stop stop-color="#AD7A2B"/>
<stop offset="0.02" stop-color="#AB772B"/>
<stop offset="0.18" stop-color="#9F6A29"/>
<stop offset="0.32" stop-color="#9C6528"/>
<stop offset="0.39" stop-color="#A16D2B"/>
<stop offset="0.49" stop-color="#B08132"/>
<stop offset="0.61" stop-color="#C8A443"/>
<stop offset="0.7" stop-color="#DFC34F"/>
<stop offset="0.8" stop-color="#DCC04D"/>
<stop offset="0.86" stop-color="#D6B647"/>
<stop offset="0.92" stop-color="#CCA73F"/>
<stop offset="0.98" stop-color="#BC902F"/>
<stop offset="1" stop-color="#B6872D"/>
</linearGradient>
<linearGradient id="paint29_linear_806_25206" x1="341.918" y1="99.0342" x2="252.939" y2="-22.2361" gradientUnits="userSpaceOnUse">
<stop stop-color="#AD7A2B"/>
<stop offset="0.02" stop-color="#AB772B"/>
<stop offset="0.18" stop-color="#9F6A29"/>
<stop offset="0.32" stop-color="#9C6528"/>
<stop offset="0.39" stop-color="#A16D2B"/>
<stop offset="0.49" stop-color="#B08132"/>
<stop offset="0.61" stop-color="#C8A443"/>
<stop offset="0.7" stop-color="#DFC34F"/>
<stop offset="0.8" stop-color="#DCC04D"/>
<stop offset="0.86" stop-color="#D6B647"/>
<stop offset="0.92" stop-color="#CCA73F"/>
<stop offset="0.98" stop-color="#BC902F"/>
<stop offset="1" stop-color="#B6872D"/>
</linearGradient>
<linearGradient id="paint30_linear_806_25206" x1="289.313" y1="125.908" x2="206.729" y2="13.3527" gradientUnits="userSpaceOnUse">
<stop stop-color="#AD7A2B"/>
<stop offset="0.02" stop-color="#AB772B"/>
<stop offset="0.18" stop-color="#9F6A29"/>
<stop offset="0.32" stop-color="#9C6528"/>
<stop offset="0.39" stop-color="#A16D2B"/>
<stop offset="0.49" stop-color="#B08132"/>
<stop offset="0.61" stop-color="#C8A443"/>
<stop offset="0.7" stop-color="#DFC34F"/>
<stop offset="0.8" stop-color="#DCC04D"/>
<stop offset="0.86" stop-color="#D6B647"/>
<stop offset="0.92" stop-color="#CCA73F"/>
<stop offset="0.98" stop-color="#BC902F"/>
<stop offset="1" stop-color="#B6872D"/>
</linearGradient>
<linearGradient id="paint31_linear_806_25206" x1="343.624" y1="97.785" x2="254.645" y2="-23.4925" gradientUnits="userSpaceOnUse">
<stop stop-color="#AD7A2B"/>
<stop offset="0.02" stop-color="#AB772B"/>
<stop offset="0.18" stop-color="#9F6A29"/>
<stop offset="0.32" stop-color="#9C6528"/>
<stop offset="0.39" stop-color="#A16D2B"/>
<stop offset="0.49" stop-color="#B08132"/>
<stop offset="0.61" stop-color="#C8A443"/>
<stop offset="0.7" stop-color="#DFC34F"/>
<stop offset="0.8" stop-color="#DCC04D"/>
<stop offset="0.86" stop-color="#D6B647"/>
<stop offset="0.92" stop-color="#CCA73F"/>
<stop offset="0.98" stop-color="#BC902F"/>
<stop offset="1" stop-color="#B6872D"/>
</linearGradient>
<linearGradient id="paint32_linear_806_25206" x1="297.728" y1="131.461" x2="208.749" y2="10.1906" gradientUnits="userSpaceOnUse">
<stop stop-color="#AD7A2B"/>
<stop offset="0.02" stop-color="#AB772B"/>
<stop offset="0.18" stop-color="#9F6A29"/>
<stop offset="0.32" stop-color="#9C6528"/>
<stop offset="0.39" stop-color="#A16D2B"/>
<stop offset="0.49" stop-color="#B08132"/>
<stop offset="0.61" stop-color="#C8A443"/>
<stop offset="0.7" stop-color="#DFC34F"/>
<stop offset="0.8" stop-color="#DCC04D"/>
<stop offset="0.86" stop-color="#D6B647"/>
<stop offset="0.92" stop-color="#CCA73F"/>
<stop offset="0.98" stop-color="#BC902F"/>
<stop offset="1" stop-color="#B6872D"/>
</linearGradient>
<linearGradient id="paint33_linear_806_25206" x1="339.827" y1="100.569" x2="250.848" y2="-20.7017" gradientUnits="userSpaceOnUse">
<stop stop-color="#AD7A2B"/>
<stop offset="0.02" stop-color="#AB772B"/>
<stop offset="0.18" stop-color="#9F6A29"/>
<stop offset="0.32" stop-color="#9C6528"/>
<stop offset="0.39" stop-color="#A16D2B"/>
<stop offset="0.49" stop-color="#B08132"/>
<stop offset="0.61" stop-color="#C8A443"/>
<stop offset="0.7" stop-color="#DFC34F"/>
<stop offset="0.8" stop-color="#DCC04D"/>
<stop offset="0.86" stop-color="#D6B647"/>
<stop offset="0.92" stop-color="#CCA73F"/>
<stop offset="0.98" stop-color="#BC902F"/>
<stop offset="1" stop-color="#B6872D"/>
</linearGradient>
<linearGradient id="paint34_linear_806_25206" x1="291.09" y1="136.329" x2="202.111" y2="15.0586" gradientUnits="userSpaceOnUse">
<stop stop-color="#AD7A2B"/>
<stop offset="0.02" stop-color="#AB772B"/>
<stop offset="0.18" stop-color="#9F6A29"/>
<stop offset="0.32" stop-color="#9C6528"/>
<stop offset="0.39" stop-color="#A16D2B"/>
<stop offset="0.49" stop-color="#B08132"/>
<stop offset="0.61" stop-color="#C8A443"/>
<stop offset="0.7" stop-color="#DFC34F"/>
<stop offset="0.8" stop-color="#DCC04D"/>
<stop offset="0.86" stop-color="#D6B647"/>
<stop offset="0.92" stop-color="#CCA73F"/>
<stop offset="0.98" stop-color="#BC902F"/>
<stop offset="1" stop-color="#B6872D"/>
</linearGradient>
<linearGradient id="paint35_linear_806_25206" x1="340.733" y1="99.905" x2="251.754" y2="-21.3654" gradientUnits="userSpaceOnUse">
<stop stop-color="#AD7A2B"/>
<stop offset="0.02" stop-color="#AB772B"/>
<stop offset="0.18" stop-color="#9F6A29"/>
<stop offset="0.32" stop-color="#9C6528"/>
<stop offset="0.39" stop-color="#A16D2B"/>
<stop offset="0.49" stop-color="#B08132"/>
<stop offset="0.61" stop-color="#C8A443"/>
<stop offset="0.7" stop-color="#DFC34F"/>
<stop offset="0.8" stop-color="#DCC04D"/>
<stop offset="0.86" stop-color="#D6B647"/>
<stop offset="0.92" stop-color="#CCA73F"/>
<stop offset="0.98" stop-color="#BC902F"/>
<stop offset="1" stop-color="#B6872D"/>
</linearGradient>
<linearGradient id="paint36_linear_806_25206" x1="294.881" y1="133.545" x2="205.902" y2="12.2748" gradientUnits="userSpaceOnUse">
<stop stop-color="#AD7A2B"/>
<stop offset="0.02" stop-color="#AB772B"/>
<stop offset="0.18" stop-color="#9F6A29"/>
<stop offset="0.32" stop-color="#9C6528"/>
<stop offset="0.39" stop-color="#A16D2B"/>
<stop offset="0.49" stop-color="#B08132"/>
<stop offset="0.61" stop-color="#C8A443"/>
<stop offset="0.7" stop-color="#DFC34F"/>
<stop offset="0.8" stop-color="#DCC04D"/>
<stop offset="0.86" stop-color="#D6B647"/>
<stop offset="0.92" stop-color="#CCA73F"/>
<stop offset="0.98" stop-color="#BC902F"/>
<stop offset="1" stop-color="#B6872D"/>
</linearGradient>
<linearGradient id="paint37_linear_806_25206" x1="336.665" y1="102.889" x2="247.686" y2="-18.3819" gradientUnits="userSpaceOnUse">
<stop stop-color="#AD7A2B"/>
<stop offset="0.02" stop-color="#AB772B"/>
<stop offset="0.18" stop-color="#9F6A29"/>
<stop offset="0.32" stop-color="#9C6528"/>
<stop offset="0.39" stop-color="#A16D2B"/>
<stop offset="0.49" stop-color="#B08132"/>
<stop offset="0.61" stop-color="#C8A443"/>
<stop offset="0.7" stop-color="#DFC34F"/>
<stop offset="0.8" stop-color="#DCC04D"/>
<stop offset="0.86" stop-color="#D6B647"/>
<stop offset="0.92" stop-color="#CCA73F"/>
<stop offset="0.98" stop-color="#BC902F"/>
<stop offset="1" stop-color="#B6872D"/>
</linearGradient>
<linearGradient id="paint38_linear_806_25206" x1="292.218" y1="135.501" x2="203.239" y2="14.2303" gradientUnits="userSpaceOnUse">
<stop stop-color="#AD7A2B"/>
<stop offset="0.02" stop-color="#AB772B"/>
<stop offset="0.18" stop-color="#9F6A29"/>
<stop offset="0.32" stop-color="#9C6528"/>
<stop offset="0.39" stop-color="#A16D2B"/>
<stop offset="0.49" stop-color="#B08132"/>
<stop offset="0.61" stop-color="#C8A443"/>
<stop offset="0.7" stop-color="#DFC34F"/>
<stop offset="0.8" stop-color="#DCC04D"/>
<stop offset="0.86" stop-color="#D6B647"/>
<stop offset="0.92" stop-color="#CCA73F"/>
<stop offset="0.98" stop-color="#BC902F"/>
<stop offset="1" stop-color="#B6872D"/>
</linearGradient>
<linearGradient id="paint39_linear_806_25206" x1="332.918" y1="105.637" x2="243.938" y2="-15.6336" gradientUnits="userSpaceOnUse">
<stop stop-color="#AD7A2B"/>
<stop offset="0.02" stop-color="#AB772B"/>
<stop offset="0.18" stop-color="#9F6A29"/>
<stop offset="0.32" stop-color="#9C6528"/>
<stop offset="0.39" stop-color="#A16D2B"/>
<stop offset="0.49" stop-color="#B08132"/>
<stop offset="0.61" stop-color="#C8A443"/>
<stop offset="0.7" stop-color="#DFC34F"/>
<stop offset="0.8" stop-color="#DCC04D"/>
<stop offset="0.86" stop-color="#D6B647"/>
<stop offset="0.92" stop-color="#CCA73F"/>
<stop offset="0.98" stop-color="#BC902F"/>
<stop offset="1" stop-color="#B6872D"/>
</linearGradient>
<linearGradient id="paint40_linear_806_25206" x1="288.028" y1="138.577" x2="199.049" y2="17.307" gradientUnits="userSpaceOnUse">
<stop stop-color="#AD7A2B"/>
<stop offset="0.02" stop-color="#AB772B"/>
<stop offset="0.18" stop-color="#9F6A29"/>
<stop offset="0.32" stop-color="#9C6528"/>
<stop offset="0.39" stop-color="#A16D2B"/>
<stop offset="0.49" stop-color="#B08132"/>
<stop offset="0.61" stop-color="#C8A443"/>
<stop offset="0.7" stop-color="#DFC34F"/>
<stop offset="0.8" stop-color="#DCC04D"/>
<stop offset="0.86" stop-color="#D6B647"/>
<stop offset="0.92" stop-color="#CCA73F"/>
<stop offset="0.98" stop-color="#BC902F"/>
<stop offset="1" stop-color="#B6872D"/>
</linearGradient>
<linearGradient id="paint41_linear_806_25206" x1="336.686" y1="102.874" x2="247.707" y2="-18.4029" gradientUnits="userSpaceOnUse">
<stop stop-color="#AD7A2B"/>
<stop offset="0.02" stop-color="#AB772B"/>
<stop offset="0.18" stop-color="#9F6A29"/>
<stop offset="0.32" stop-color="#9C6528"/>
<stop offset="0.39" stop-color="#A16D2B"/>
<stop offset="0.49" stop-color="#B08132"/>
<stop offset="0.61" stop-color="#C8A443"/>
<stop offset="0.7" stop-color="#DFC34F"/>
<stop offset="0.8" stop-color="#DCC04D"/>
<stop offset="0.86" stop-color="#D6B647"/>
<stop offset="0.92" stop-color="#CCA73F"/>
<stop offset="0.98" stop-color="#BC902F"/>
<stop offset="1" stop-color="#B6872D"/>
</linearGradient>
<linearGradient id="paint42_linear_806_25206" x1="290.855" y1="136.5" x2="201.876" y2="15.2298" gradientUnits="userSpaceOnUse">
<stop stop-color="#AD7A2B"/>
<stop offset="0.02" stop-color="#AB772B"/>
<stop offset="0.18" stop-color="#9F6A29"/>
<stop offset="0.32" stop-color="#9C6528"/>
<stop offset="0.39" stop-color="#A16D2B"/>
<stop offset="0.49" stop-color="#B08132"/>
<stop offset="0.61" stop-color="#C8A443"/>
<stop offset="0.7" stop-color="#DFC34F"/>
<stop offset="0.8" stop-color="#DCC04D"/>
<stop offset="0.86" stop-color="#D6B647"/>
<stop offset="0.92" stop-color="#CCA73F"/>
<stop offset="0.98" stop-color="#BC902F"/>
<stop offset="1" stop-color="#B6872D"/>
</linearGradient>
<linearGradient id="paint43_linear_806_25206" x1="328.513" y1="108.87" x2="239.534" y2="-12.4005" gradientUnits="userSpaceOnUse">
<stop stop-color="#AD7A2B"/>
<stop offset="0.02" stop-color="#AB772B"/>
<stop offset="0.18" stop-color="#9F6A29"/>
<stop offset="0.32" stop-color="#9C6528"/>
<stop offset="0.39" stop-color="#A16D2B"/>
<stop offset="0.49" stop-color="#B08132"/>
<stop offset="0.61" stop-color="#C8A443"/>
<stop offset="0.7" stop-color="#DFC34F"/>
<stop offset="0.8" stop-color="#DCC04D"/>
<stop offset="0.86" stop-color="#D6B647"/>
<stop offset="0.92" stop-color="#CCA73F"/>
<stop offset="0.98" stop-color="#BC902F"/>
<stop offset="1" stop-color="#B6872D"/>
</linearGradient>
<linearGradient id="paint44_linear_806_25206" x1="286.158" y1="139.948" x2="197.179" y2="18.6773" gradientUnits="userSpaceOnUse">
<stop stop-color="#AD7A2B"/>
<stop offset="0.02" stop-color="#AB772B"/>
<stop offset="0.18" stop-color="#9F6A29"/>
<stop offset="0.32" stop-color="#9C6528"/>
<stop offset="0.39" stop-color="#A16D2B"/>
<stop offset="0.49" stop-color="#B08132"/>
<stop offset="0.61" stop-color="#C8A443"/>
<stop offset="0.7" stop-color="#DFC34F"/>
<stop offset="0.8" stop-color="#DCC04D"/>
<stop offset="0.86" stop-color="#D6B647"/>
<stop offset="0.92" stop-color="#CCA73F"/>
<stop offset="0.98" stop-color="#BC902F"/>
<stop offset="1" stop-color="#B6872D"/>
</linearGradient>
<linearGradient id="paint45_linear_806_25206" x1="331.183" y1="106.907" x2="242.204" y2="-14.3632" gradientUnits="userSpaceOnUse">
<stop stop-color="#AD7A2B"/>
<stop offset="0.02" stop-color="#AB772B"/>
<stop offset="0.18" stop-color="#9F6A29"/>
<stop offset="0.32" stop-color="#9C6528"/>
<stop offset="0.39" stop-color="#A16D2B"/>
<stop offset="0.49" stop-color="#B08132"/>
<stop offset="0.61" stop-color="#C8A443"/>
<stop offset="0.7" stop-color="#DFC34F"/>
<stop offset="0.8" stop-color="#DCC04D"/>
<stop offset="0.86" stop-color="#D6B647"/>
<stop offset="0.92" stop-color="#CCA73F"/>
<stop offset="0.98" stop-color="#BC902F"/>
<stop offset="1" stop-color="#B6872D"/>
</linearGradient>
<linearGradient id="paint46_linear_806_25206" x1="290.676" y1="136.636" x2="201.69" y2="15.3652" gradientUnits="userSpaceOnUse">
<stop stop-color="#AD7A2B"/>
<stop offset="0.02" stop-color="#AB772B"/>
<stop offset="0.18" stop-color="#9F6A29"/>
<stop offset="0.32" stop-color="#9C6528"/>
<stop offset="0.39" stop-color="#A16D2B"/>
<stop offset="0.49" stop-color="#B08132"/>
<stop offset="0.61" stop-color="#C8A443"/>
<stop offset="0.7" stop-color="#DFC34F"/>
<stop offset="0.8" stop-color="#DCC04D"/>
<stop offset="0.86" stop-color="#D6B647"/>
<stop offset="0.92" stop-color="#CCA73F"/>
<stop offset="0.98" stop-color="#BC902F"/>
<stop offset="1" stop-color="#B6872D"/>
</linearGradient>
<linearGradient id="paint47_linear_806_25206" x1="322.632" y1="113.188" x2="233.653" y2="-8.08187" gradientUnits="userSpaceOnUse">
<stop stop-color="#AD7A2B"/>
<stop offset="0.02" stop-color="#AB772B"/>
<stop offset="0.18" stop-color="#9F6A29"/>
<stop offset="0.32" stop-color="#9C6528"/>
<stop offset="0.39" stop-color="#A16D2B"/>
<stop offset="0.49" stop-color="#B08132"/>
<stop offset="0.61" stop-color="#C8A443"/>
<stop offset="0.7" stop-color="#DFC34F"/>
<stop offset="0.8" stop-color="#DCC04D"/>
<stop offset="0.86" stop-color="#D6B647"/>
<stop offset="0.92" stop-color="#CCA73F"/>
<stop offset="0.98" stop-color="#BC902F"/>
<stop offset="1" stop-color="#B6872D"/>
</linearGradient>
<linearGradient id="paint48_linear_806_25206" x1="292.247" y1="135.479" x2="203.268" y2="14.2091" gradientUnits="userSpaceOnUse">
<stop stop-color="#AD7A2B"/>
<stop offset="0.02" stop-color="#AB772B"/>
<stop offset="0.18" stop-color="#9F6A29"/>
<stop offset="0.32" stop-color="#9C6528"/>
<stop offset="0.39" stop-color="#A16D2B"/>
<stop offset="0.49" stop-color="#B08132"/>
<stop offset="0.61" stop-color="#C8A443"/>
<stop offset="0.7" stop-color="#DFC34F"/>
<stop offset="0.8" stop-color="#DCC04D"/>
<stop offset="0.86" stop-color="#D6B647"/>
<stop offset="0.92" stop-color="#CCA73F"/>
<stop offset="0.98" stop-color="#BC902F"/>
<stop offset="1" stop-color="#B6872D"/>
</linearGradient>
<linearGradient id="paint49_linear_806_25206" x1="316.072" y1="117.999" x2="227.093" y2="-3.27118" gradientUnits="userSpaceOnUse">
<stop stop-color="#AD7A2B"/>
<stop offset="0.02" stop-color="#AB772B"/>
<stop offset="0.18" stop-color="#9F6A29"/>
<stop offset="0.32" stop-color="#9C6528"/>
<stop offset="0.39" stop-color="#A16D2B"/>
<stop offset="0.49" stop-color="#B08132"/>
<stop offset="0.61" stop-color="#C8A443"/>
<stop offset="0.7" stop-color="#DFC34F"/>
<stop offset="0.8" stop-color="#DCC04D"/>
<stop offset="0.86" stop-color="#D6B647"/>
<stop offset="0.92" stop-color="#CCA73F"/>
<stop offset="0.98" stop-color="#BC902F"/>
<stop offset="1" stop-color="#B6872D"/>
</linearGradient>
<linearGradient id="paint50_linear_806_25206" x1="285.458" y1="140.462" x2="196.48" y2="19.1913" gradientUnits="userSpaceOnUse">
<stop stop-color="#AD7A2B"/>
<stop offset="0.02" stop-color="#AB772B"/>
<stop offset="0.18" stop-color="#9F6A29"/>
<stop offset="0.32" stop-color="#9C6528"/>
<stop offset="0.39" stop-color="#A16D2B"/>
<stop offset="0.49" stop-color="#B08132"/>
<stop offset="0.61" stop-color="#C8A443"/>
<stop offset="0.7" stop-color="#DFC34F"/>
<stop offset="0.8" stop-color="#DCC04D"/>
<stop offset="0.86" stop-color="#D6B647"/>
<stop offset="0.92" stop-color="#CCA73F"/>
<stop offset="0.98" stop-color="#BC902F"/>
<stop offset="1" stop-color="#B6872D"/>
</linearGradient>
<linearGradient id="paint51_linear_806_25206" x1="324.395" y1="111.896" x2="235.409" y2="-9.37407" gradientUnits="userSpaceOnUse">
<stop stop-color="#AD7A2B"/>
<stop offset="0.02" stop-color="#AB772B"/>
<stop offset="0.18" stop-color="#9F6A29"/>
<stop offset="0.32" stop-color="#9C6528"/>
<stop offset="0.39" stop-color="#A16D2B"/>
<stop offset="0.49" stop-color="#B08132"/>
<stop offset="0.61" stop-color="#C8A443"/>
<stop offset="0.7" stop-color="#DFC34F"/>
<stop offset="0.8" stop-color="#DCC04D"/>
<stop offset="0.86" stop-color="#D6B647"/>
<stop offset="0.92" stop-color="#CCA73F"/>
<stop offset="0.98" stop-color="#BC902F"/>
<stop offset="1" stop-color="#B6872D"/>
</linearGradient>
<linearGradient id="paint52_linear_806_25206" x1="296.058" y1="132.688" x2="207.079" y2="11.4111" gradientUnits="userSpaceOnUse">
<stop stop-color="#AD7A2B"/>
<stop offset="0.02" stop-color="#AB772B"/>
<stop offset="0.18" stop-color="#9F6A29"/>
<stop offset="0.32" stop-color="#9C6528"/>
<stop offset="0.39" stop-color="#A16D2B"/>
<stop offset="0.49" stop-color="#B08132"/>
<stop offset="0.61" stop-color="#C8A443"/>
<stop offset="0.7" stop-color="#DFC34F"/>
<stop offset="0.8" stop-color="#DCC04D"/>
<stop offset="0.86" stop-color="#D6B647"/>
<stop offset="0.92" stop-color="#CCA73F"/>
<stop offset="0.98" stop-color="#BC902F"/>
<stop offset="1" stop-color="#B6872D"/>
</linearGradient>
<linearGradient id="paint53_linear_806_25206" x1="308.913" y1="123.252" x2="219.934" y2="1.98224" gradientUnits="userSpaceOnUse">
<stop stop-color="#AD7A2B"/>
<stop offset="0.02" stop-color="#AB772B"/>
<stop offset="0.18" stop-color="#9F6A29"/>
<stop offset="0.32" stop-color="#9C6528"/>
<stop offset="0.39" stop-color="#A16D2B"/>
<stop offset="0.49" stop-color="#B08132"/>
<stop offset="0.61" stop-color="#C8A443"/>
<stop offset="0.7" stop-color="#DFC34F"/>
<stop offset="0.8" stop-color="#DCC04D"/>
<stop offset="0.86" stop-color="#D6B647"/>
<stop offset="0.92" stop-color="#CCA73F"/>
<stop offset="0.98" stop-color="#BC902F"/>
<stop offset="1" stop-color="#B6872D"/>
</linearGradient>
<linearGradient id="paint54_linear_806_25206" x1="286.601" y1="139.619" x2="197.621" y2="18.3491" gradientUnits="userSpaceOnUse">
<stop stop-color="#AD7A2B"/>
<stop offset="0.02" stop-color="#AB772B"/>
<stop offset="0.18" stop-color="#9F6A29"/>
<stop offset="0.32" stop-color="#9C6528"/>
<stop offset="0.39" stop-color="#A16D2B"/>
<stop offset="0.49" stop-color="#B08132"/>
<stop offset="0.61" stop-color="#C8A443"/>
<stop offset="0.7" stop-color="#DFC34F"/>
<stop offset="0.8" stop-color="#DCC04D"/>
<stop offset="0.86" stop-color="#D6B647"/>
<stop offset="0.92" stop-color="#CCA73F"/>
<stop offset="0.98" stop-color="#BC902F"/>
<stop offset="1" stop-color="#B6872D"/>
</linearGradient>
<linearGradient id="paint55_linear_806_25206" x1="316.315" y1="117.828" x2="227.329" y2="-3.44238" gradientUnits="userSpaceOnUse">
<stop stop-color="#AD7A2B"/>
<stop offset="0.02" stop-color="#AB772B"/>
<stop offset="0.18" stop-color="#9F6A29"/>
<stop offset="0.32" stop-color="#9C6528"/>
<stop offset="0.39" stop-color="#A16D2B"/>
<stop offset="0.49" stop-color="#B08132"/>
<stop offset="0.61" stop-color="#C8A443"/>
<stop offset="0.7" stop-color="#DFC34F"/>
<stop offset="0.8" stop-color="#DCC04D"/>
<stop offset="0.86" stop-color="#D6B647"/>
<stop offset="0.92" stop-color="#CCA73F"/>
<stop offset="0.98" stop-color="#BC902F"/>
<stop offset="1" stop-color="#B6872D"/>
</linearGradient>
<linearGradient id="paint56_linear_806_25206" x1="290.455" y1="136.793" x2="201.476" y2="15.5224" gradientUnits="userSpaceOnUse">
<stop stop-color="#EDA93D"/>
<stop offset="0.02" stop-color="#AB772B"/>
<stop offset="0.18" stop-color="#9F6A29"/>
<stop offset="0.32" stop-color="#9C6528"/>
<stop offset="0.39" stop-color="#A16D2B"/>
<stop offset="0.49" stop-color="#B08132"/>
<stop offset="0.61" stop-color="#C8A443"/>
<stop offset="0.7" stop-color="#DFC34F"/>
<stop offset="0.8" stop-color="#DCC04D"/>
<stop offset="0.86" stop-color="#D6B647"/>
<stop offset="0.92" stop-color="#CCA73F"/>
<stop offset="0.98" stop-color="#BC902F"/>
<stop offset="1" stop-color="#B6872D"/>
</linearGradient>
<linearGradient id="paint57_linear_806_25206" x1="306.965" y1="124.68" x2="217.986" y2="3.40973" gradientUnits="userSpaceOnUse">
<stop stop-color="#AD7A2B"/>
<stop offset="0.02" stop-color="#AB772B"/>
<stop offset="0.18" stop-color="#9F6A29"/>
<stop offset="0.32" stop-color="#9C6528"/>
<stop offset="0.39" stop-color="#A16D2B"/>
<stop offset="0.49" stop-color="#B08132"/>
<stop offset="0.61" stop-color="#C8A443"/>
<stop offset="0.7" stop-color="#DFC34F"/>
<stop offset="0.8" stop-color="#DCC04D"/>
<stop offset="0.86" stop-color="#D6B647"/>
<stop offset="0.92" stop-color="#CCA73F"/>
<stop offset="0.98" stop-color="#BC902F"/>
<stop offset="1" stop-color="#B6872D"/>
</linearGradient>
<linearGradient id="paint58_linear_806_25206" x1="297.935" y1="131.304" x2="208.956" y2="10.0336" gradientUnits="userSpaceOnUse">
<stop stop-color="#AD7A2B"/>
<stop offset="0.02" stop-color="#AB772B"/>
<stop offset="0.18" stop-color="#9F6A29"/>
<stop offset="0.32" stop-color="#9C6528"/>
<stop offset="0.39" stop-color="#A16D2B"/>
<stop offset="0.49" stop-color="#B08132"/>
<stop offset="0.61" stop-color="#C8A443"/>
<stop offset="0.7" stop-color="#DFC34F"/>
<stop offset="0.8" stop-color="#DCC04D"/>
<stop offset="0.86" stop-color="#D6B647"/>
<stop offset="0.92" stop-color="#CCA73F"/>
<stop offset="0.98" stop-color="#BC902F"/>
<stop offset="1" stop-color="#B6872D"/>
</linearGradient>
</defs>
</svg>
