<svg width="182" height="289" viewBox="0 0 182 289" fill="none" xmlns="http://www.w3.org/2000/svg">
<g clip-path="url(#clip0_806_25207)">
<path d="M61.3549 248.476C60.9231 251.35 60.7051 254.595 60.7051 258.215L60.4085 258.512L38.9553 258.333C35.3746 258.333 32.8451 258.394 31.371 258.512L31.0744 258.215V257.391L31.2227 257.038C32.6793 256.113 33.4644 255.533 33.5821 255.297C33.761 254.922 33.8656 253.614 33.9049 251.372L33.9921 244.76V229.797C33.9921 225.113 33.8656 222.064 33.6083 220.647C33.508 220.076 33.1765 219.714 32.6052 219.557C32.3086 219.478 31.1573 219.378 29.1511 219.26L28.8545 218.963V216.957L29.1511 216.691C31.1398 216.809 34.2058 216.87 38.3578 216.87C42.0561 216.87 49.0909 216.813 59.4577 216.691L59.7805 216.927L59.3967 220.202C59.2789 221.244 59.1917 222.13 59.1306 222.858L58.9257 225.601L58.6291 225.924H56.9195L56.6229 225.627C56.6011 222.954 56.4441 221.428 56.1519 221.052C55.9338 220.778 54.8784 220.56 52.9812 220.403C51.084 220.246 49.4137 220.167 47.9788 220.167C46.2692 220.167 44.5377 220.237 42.7845 220.372C42.5664 222.439 42.4617 225.3 42.4617 228.959V235.07C44.0144 235.17 45.2748 235.218 46.2386 235.218L50.1027 235.187C51.9127 235.17 52.9376 235.022 53.1731 234.747C53.4871 234.394 53.6921 233.063 53.7924 230.765L54.089 230.469H55.9207L56.2173 230.765C56.1388 232.968 56.0995 234.987 56.0995 236.814C56.0995 238.803 56.1388 240.975 56.2173 243.334L55.9207 243.6H53.945L53.6485 243.304C53.6485 241.04 53.4915 239.697 53.1775 239.274C52.8634 238.851 51.9083 238.572 50.3164 238.432C49.1171 238.332 47.8392 238.284 46.4785 238.284C45.0436 238.284 43.7047 238.332 42.4661 238.432V247.434C42.4661 250.012 42.5141 252.511 42.6144 254.931H46.6268C52.3706 254.931 55.8946 254.704 57.1899 254.251C57.4079 254.172 57.5649 254.063 57.6609 253.928C57.8571 253.653 58.0447 253.064 58.2235 252.157L58.93 248.498L59.2266 248.171H61.0278L61.3505 248.468L61.3549 248.476Z" fill="#317B3C"/>
<path d="M111.052 243.43L110.755 243.753C109.534 244.05 108.828 244.455 108.631 244.979C108.435 245.502 108.335 247.491 108.335 250.954C108.335 252.624 108.413 254.277 108.57 255.912C101.998 258.39 96.036 259.633 90.689 259.633C83.6455 259.633 77.9453 257.661 73.5884 253.714C69.2314 249.772 67.0508 244.394 67.0508 237.586C67.0508 228.715 70.8974 222.387 78.5908 218.61C82.1103 216.879 86.5894 216.015 92.0192 216.015C95.1681 216.015 98.3518 216.36 101.579 217.049C104.235 217.62 106.329 218.27 107.864 218.998L108.13 219.53C107.62 221.262 107.197 224.271 106.861 228.563L106.538 228.859H104.767L104.471 228.563C104.471 228.188 104.431 227.416 104.353 226.247C104.274 225.078 104.174 224.254 104.056 223.783C103.189 222.601 101.714 221.598 99.6297 220.773C97.388 219.91 94.9675 219.474 92.3681 219.474C85.4031 219.474 80.5926 222.287 77.9366 227.913C76.7154 230.508 76.1092 233.521 76.1092 236.945C76.1092 242.414 77.5659 246.95 80.4749 250.548C83.506 254.286 87.4486 256.157 92.3071 256.157C94.8846 256.157 97.3749 255.607 99.7736 254.504C99.9088 253.125 99.9786 251.237 99.9786 248.838C99.9786 246.889 99.9088 245.711 99.7736 245.297C99.6559 244.983 99.2808 244.756 98.6528 244.617C98.1207 244.499 96.459 244.351 93.6634 244.176L93.3407 243.879V242.022L93.6634 241.725C96.5157 241.804 99.5076 241.834 102.635 241.812C104.445 241.795 107.149 241.764 110.751 241.725L111.048 242.022V243.439L111.052 243.43Z" fill="#317B3C"/>
<path d="M153.753 218.078C150.644 222.309 147.242 227.49 143.544 233.63C141.459 237.093 140.308 239.305 140.089 240.268C139.972 240.779 139.911 241.52 139.911 242.484V245.406C139.911 251.172 140.089 254.377 140.443 255.027C140.6 255.302 140.827 255.481 141.123 255.559C141.616 255.699 142.824 255.825 144.752 255.943L145.048 256.239V258.215L144.752 258.512C142.802 258.394 139.775 258.333 135.663 258.333C131.55 258.333 128.423 258.394 126.574 258.512L126.308 258.246V256.239L126.604 255.943C128.532 255.825 129.74 255.699 130.233 255.559C130.529 255.481 130.752 255.302 130.913 255.027C131.267 254.377 131.445 251.172 131.445 245.406V241.926C131.445 241.18 129.901 238.188 126.814 232.954C123.665 227.625 121.157 224.005 119.29 222.095C118.383 221.17 117.777 220.643 117.459 220.516C117.145 220.39 116.408 220.324 115.243 220.324L114.92 220.001V218.348L115.217 218.026C120.019 217.079 123.098 216.412 124.454 216.02C125.479 216.512 126.391 217.149 127.197 217.939C128.868 219.57 131.114 223.211 133.927 228.859L137.791 236.592C138.951 234.721 141.167 230.966 144.429 225.318L147.704 219.443C148.058 218.793 148.542 217.899 149.152 216.757H153.461L153.758 217.053V218.087L153.753 218.078Z" fill="#317B3C"/>
<path d="M27.3627 262.533L27.4674 262.441C29.635 262.511 30.8823 262.546 31.2138 262.546C31.5103 262.546 32.762 262.511 34.9732 262.441L35.0779 262.533V263.187L34.9732 263.279C34.3713 263.296 33.9047 263.322 33.5776 263.357C33.2505 263.392 33.0106 263.457 32.8623 263.553C32.714 263.649 32.6137 263.876 32.5658 264.229C32.5178 264.583 32.4916 265.075 32.4916 265.703L32.4654 268.717V274.509C32.4654 275.957 32.4742 276.973 32.4916 277.549L32.557 279.817H35.2305C37.3632 279.817 38.689 279.79 39.2211 279.738C39.7488 279.686 40.2591 279.559 40.7476 279.359C40.8435 279.141 40.9831 278.639 41.1619 277.85C41.3407 277.065 41.4366 276.611 41.4454 276.489L41.5631 276.384H42.2042L42.2958 276.489C42.226 276.838 42.1519 277.514 42.0778 278.521C42.0036 279.524 41.9644 280.34 41.9644 280.959L41.8597 281.064C40.2024 281.012 38.0217 280.985 35.3221 280.985L31.4972 280.959C30.625 280.959 29.7309 280.994 28.8238 281.064L28.7191 280.959V280.527L28.8238 280.397C29.3646 280.118 29.6611 279.947 29.7135 279.886C29.7658 279.825 29.8181 279.263 29.8792 278.194C29.9359 277.13 29.9664 275.843 29.9664 274.343V268.726L29.9403 266.17C29.9315 265.176 29.9097 264.535 29.8661 264.242C29.8269 263.955 29.7658 263.763 29.6829 263.667C29.6001 263.571 29.4387 263.492 29.2032 263.431C28.9677 263.37 28.3876 263.322 27.4587 263.287L27.354 263.196V262.541L27.3627 262.533Z" fill="#9DAF4C"/>
<path d="M46.0422 272.071L45.5319 271.94L45.4273 271.809V270.187C46.9799 269.035 48.4933 268.46 49.9587 268.46C50.9618 268.46 51.7948 268.647 52.4621 269.022C53.125 269.397 53.6047 269.868 53.9013 270.431C54.1978 270.994 54.3461 271.652 54.3461 272.402L54.2807 275.037V278.94C54.2807 279.472 54.3156 279.795 54.3941 279.908C54.4682 280.022 54.5555 280.1 54.6514 280.139C54.7474 280.179 54.9262 280.213 55.1879 280.235L55.9336 280.301L56.0383 280.418V280.942L55.9336 281.046C55.2969 280.994 54.7038 280.968 54.1542 280.968C53.6047 280.968 53.0028 280.994 52.2658 281.046L52.0695 280.863L52.1219 278.752L49.2652 280.981C48.7855 281.182 48.2621 281.282 47.6951 281.282C46.9973 281.282 46.3955 281.155 45.8939 280.903C45.3924 280.65 45.0086 280.296 44.7425 279.843C44.4765 279.389 44.3413 278.84 44.3413 278.19C44.3413 276.908 44.7425 275.904 45.545 275.185C46.3475 274.465 48.5412 273.85 52.1219 273.344C52.1219 272.053 51.834 271.142 51.2583 270.614C50.6826 270.086 49.9107 269.82 48.9381 269.82C48.4322 269.82 47.9699 269.895 47.5556 270.043C47.1413 270.191 46.9014 270.313 46.8403 270.405C46.7793 270.496 46.5438 271.033 46.1338 272.01L46.0422 272.075V272.071ZM52.1219 274.143C49.6752 274.552 48.1531 274.993 47.5512 275.464C46.9494 275.935 46.6484 276.663 46.6484 277.653C46.6484 279.014 47.3244 279.699 48.6808 279.699C49.8409 279.699 50.9923 279.027 52.1262 277.684V274.147L52.1219 274.143Z" fill="#9DAF4C"/>
<path d="M61.1584 268.469L61.407 268.639C61.3547 269.223 61.3198 269.991 61.3024 270.946C62.0002 270.37 62.6631 269.786 63.2955 269.193C63.4787 269.027 63.6531 268.905 63.8145 268.826C63.9758 268.748 64.2462 268.665 64.6213 268.578C64.9964 268.49 65.3802 268.447 65.7727 268.447C66.4356 268.447 67.0811 268.582 67.7048 268.852C68.3284 269.123 68.7994 269.445 69.1178 269.816C69.4362 270.187 69.6586 270.627 69.7807 271.133C69.9028 271.639 69.9639 272.263 69.9639 273.004V275.311C69.9639 275.46 69.9857 276.546 70.0293 278.574C70.0468 279.402 70.1384 279.895 70.3041 280.052C70.4698 280.209 71.0106 280.288 71.9265 280.288L72.0312 280.392V280.955L71.9265 281.06C70.8187 280.99 70.0642 280.955 69.6717 280.955C69.4449 280.955 68.8082 280.99 67.7571 281.06L67.6001 280.916C67.7135 279.782 67.7702 278.299 67.7702 276.476V274.762C67.7702 273.733 67.744 272.987 67.696 272.533C67.6481 272.08 67.4998 271.665 67.2555 271.295C67.0113 270.924 66.6842 270.636 66.2742 270.431C65.8643 270.226 65.3758 270.122 64.8089 270.122C64.3553 270.122 63.9671 270.165 63.6444 270.261C63.3216 270.353 62.9597 270.54 62.5584 270.824C62.1572 271.107 61.8606 271.373 61.6687 271.622C61.4768 271.87 61.3591 272.102 61.3198 272.315C61.2806 272.529 61.2588 272.987 61.2588 273.685V275.966C61.2588 276.158 61.2762 276.777 61.3111 277.819C61.346 278.862 61.3852 279.472 61.4245 279.647C61.4637 279.821 61.5248 279.948 61.6033 280.026C61.6818 280.105 61.7777 280.157 61.8911 280.179C62.0045 280.2 62.4756 280.235 63.3042 280.288L63.422 280.392V280.942L63.3173 281.06C62.227 280.99 61.1715 280.955 60.1597 280.955C59.1479 280.955 58.1055 280.99 57.0152 281.06L56.8975 280.942V280.392L57.0152 280.288C57.8613 280.235 58.341 280.196 58.4501 280.17C58.5591 280.144 58.6551 280.087 58.7379 280.004C58.8208 279.921 58.8775 279.795 58.908 279.625C58.9385 279.455 58.9734 278.892 59.0127 277.933C59.0519 276.977 59.0737 276.253 59.0737 275.765V273.183C59.0737 272.834 59.0563 272.359 59.0214 271.757C58.9865 271.155 58.956 270.784 58.9342 270.645C58.9124 270.505 58.8426 270.401 58.7292 270.335C58.6158 270.27 58.389 270.235 58.0488 270.235L56.9498 270.222L56.832 270.117V269.555L56.9367 269.45C58.6027 269.249 60.0114 268.922 61.1541 268.469H61.1584Z" fill="#9DAF4C"/>
<path d="M81.1112 263.187V262.637L81.2158 262.52C82.8819 262.328 84.2906 262.005 85.4332 261.552L85.6818 261.709C85.5859 262.712 85.5379 264.727 85.5379 267.749V276.328C85.5379 277.209 85.551 277.981 85.5815 278.639C85.612 279.298 85.6687 279.69 85.7472 279.812C85.8257 279.934 85.9566 280.035 86.1354 280.113C86.3142 280.192 86.8245 280.266 87.6618 280.336L87.7796 280.44V280.937L87.6618 281.055C86.7198 280.994 85.9871 280.964 85.4594 280.964C84.9884 280.964 84.3167 280.994 83.4401 281.055L83.2962 280.911C83.3223 280.056 83.3354 279.459 83.3354 279.114C83.3354 279.071 83.3354 278.905 83.3485 278.617C82.8688 278.966 82.389 279.354 81.9093 279.782C81.2028 280.41 80.7405 280.802 80.5224 280.959C80.1212 281.16 79.5498 281.26 78.8084 281.26C77.6047 281.26 76.5798 280.964 75.738 280.371C74.8963 279.777 74.2945 279.019 73.9368 278.098C73.5792 277.178 73.4004 276.232 73.4004 275.263C73.4004 274.295 73.5879 273.327 73.9586 272.415C74.3293 271.504 74.8571 270.837 75.5418 270.418C76.2265 269.999 76.9723 269.563 77.7835 269.114C78.5903 268.665 79.3928 268.438 80.1866 268.438C81.2943 268.438 82.3541 268.713 83.3572 269.262L83.3049 266.34C83.2875 265.328 83.2613 264.622 83.2264 264.225C83.1915 263.828 83.1479 263.593 83.0956 263.518C83.0432 263.444 82.9516 263.392 82.8252 263.353C82.6987 263.318 82.1666 263.3 81.2333 263.3L81.1155 263.183L81.1112 263.187ZM83.3485 271.508C82.8077 270.898 82.2059 270.431 81.5473 270.108C80.8887 269.786 80.2258 269.624 79.5629 269.624C78.8302 269.624 78.1455 269.825 77.5131 270.222C76.8807 270.619 76.4228 271.207 76.1436 271.992C75.8645 272.773 75.725 273.624 75.725 274.539C75.725 276.066 76.1131 277.296 76.8851 278.22C77.657 279.145 78.6296 279.607 79.7984 279.607C80.4352 279.607 81.0021 279.463 81.495 279.167C81.9878 278.87 82.3934 278.478 82.7118 277.981C83.0301 277.483 83.2177 276.986 83.27 276.489C83.3223 275.992 83.3485 275.08 83.3485 273.75V271.508Z" fill="#9DAF4C"/>
<path d="M90.0042 277.1H90.5668L90.6845 277.217C90.702 277.95 90.7456 278.578 90.8154 279.106C91.0858 279.516 91.5524 279.852 92.2154 280.109C92.8783 280.366 93.5325 280.497 94.1823 280.497C95.1069 280.497 95.8483 280.248 96.4022 279.751C96.9561 279.254 97.2352 278.661 97.2352 277.972C97.2352 277.597 97.1349 277.27 96.9343 276.995C96.7337 276.72 96.4284 276.493 96.0228 276.315C95.6172 276.136 94.8888 275.922 93.8421 275.678C92.9437 275.468 92.3157 275.303 91.9537 275.185C91.596 275.067 91.2515 274.867 90.92 274.587C90.5886 274.308 90.3356 273.964 90.1612 273.558C89.9867 273.153 89.8995 272.703 89.8995 272.215C89.8995 271.046 90.3662 270.108 91.2951 269.406C92.2241 268.704 93.3842 268.351 94.7711 268.351C95.3555 268.351 95.9922 268.434 96.6857 268.595C97.3748 268.756 97.8981 268.913 98.2558 269.062L98.3735 269.245C98.3037 269.594 98.2601 270.51 98.2427 271.997L98.1249 272.115H97.6016L97.4838 271.997C97.4489 271.465 97.4009 271.09 97.3399 270.876C97.2788 270.662 97.1218 270.431 96.8689 270.183C96.6159 269.934 96.2583 269.725 95.796 269.555C95.3337 269.384 94.8452 269.297 94.3306 269.297C93.8159 269.297 93.3493 269.376 92.9873 269.533C92.6253 269.69 92.3331 269.93 92.1107 270.248C91.8883 270.566 91.7749 270.955 91.7749 271.408C91.7749 271.74 91.8403 272.036 91.9798 272.298C92.115 272.559 92.3244 272.773 92.6035 272.935C92.8826 273.096 93.1748 273.214 93.4801 273.283L94.9063 273.65C96.1274 273.946 97.0041 274.204 97.5318 274.422C98.0595 274.64 98.4695 274.971 98.7573 275.412C99.0451 275.852 99.1891 276.389 99.1891 277.017C99.1891 278.22 98.6919 279.258 97.6975 280.122C96.7031 280.986 95.4209 281.417 93.8596 281.417C93.31 281.417 92.6253 281.356 91.8098 281.234C90.9942 281.112 90.2964 280.977 89.7207 280.829L89.6553 280.658L89.7861 279.782C89.8297 279.511 89.8559 279.237 89.8646 278.962C89.8733 278.687 89.8821 278.107 89.8908 277.226L90.0085 277.108L90.0042 277.1Z" fill="#9DAF4C"/>
<path d="M111.422 279.551L110.899 280.427C109.774 281.047 108.513 281.356 107.126 281.356C105.203 281.356 103.72 280.785 102.674 279.642C101.627 278.5 101.104 277.021 101.104 275.216C101.104 274.396 101.195 273.663 101.374 273.022C101.553 272.381 101.78 271.849 102.054 271.43C102.329 271.011 102.634 270.68 102.966 270.436C103.297 270.191 103.86 269.851 104.649 269.415C105.439 268.979 106.036 268.691 106.437 268.556C106.839 268.421 107.393 268.351 108.099 268.351C109.451 268.351 110.563 268.608 111.427 269.123C111.261 270.108 111.135 271.212 111.047 272.424L110.93 272.529H110.393L110.275 272.411C110.24 271.679 110.192 271.186 110.131 270.933C110.07 270.68 109.721 270.409 109.089 270.122C108.457 269.834 107.781 269.69 107.065 269.69C106.35 269.69 105.713 269.838 105.151 270.143C104.593 270.444 104.17 270.937 103.886 271.622C103.603 272.307 103.459 273.126 103.459 274.077C103.459 274.88 103.572 275.665 103.799 276.428C104.026 277.191 104.327 277.824 104.697 278.329C105.068 278.831 105.561 279.237 106.171 279.542C106.782 279.847 107.462 280 108.217 280C108.688 280 109.15 279.939 109.599 279.817C110.049 279.695 110.568 279.494 111.152 279.215L111.427 279.555L111.422 279.551Z" fill="#9DAF4C"/>
<path d="M114.737 272.071L114.227 271.94L114.122 271.809V270.187C115.675 269.035 117.188 268.46 118.653 268.46C119.657 268.46 120.49 268.647 121.157 269.022C121.82 269.397 122.3 269.868 122.596 270.431C122.893 270.994 123.041 271.652 123.041 272.402L122.976 275.037V278.94C122.976 279.472 123.01 279.795 123.089 279.908C123.163 280.022 123.25 280.1 123.346 280.139C123.442 280.179 123.621 280.213 123.883 280.235L124.628 280.301L124.733 280.418V280.942L124.628 281.046C123.992 280.994 123.399 280.968 122.849 280.968C122.3 280.968 121.698 280.994 120.961 281.046L120.764 280.863L120.817 278.752L117.96 280.981C117.48 281.182 116.957 281.282 116.39 281.282C115.692 281.282 115.09 281.155 114.589 280.903C114.087 280.65 113.703 280.296 113.437 279.843C113.171 279.389 113.036 278.84 113.036 278.19C113.036 276.908 113.437 275.904 114.24 275.185C115.042 274.465 117.236 273.85 120.817 273.344C120.817 272.053 120.529 271.142 119.953 270.614C119.377 270.086 118.606 269.82 117.633 269.82C117.127 269.82 116.665 269.895 116.25 270.043C115.836 270.191 115.596 270.313 115.535 270.405C115.474 270.496 115.239 271.033 114.829 272.01L114.737 272.075V272.071ZM120.817 274.143C118.37 274.552 116.848 274.993 116.246 275.464C115.644 275.935 115.343 276.663 115.343 277.653C115.343 279.014 116.019 279.699 117.376 279.699C118.536 279.699 119.687 279.027 120.821 277.684V274.147L120.817 274.143Z" fill="#9DAF4C"/>
<path d="M130.224 268.312L130.473 268.469C130.385 269.463 130.337 270.348 130.329 271.116C131.515 270.034 132.344 269.319 132.81 268.966C133.277 268.617 134.084 268.442 135.226 268.442C135.942 268.442 136.591 268.538 137.18 268.739C137.765 268.935 138.305 269.258 138.803 269.707C139.3 270.156 139.692 270.719 139.98 271.395C140.268 272.071 140.412 272.856 140.412 273.746C140.412 274.374 140.312 275.01 140.111 275.66C139.91 276.306 139.644 276.903 139.317 277.457C138.99 278.011 138.729 278.373 138.532 278.552C138.336 278.731 137.93 279.001 137.32 279.359C136.77 279.69 136.225 280.048 135.684 280.432C135.309 280.702 135.048 280.876 134.899 280.955C134.751 281.033 134.502 281.112 134.153 281.19C133.805 281.269 133.434 281.308 133.041 281.308C132.134 281.308 131.227 281.077 130.329 280.615V283.406C130.329 283.598 130.346 284.217 130.381 285.26C130.416 286.302 130.455 286.912 130.494 287.087C130.534 287.261 130.595 287.388 130.673 287.466C130.752 287.545 130.848 287.597 130.961 287.619C131.074 287.641 131.545 287.68 132.374 287.732L132.492 287.837V288.387L132.387 288.504C131.297 288.435 130.246 288.4 129.243 288.4C128.24 288.4 127.189 288.435 126.098 288.504L125.98 288.387V287.837L126.098 287.732C126.936 287.68 127.411 287.641 127.524 287.615C127.638 287.588 127.738 287.532 127.821 287.449C127.904 287.366 127.96 287.231 127.991 287.048C128.022 286.864 128.056 286.28 128.096 285.294C128.135 284.309 128.157 283.567 128.157 283.066V273.03C128.157 272.577 128.139 272.049 128.096 271.452C128.056 270.854 128.022 270.505 127.995 270.409C127.969 270.313 127.904 270.235 127.803 270.174C127.703 270.113 127.476 270.082 127.127 270.082L126.028 270.069L125.911 269.964V269.402L126.015 269.297C127.681 269.097 129.086 268.769 130.22 268.316L130.224 268.312ZM130.329 278.36C130.73 278.77 131.227 279.128 131.82 279.428C132.413 279.729 133.068 279.882 133.787 279.882C134.633 279.882 135.383 279.668 136.033 279.241C136.683 278.814 137.189 278.186 137.547 277.361C137.904 276.537 138.083 275.621 138.083 274.618C138.083 273.807 137.922 273.052 137.603 272.35C137.285 271.652 136.792 271.103 136.125 270.702C135.458 270.3 134.747 270.1 133.996 270.1C133.534 270.1 133.085 270.183 132.649 270.344C132.213 270.505 131.803 270.745 131.423 271.059C131.044 271.373 130.769 271.674 130.603 271.958C130.438 272.241 130.35 272.477 130.342 272.664C130.333 272.852 130.329 273.061 130.329 273.288V278.369V278.36Z" fill="#9DAF4C"/>
<path d="M153.081 279.027L152.663 279.969C151.756 280.554 150.944 280.933 150.233 281.108C149.523 281.282 148.886 281.369 148.328 281.369C147.281 281.369 146.286 281.164 145.349 280.754C144.411 280.344 143.648 279.651 143.055 278.67C142.466 277.693 142.169 276.511 142.169 275.133C142.169 274.217 142.283 273.388 142.51 272.651C142.736 271.914 142.976 271.364 143.225 271.007C143.473 270.649 143.896 270.252 144.49 269.816C145.083 269.38 145.711 269.031 146.378 268.769C147.041 268.508 147.756 268.377 148.528 268.377C149.575 268.377 150.5 268.626 151.298 269.118C152.096 269.611 152.658 270.244 152.981 271.011C153.304 271.779 153.465 272.594 153.465 273.462C153.465 273.733 153.452 273.994 153.426 274.247L153.282 274.391C152.689 274.522 151.891 274.609 150.883 274.653C149.88 274.696 149.213 274.718 148.89 274.718H144.686C144.703 276.528 145.157 277.858 146.047 278.713C146.936 279.568 148.031 279.995 149.322 279.995C149.933 279.995 150.521 279.891 151.084 279.681C151.647 279.472 152.244 279.18 152.872 278.805L153.081 279.027ZM144.686 273.667C144.843 273.693 145.449 273.724 146.5 273.759C147.551 273.794 148.332 273.811 148.838 273.811C150.05 273.811 150.792 273.789 151.053 273.746C151.062 273.536 151.066 273.375 151.066 273.262C151.066 271.91 150.792 270.902 150.242 270.244C149.693 269.585 148.943 269.254 147.987 269.254C146.949 269.254 146.138 269.624 145.558 270.366C144.978 271.107 144.686 272.211 144.686 273.667Z" fill="#9DAF4C"/>
<path d="M142.807 102.268C141.882 94.9019 141.38 90.9767 141.289 90.4969C140.857 88.1462 140.177 85.8696 139.248 83.6759C138.144 81.094 136.457 80.5052 133.399 80.1825C124.755 78.9569 115.858 78.1457 106.691 77.7663L103.908 96.7598L97.2179 140.9C97.1787 141.132 97.0435 141.258 96.808 141.276C96.7426 141.276 96.6771 141.276 96.6161 141.258C96.4067 141.188 96.3021 141.049 96.3021 140.826L96.1102 102.172L96.398 79.2753L96.2759 60.6787L96.3282 53.596L96.6597 44.7295L97.3619 34.7334C97.1961 32.2692 97.4665 30.3808 98.1774 29.068C102.207 27.8469 105.618 25.7796 108.409 22.8706C109.007 22.2644 109.495 21.9678 109.504 21.0171C109.526 16.3287 109.504 9.57302 109.456 0.745749C109.456 0.396845 109.172 0.117722 108.823 0.113361L101.113 0.0566637L81.8226 -0.00439453L79.5067 0.0348572L72.3934 0.017412C71.9529 0.00868937 71.7349 0.226754 71.7392 0.671607C71.7916 7.20483 71.7916 13.8253 71.7392 20.5286C71.7305 21.3267 71.9835 21.9896 72.4937 22.5217C75.442 25.6008 78.8045 27.7596 82.5945 28.9939C83.0088 29.1335 83.2749 29.3254 83.3926 29.5696C83.5322 29.8749 83.5802 30.2456 83.5365 30.6817L83.82 34.3278C83.82 34.3278 83.82 34.3757 83.8331 34.463C83.8331 34.4848 83.8331 34.5066 83.8418 34.5327L83.8549 34.7159C83.8549 34.7508 83.8549 34.7857 83.8636 34.8249C84.0686 37.1844 84.8929 47.3026 84.8929 53.4128C84.8929 53.8053 84.8798 54.1673 84.8449 54.4988C84.9714 61.9086 84.8362 69.3272 84.4481 76.7501C84.4263 77.1034 84.1428 77.3825 83.7939 77.4L72.1056 77.8797L52.5975 79.4803C50.238 79.7594 47.8742 80.0473 45.5104 80.3351C43.1466 80.6186 42.1478 82.6161 41.5416 84.897C38.6282 95.7349 37.7124 106.882 38.7896 118.344L45.4101 114.85C45.8549 114.615 45.9901 114.737 45.8244 115.212C42.2045 125.44 42.536 135.737 46.8231 146.108L49.3788 151.625C49.4879 151.969 49.6231 152.183 49.7888 152.279C49.9589 152.371 50.177 152.305 50.2729 152.131C51.7601 149.401 53.4697 146.889 55.3974 144.603C55.947 143.949 56.1607 144.049 56.0429 144.887C54.5819 155.053 58.7949 165.346 65.978 172.699C66.4795 173.209 67.6571 174.304 69.5193 175.978C69.938 176.471 70.2913 176.589 70.5748 176.332L71.8352 171.055C72.0707 170.056 72.3149 170.056 72.5635 171.046C73.9635 176.702 78.6606 181.487 83.1789 185.111L89.9651 189.738C90.3882 190.031 90.9464 190.035 91.3782 189.751L96.5245 186.371C99.3027 184.356 101.841 182.054 104.135 179.459C106.407 176.894 107.942 173.95 108.736 170.636C108.823 170.265 108.945 170.252 109.111 170.597C110.062 172.607 110.415 174.932 110.886 176.371C110.895 176.397 110.904 176.419 110.926 176.436C110.991 176.515 111.109 176.524 111.187 176.458C114.371 173.811 117.11 170.902 119.395 167.731C124.363 160.635 126.303 153.051 125.226 144.965C125.095 143.988 125.357 143.871 126.003 144.616C127.917 146.823 129.548 149.248 130.9 151.904C130.94 151.991 131.009 152.057 131.088 152.096C131.302 152.205 131.568 152.126 131.672 151.913C133.635 148.232 135.166 144.381 136.252 140.355L137.447 132.762C138.009 126.6 137.285 120.799 135.27 115.356C135.035 114.728 135.209 114.58 135.794 114.916L141.904 118.449C141.965 118.483 142.039 118.505 142.113 118.51C142.379 118.523 142.606 118.322 142.619 118.052L142.959 110.982L142.942 109.512C143.025 105.945 142.981 103.524 142.82 102.246L142.807 102.268ZM81.6612 17.829C81.4737 17.6938 81.3777 17.5062 81.3777 17.2751V9.96118C81.3777 9.70386 81.5042 9.57738 81.7615 9.57302L86.8381 9.52505L99.5556 9.51196C99.7737 9.51196 99.9481 9.69078 99.9481 9.90448C99.9394 12.1767 99.9481 14.4838 99.9699 16.8302C99.9699 18.0034 99.3724 18.1822 98.3301 18.8146C96.9083 19.6825 95.3818 20.2626 93.7594 20.5591C89.2804 21.4009 85.2418 20.4894 81.6612 17.8246V17.829Z" fill="#307A3B"/>
<path d="M120.023 40.7346C124.659 42.3745 129.108 44.3065 133.369 46.5221C139.374 49.7582 144.987 53.5961 150.203 58.0403L151.682 59.3705C155.297 62.781 158.464 66.1436 161.185 69.4669C167.544 77.2343 172.424 85.9526 175.835 95.6259C176.79 98.3343 177.666 101.078 178.465 103.856L180.118 111.854C183.659 133.718 178.63 156.501 166.789 175.093L159.275 184.95L155.808 188.644C150.487 194.17 144.455 199.028 137.721 203.211C137.246 203.725 136.583 203.093 135.741 201.318L132.427 195.792C132.283 195.548 132.357 195.238 132.592 195.081L136.923 192.285L144.002 186.786C153.692 178.36 160.989 168.111 165.891 156.043L169.594 144.481C172.023 134.014 172.359 123.551 170.592 113.084L168.8 105.086C167.753 101.069 166.488 97.4664 165.006 94.2696C162.232 88.0983 158.66 82.0754 154.299 76.1964C150.539 71.1329 146.296 66.8239 141.577 63.2738C136.256 59.0695 130.521 55.5587 124.371 52.7413L120.485 51.1363C115.732 49.1389 110.734 47.704 105.504 46.8317L106.316 37.6774C106.337 37.4462 106.464 37.3459 106.691 37.3808C111.305 38.1004 115.753 39.2169 120.036 40.7346H120.023Z" fill="#9DAD4A"/>
<path d="M83.8154 34.3364L83.8285 34.4716C83.8198 34.3844 83.8154 34.3364 83.8154 34.3364Z" fill="#307A3B"/>
<path d="M83.8286 34.4717C83.8373 34.5589 83.8461 34.681 83.8591 34.838L83.8286 34.4717Z" fill="#307A3B"/>
<path d="M83.8592 34.8381C83.8853 35.1478 83.9202 35.5796 83.9682 36.1204L83.6411 36.1596C83.8505 36.1204 83.9508 35.9939 83.929 35.7715L83.8592 34.8381Z" fill="#307A3B"/>
<path d="M84.3735 45.6759C84.4564 45.6671 84.5393 45.6628 84.6265 45.6541C84.7791 48.3973 84.8882 51.1842 84.8882 53.4259C84.8882 53.8184 84.8751 54.1804 84.8402 54.5119C84.8227 53.1991 84.7922 51.8864 84.753 50.5736L84.6265 45.9463C84.6178 45.8023 84.5087 45.6846 84.3735 45.6759Z" fill="#307A3B"/>
<path d="M87.2959 45.3881C86.8423 45.4448 85.6735 45.5538 84.6224 45.6541C84.4131 41.8947 84.134 38.2181 83.9639 36.1203L87.6971 35.6362C87.6971 35.6362 88.1943 45.2747 87.2959 45.3881Z" fill="#307A3B"/>
<path d="M84.6267 45.6542C84.5394 45.6629 84.4566 45.6672 84.3737 45.676H84.3214C84.0553 45.6978 83.7893 45.7196 83.5233 45.7458C83.3575 45.7588 83.1918 45.7806 83.0261 45.7981C82.9388 45.8068 82.8691 45.8112 82.8167 45.8155C82.7818 45.8155 82.7513 45.8155 82.7295 45.8243C82.7033 45.8243 82.6903 45.8243 82.6903 45.8243C81.2205 45.9769 79.7638 46.1644 78.3115 46.3956C72.2973 47.3376 66.4182 48.9513 60.6744 51.2366C57.0502 52.593 53.5524 54.2503 50.1898 56.2085C37.3894 63.5442 27.3628 73.6101 20.1012 86.4062C15.33 94.806 12.12 103.808 10.4715 113.416C8.02479 129.64 10.2796 145.258 17.2315 160.273C21.6277 169.785 27.7815 178.142 35.6929 185.347C38.7807 188.452 42.2784 191.204 46.1862 193.598L51.9213 196.904C52.3094 197.131 52.4534 197.619 52.2527 198.016L48.7986 204.698C48.7637 204.807 48.707 204.916 48.6329 205.012C48.3755 205.47 47.983 205.548 47.4684 205.26C44.555 203.634 41.7027 201.906 38.9115 200.083C36.9446 198.792 34.9733 197.292 33.0063 195.583C31.1397 193.965 29.2905 192.32 27.4587 190.654L23.7516 186.991C9.79112 171.552 1.9495 153.479 0.235507 132.754C-0.915877 116.094 2.17192 100.458 9.50327 85.8479C16.6427 71.6126 26.8656 60.0552 40.1719 51.1799L44.241 48.6286C53.7574 43.0069 64.0064 39.2256 74.9838 37.2848L76.9464 37.0275L79.9644 36.6394L80.4137 36.5783L83.6105 36.1683C83.6105 36.1683 83.6323 36.1683 83.6454 36.1596L83.9725 36.1204C84.1426 38.2181 84.426 41.8947 84.631 45.6542H84.6267Z" fill="#9DAD4A"/>
<path d="M83.606 36.1725L80.4092 36.5825L83.6365 36.1638C83.6365 36.1638 83.6147 36.1725 83.6017 36.1725H83.606Z" fill="#307A3B"/>
<path d="M84.3737 45.6758C83.5799 45.7499 82.9039 45.811 82.7295 45.8241C83.2616 45.7674 83.7893 45.7194 84.3214 45.6758H84.3737Z" fill="#307A3B"/>
</g>
<defs>
<clipPath id="clip0_806_25207">
<rect width="181.229" height="288.5" fill="white"/>
</clipPath>
</defs>
</svg>
